/* XPM */
static char *_e343e91290d4f20f73080e2d5f8ec86VhDOgGg6qp39XcpF[] = {
/* columns rows colors chars-per-pixel */
"69 69 124 2 ",
"   c #06070C",
".  c #07080D",
"X  c #0B0C0E",
"o  c #0C0D11",
"O  c #0F1014",
"+  c #121315",
"@  c #151619",
"#  c #17181B",
"$  c #1B1B1D",
"%  c #1E1E21",
"&  c #1F2022",
"*  c #242424",
"=  c #262728",
"-  c #27282B",
";  c #2C2C2C",
":  c #2E2F31",
">  c #2F3033",
",  c #323232",
"<  c #343434",
"1  c gray21",
"2  c #373737",
"3  c #353538",
"4  c #353539",
"5  c gray22",
"6  c #383839",
"7  c #393939",
"8  c #39393A",
"9  c #3A3A3A",
"0  c gray23",
"q  c #3A3A3D",
"w  c #3C3C3C",
"e  c gray24",
"r  c #3E3E3D",
"t  c #3D3D3F",
"y  c #3F3F3F",
"u  c #3D3E40",
"i  c #3F3F40",
"p  c #3F4042",
"a  c gray25",
"s  c #404041",
"d  c #414141",
"f  c #414142",
"g  c gray26",
"h  c #434343",
"j  c #434345",
"k  c #444444",
"l  c gray27",
"z  c #464646",
"x  c gray28",
"c  c #464649",
"v  c #47474A",
"b  c #484848",
"n  c #494949",
"m  c gray29",
"M  c #4B4B4B",
"N  c #4B4B4D",
"B  c #4C4C4C",
"V  c gray30",
"C  c #4C4C4E",
"Z  c #4E4E4E",
"A  c gray31",
"S  c #4E4F51",
"D  c #505050",
"F  c #515151",
"G  c gray32",
"H  c #525253",
"J  c #535353",
"K  c #535354",
"L  c gray33",
"P  c #555555",
"I  c #545557",
"U  c #565656",
"Y  c gray34",
"T  c #585858",
"R  c gray35",
"E  c #5A5A5A",
"W  c #5B5B5B",
"Q  c #5C5C5C",
"!  c #5D5D5D",
"~  c gray37",
"^  c #5F5F5F",
"/  c #5F5F60",
"(  c #606060",
")  c gray38",
"_  c #626262",
"`  c #636363",
"'  c #646464",
"]  c #656565",
"[  c #656566",
"{  c gray40",
"}  c #666667",
"|  c #676767",
" . c #676768",
".. c #686868",
"X. c DimGray",
"o. c #6A6A6A",
"O. c #6B6B6B",
"+. c #6C6C6C",
"@. c #6D6D6D",
"#. c gray43",
"$. c #6F6F6F",
"%. c #6F6F70",
"&. c gray44",
"*. c #717171",
"=. c #727272",
"-. c gray45",
";. c #747474",
":. c #747475",
">. c gray46",
",. c #767676",
"<. c #777777",
"1. c gray47",
"2. c #797979",
"3. c gray48",
"4. c #7B7B7B",
"5. c #7C7C7C",
"6. c gray49",
"7. c #7E7E7E",
"8. c gray50",
"9. c #808080",
"0. c #818181",
"q. c gray51",
"w. c #848484",
"e. c gray52",
/* pixels */
"  . o O + @ % * : - = % @ O @ O + + + + + + + + + + + + + + + + @ + + + + @ + @ + @ + + + @ + + + # + + + + + + + # @ + + + + + + + O o . ",
"  . O + # * : q v v u : * % % % $ $ $ & $ $ $ $ & & $ $ $ $ $ $ & $ $ & $ $ $ $ $ $ $ $ $ $ $ & $ $ $ $ $ % $ $ $ $ $ $ % $ % % $ $ @ + o ",
"  o + $ * ; a K [ ..I j > = = - = = * = ; = = = = = = = ; = = = = = = * = = = = = = = = = = = = = = - - = = = = = = = * = = = = = = % @ O ",
"  X @ & ; 7 A _ 1.1...S q : : : , , , ; ; , , ; ; , ; ; ; ; ; ; , ; , , , , , , , , ; , : : : : : : : : : : : , , < , , : : : : : ; * # O ",
"  o @ % ; 4 M T ..+.T A 7 , , 1 9 7 2 1 , ; ; , , , ; ; * * = ; : , 7 r l x y w < , , ; : , , < 7 7 7 : , , 7 0 l b a w 4 , : , , ; = $ o ",
"  o @ * ; 1 a M U U D s 7 , 1 7 r r r 1 < , , , , ; ; * $ $ * = ; , r M T Q D z 0 ; ; , , , < 7 y y 9 7 , , y b L ~ L x q : : : , ; = $ + ",
"  o + & ; , 1 w a k w 7 , , 7 u x x r 9 1 ; , ; ; ; = $ $ + $ * ; 2 x R +.=._ D r , ; , : , 7 r l z l 0 7 < z T ..-.[ G y , , : : ; * $ + ",
"  o @ & ; , , , 1 , , , : , 7 a x B z r 9 1 , , , ; = $ X X $ $ = 7 M ( <.9.+.U y , , < , < r y m B l r 7 < x ~ >.7.@.T k , , , : : = $ o ",
"  + $ * , 2 1 1 , : ; ; * ; , 7 h x x x x x r r 1 ; * $ + + $ * ; < b Q $.<.] G r , 7 r l b m m b b y r < < l L ] $.] L k w < < , - - $ + ",
"  X $ ; 7 r 7 2 , ; = * $ % = , r r B J Q ~ D l 9 ; ; * * $ * = ; < l J ] X.Q m r , r m U Q U B x y w < < , w b L T L D b y w 7 1 : = $ o ",
"  + $ , w b y r 1 ; * $ + @ $ ; , r Z Q +.$.( Z r ; ; ; * ; ; ; : < r B T R D x 7 7 b T X.=.] L l 0 < < , , < r a k b b b b a y 1 : = $ + ",
". X * < l B a 0 , ; * @ + X @ * , r D ] 1.6.X.L r , , ; ; ; ; , ; , 0 h M D b r < < M Q >.6.+.T h : , , ; , , , 1 < y y B B b y 4 : * # + ",
". + $ , w k y , ; * $ $ + + * , r Z U ] #.#.^ B r , ; ; = * ; ; : , 9 r l l g 0 < < l U X.#.( D r : , ; , : : , , < w w b D b y 7 ; = $ o ",
"  X $ ; 1 w , ; * $ $ $ $ * 1 k U ~ ( ~ ^ T Z g 2 ; ; * & $ * * ; , < 9 r r r < < : r b U R D z 0 , , , : , , ; : : 7 l B B b y 7 : = $ + ",
". o # * , , ; $ + + + $ * ; a U o.=.] R Z l r 9 , , * $ + + $ * ; ; < < < 7 < < , , 7 9 g z r 0 , , ; , , : : , : , 7 y b D l l 7 ; = $ O ",
". X @ * ; ; * $ + + $ $ ; 1 A _ 1.6.o.U g < , , , ; * $ + + # * ; ; , , < < < : , : , , , , , , < < < , < , , , , , 7 l b B b w 4 : = $ O ",
". X @ * ; ; * $ @ + $ * ; 1 b W +.$._ D l 7 7 < , ; : ; ; ; ; ; ; , 2 r h z r r < ; ; ; * * , 7 y x x x x x h y 7 0 r y h x h r 1 ; = @ + ",
"  o @ % - ; ; * & $ * ; - 1 y B Y W L B l w w < : < 0 r l l g 0 , 1 r M U E A z 0 ; ; * * * ; r J Q ^ ~ ^ ^ U A x y h y h y r 2 1 : = $ o ",
"  o @ % ; > ; * = = ; ; ; , 7 w l k b b b x y 9 < < l L _ ] T b r 2 x U o.#.^ A r ; * * $ + , x ( <.<.,.<.>.| ^ J x h g r 7 < , , ; = $ + ",
"  o @ * ; , , < , ; ; , 1 < < < < 7 w l M M l r 7 w B _ ,.4.X.U r 2 M ^ <.7.#.U h : * $ + + ; Z o.9.w.w.0.w.1.o.E L B h 2 < , , , - = $ + ",
". o & ; w l w 0 , , 7 w a l y w 9 9 w l x b b b b B T _ +.$.( Z r , x R X.-.| E G z , * + X * r T o.#.-.>.-.#.o.] ~ U M g 7 < < , : = $ O ",
"  + - w L T A a 1 1 y D T ~ L A l g y y y l B G T ^ Q ( ( Q D l 2 1 r M U ^ ^ ^ ^ U z ; # X $ ; r M D L E ( ] | o.o.` U M y r 2 , : = @ O ",
"  @ : A [ @.Q B 7 7 M T +.>.] T Z b g r w w M Q #.$.] E A l y 0 , , 7 r h M U ` #.#.J 2 $ X + $ * ; , 7 h M U ] -.1.#.` J m g r 1 : = $ + ",
". @ 4 L >.4.[ D w 7 A ] 1.8.>.[ T M l r 1 w B ] 1.4.+.T l 1 < , , , , , , 9 A ` <.7.` h * X X X X X $ * ; 2 B ( <.0.1.o.U A x r 7 ; = $ O ",
"  @ : S [ @.~ A 7 7 M ( >.1.+.( D b y w < < b T #.=._ D l 9 7 7 0 2 , , , 2 M ` 4.e.| b ; X X + X X $ * ; , h U | -.o.^ J M g r 1 , = $ o ",
"  + - u U T D a 4 7 x U [ ..~ L b r w 1 < < y B T Q U D z y r y r r r 2 , 2 A ] 4.w.o.D , * $ $ $ $ * * ; , r M U Q U A M y r < , : * $ + ",
". O % : a k w 7 , 1 a A T ~ L B r 7 1 < , , 9 r l b b b b b b b M x r 0 , 2 M ` 4.e.#.L 7 ; * = ; * = ; ; , 2 r h x x r 0 0 < < , : = $ O ",
". o @ * ; 1 1 1 1 7 w k D D k a 1 , , , , , < < < 7 r y b Z Z A A M x r 2 2 A ` 4.w.$.U y ; ; ; ; , : , , , , , < , , < < < , , : ; = # + ",
". o @ % : : 7 w y k k A b k y 7 < , 1 r h h r 9 , , 7 r l b b b M x r 0 , 2 M E #.1.| L y , , < 2 2 r r l x r 0 , , 1 0 y x y w 1 ; = $ + ",
"  o @ * ; 4 w M U Q D A k w 7 7 < < r M U T A y < , < 9 r y h y g r r 2 , 2 h J ] o.^ B r , < 2 r h x A T T A x 0 , r b J U A x q : * $ O ",
"  o @ % ; 7 M T @.@.~ D a 7 1 , , < x T X.+.~ Z w , , < 7 0 7 0 0 2 2 , , 2 r A U ^ J l 7 , 7 r h M U ( o.$.` D r < y U | #.` D a , = # + ",
"  . @ % ; 4 A _ 1.1.[ U y , , , , 9 Z ` 1.4.X.L r , , , , , : : , ; , , ; , 0 h A A x y 7 < 7 y x J ( #.1.7.#.U h 7 M Q -.7.#.T a : = $ O ",
"X X + $ ; 2 m U | X.R x 7 , , , 1 r A ^ #.=.^ A r , , , , ; ; ; ; * ; ; ; , r r h x h r 1 , 9 r M G ^ ] #.-.] J r 2 h U | -.` J a , * $ O ",
"X X $ * ; , r r m M h r < , 2 0 r g M J E ! A h 2 , ; ; , , ; * * $ * * ; ; 1 2 r r r 2 , , r h M D U T ~ Q J x r , r M U ^ J x 7 : * $ O ",
"X X + * ; ; ; ; ; ; ; ; ; < 2 r g x M x M x r r , , , , ; ; * $ + + $ * ; , , 2 2 2 2 2 , , 0 h M D D Z M x r r , , 2 r x x g r 1 : = $ O ",
"X X + * ; ; * $ $ X $ * ; , r h M A x r 2 2 , , , , , , , ; * $ + X $ * ; ; , , , , , ; , 2 0 r M A b y r < < , , , , , , , , , , ; = # + ",
"X X + * * ; * $ + + $ * ; , r M U E A h 1 , 2 r r h r r , , * $ + + $ * ; , 2 , , , 2 r r h x x x x r 2 ; ; ; , < 2 < ; ; ; * ; ; , = $ O ",
"X X @ $ ; ; ; * $ $ * * ; 1 x U ` X.U M r , r M J U A r 1 ; ; * $ * * , r r r 2 , , r x U R J Z b r 2 , * $ * , 2 r < ; * $ * * ; ; * $ O ",
". X @ * ; ; ; * * * ; ; ; 9 M ~ =.-.` Z r , x U | #.^ M r , ; ; * ; , 2 r l r r , 2 h P | #.` J z 7 ; * $ $ * ; r h 2 ; $ + $ * = ; * $ + ",
". X $ $ ; , , , , , , ; , 0 V ` 4.7.X.J r r A ` <.6.o.J r ; ; ; ; ; 0 r m M h r < 2 M ^ >.7.#.U h , * $ + X $ ; r M r ; $ + + $ ; ; * $ O ",
". X @ & ; , 2 r g d r 2 < 2 M ! #.#.~ Z r 7 x E #.*.^ x 2 ; ; ; , , 2 r x M h r , 2 x U o.-.] J r ; * $ + X $ , r B r , $ + $ $ = ; * $ + ",
". X @ & ; , r M P U M g 2 2 g M E ^ J g 2 , r A E E M r ; $ * * ; , < r r r r 2 , , r M U ^ J x r ; * $ X X $ ; r B r < ; $ * * ; ; = $ O ",
". X @ & ; 7 M T o.o.E M 0 , 9 r x z g r < , r r l h 2 ; $ $ $ * ; , , < 2 2 2 , , , 0 r h x h r , ; * $ + X $ ; l A x 7 ; * * ; ; , * $ O ",
". X @ & ; 7 A ` <.4.| J r , , 1 1 1 1 , , , , < 2 1 * $ + X + * ; ; , , , , , , , , , , 2 1 , 2 , , * $ + X $ , r B x r 2 , ; ; , ; * $ + ",
"X X + $ & , r U X.X.~ M r r r r h r r 0 , , ; , , ; * * $ $ * * ; ; , 1 2 , 1 , , ; , ; , , 2 2 r r 2 * $ + * ; r m r 2 , ; * ; = * $ + X ",
"X X X + $ & : r x M M z h r x A U U M r 2 , ; , , ; ; ; ; * ; ; ; , , 0 r r r 2 , , , ; , , r x J U m 9 * * * ; 0 r 2 , * $ $ $ $ $ $ + X ",
". . X X + + $ * ; , 2 r h A U ) o.@.E M 2 , , , , , , 1 2 r 2 2 , , 2 r z h r 0 1 , , , ; , h J ] +.E m 1 * ; ; 1 1 ; * $ + + $ + + O X X ",
". . . X X X X X X $ * 2 x J ` *.4.6.o.J r , , ; ; , r r z z g r 2 < r r m M x r 2 ; ; , , 2 M ^ >.7.o.U r , ; , , , ; $ + X X X   X X . X ",
"  X X X X + X X X @ * 6 M G _ ..-.-.| E M r 2 1 ; ; , r h m z x h h l h b b g r < , , , , r M E #.>.] J r , , , 2 , ; * $ X X + O . X X X ",
"  . X O @ # $ $ $ * ; r M D T W ^ ` ^ ^ ^ U x 2 ; $ ; , r h x G U T U B l y r 2 , , < 2 r g M J E ^ J x r , , 2 r r < ; $ $ $ $ # # # + X ",
". X + + % * * * * ; , w M A A A A A E ` o.| J 0 * $ $ ; , r M R X.o._ G h r 2 < , , 2 r h x b M M b h r , , 1 r r l r , ; * * * * & $ @ X ",
"  X # & = : ; : ; ; 7 k M M M a 0 r A | <.4.E r $ + + * ; r M _ <.4.o.U g 1 , , ; , 2 h x B x y r 2 2 , , , r r M M x r 2 ; ; ; ; ; = # + ",
"  X $ : 7 u u 6 , < 7 r k M a 7 , 9 x E #.=.U r * + $ * , r A ~ $.<.X.E A g 2 < ; ; , 2 h b l h 9 2 , , , , 1 r x m b x x r r 9 1 : = # + ",
". + = q A U n s 1 , 7 w w h w 2 2 , r G ~ E M 2 * $ * , 2 r M J ~ ` _ ~ E L x 2 ; * ; , r y g y r r r 1 , , 1 7 r h b Z U U Z h q : = # O ",
"  + , b _ ..T n 2 , 1 1 7 2 2 1 , , r r x x r 1 ; * , 2 h x m M B A T _ o.X.J r * $ $ ; , 2 r h z z r r , , , , 7 r m U ] #.^ A p : % % O ",
"  + 7 L -.1...D w , ; , , , , , , , , 1 , 1 , , ; , 2 r M M z r 2 r D ` <.4._ r * X $ $ ; , r h b Z z r 1 , , , , 1 b ^ -.7.#.T j , * % + ",
". # : b ] X.T l , ; ; ; ; , , 1 1 , , ; ; ; ; ; ; , 2 r x M r r < 2 Z ` 4.e.` x * + $ * * , 2 r x M r 2 , ; ; ; ; 1 x R o.,.o.^ S u , * $ ",
"  X * , b B w , * $ * * ; , < 7 r r , ; * $ * * ; , 2 r r r r 2 < 2 B | 6.e.X.A , $ $ * ; , , r r r 7 , * $ * * ; , r M E ` ( ^ ~ U a : % ",
"  X $ * ; ; * * $ $ $ * ; , 7 w h r 2 ; $ + $ * ; , , 2 9 2 2 , , 1 B ` 4.e.o.J 1 * * ; ; , , 2 2 2 , * $ $ $ * ; , 2 r x B U ^  ...I q % ",
"X X X X + + + X X X $ * ; , r h m x 2 * + + $ * ; , , , , , , , , 2 Z ` 4.e.o.T r , ; , , ; , , , , * $ + X $ $ * , , , 1 r A ^ :.7.[ j - ",
"  X X X + + $ $ $ * ; < r l M D U J r ; $ + $ ; 9 r 2 , ; * ; ; ; 2 b E #.-.` J r , , , 1 1 2 2 2 , ; $ $ X $ * * , 2 0 r h G ^ %.,.~ a = ",
"  X + # * ; ; < w h M D L T ~ ] X.` J r * * ; r A J x 2 ; $ * ; ; , g A Q _ U x r , , 1 r r r r r r , ; $ $ $ * ; , r h A U E ^ ` _ v 4 % ",
". o $ = , w M L Q ] X...@.-.-.,.4.=.E x , ; r G ` X.G r * $ $ * ; 1 2 h x m h r 1 , 1 r y x x x x h r , ; * * ; ; , h J ` #.| ^ I v 4 - % ",
". o $ , l D Q +.1.q.q.q.e.e.e.e.e.7.X.G 2 1 m ^ <.<.E r $ + + $ ; , , , 2 2 1 , , , 2 g x Z B A Z M h r , , ; ; , 1 b E -.7.#.E v 6 - % O ",
". X % : 7 b U ` %.,.:.:.:.:.,.:.:.%./ u u - u I  .%.S u +   O % * - - = = - = ; = ; , 7 p j j v v p u , : - - - = : w K  .%./ A u = % # O ",
". X @ * ; 4 w v S K I I I I S S I S u u - - : u S S u - O   o O # % % % % % % % % % = = : > > > , : - * * % % % % * ; q v S j u - % @ @ o ",
". X + @ % & = ; u > > 4 u u - u - u - % # + % : : > & % o . o o + # + # @ @ @ @ + # # $ % % % % % % % % @ @ @ @ @ # % = ; > - * % @ O O . ",
". .   X o o o + O O O O o o O O + o + o o o o o o o O o . . . . . o   .   . . . . o . . o o o o o o o o . o . . . . o o O + O O   . . . . ",
"                                                        . .                     . . .                   .                         . . . . "
};
