/* XPM */
static char *eda75eddb78b4cf9e54ddcc8b16f9f70FMglNbvt1y93InGC[] = {
/* columns rows colors chars-per-pixel */
"69 69 96 2 ",
"   c gray34",
".  c gray21",
"X  c gray20",
"o  c #3E3E3E",
"O  c #979797",
"+  c #939393",
"@  c #080707",
"#  c #373737",
"$  c gray24",
"%  c gray31",
"&  c DimGray",
"*  c gray50",
"=  c #818181",
"-  c gray53",
";  c gray58",
":  c gray16",
">  c #535353",
",  c #121313",
"<  c #4E4E4E",
"1  c gray29",
"2  c gray48",
"3  c gray37",
"4  c #3C3C3C",
"5  c #393939",
"6  c #585858",
"7  c #727272",
"8  c #656565",
"9  c gray38",
"0  c gray40",
"q  c #717171",
"w  c gray35",
"e  c #5B5B5B",
"r  c #252525",
"t  c #6F6F6F",
"y  c #606060",
"u  c #515151",
"i  c #414141",
"p  c #0E0E0E",
"a  c gray12",
"s  c #101110",
"d  c #131414",
"f  c gray43",
"g  c #929292",
"h  c gray46",
"j  c #959595",
"k  c #868686",
"l  c #777777",
"z  c #464646",
"x  c #3A3A3A",
"c  c #1E1E1E",
"v  c #646464",
"b  c gray19",
"n  c #8B8B8B",
"m  c #8D8D8D",
"M  c gray56",
"N  c gray22",
"B  c gray18",
"V  c gray52",
"C  c gray28",
"Z  c gray30",
"A  c #353535",
"S  c #494949",
"D  c #161717",
"F  c #1D1D1D",
"G  c gray39",
"H  c #5A5A5A",
"J  c #4B4B4B",
"K  c #808080",
"L  c #797979",
"P  c #7B7B7B",
"I  c #555555",
"U  c #747474",
"Y  c gray59",
"T  c #505050",
"R  c #343434",
"E  c #323232",
"W  c #444444",
"Q  c #676767",
"!  c gray23",
"~  c #1A1B1B",
"^  c #7E7E7E",
"/  c gray26",
"(  c #282828",
")  c gray5",
"_  c gray13",
"`  c gray25",
"'  c gray55",
"]  c gray15",
"[  c #2F2F2F",
"{  c #7C7C7C",
"}  c gray17",
"|  c #171818",
" . c #565656",
".. c #767676",
"X. c gray49",
"o. c #313131",
/* pixels */
"        . X X X X X X X X X X X X X X X X o         O O O O O O O O + @ @ @ @ O O O O         # X X X X X X X X X X X X X X X X $         ",
"        . X X X X X X X X X X X X X X X X o         O O O O O O O O + @ @ @ @ O O O O         # X X X X X X X X X X X X X X X X $         ",
"        . X X X X X X X X X X X X X X X X o         O O O O O O O O + @ @ @ @ O O O O         # X X X X X X X X X X X X X X X X $         ",
"        . X X X X X X X X X X X X X X X X o         O O O O O O O O + @ @ @ @ O O O O         # X X X X X X X X X X X X X X X X $         ",
"        % % % % & * * * * * * * * * * * * = - - - - O O O O O O O O ; : : : : O O O O - - - - * * * * > , , , , < % % % % % % % 1 $ $ $ $ ",
"                2 O O O O O O O O O O O O O O O O O O O O O O O O O ; X X X X O O O O O O O O O O O O 3 @ @ @ @                 < X X X X ",
"                2 O O O O O O O O O O O O O O O O O O O O O O O O O ; X X X X O O O O O O O O O O O O 3 @ @ @ @                 < X X X X ",
"                2 O O O O O O O O O O O O O O O O O O O O O O O O O ; X X X X O O O O O O O O O O O O 3 @ @ @ @                 < X X X X ",
"        4 5 5 5 6 7 7 7 7 7 7 7 7 8 9 9 9 0 7 7 7 7 7 7 7 7 7 7 7 7 q w w w w 7 7 7 7 * * * * * * * * e r r r r t t t t y       u i i i i ",
"        p @ @ @ a X X X X X X X X s @ @ @ d X X X X X X X X X X X X # O O O O X X X X                           O O O O f                 ",
"        p @ @ @ a X X X X X X X X s @ @ @ d X X X X X X X X X X X X # O O O O X X X X                           O O O O f                 ",
"        p @ @ @ a X X X X X X X X s @ @ @ d X X X X X X X X X X X X # O O O O X X X X                           O O O O f                 ",
"        p @ @ @ a X X X X X X X X s @ @ @ d X X X X X X X X X X X X # O O O O X X X X                           O O O O f                 ",
"        g O O O h                         i @ @ @ @         O O O O j                 X X X X X X X X X X X X X X X X X X X X X $         ",
"        g O O O h                         i @ @ @ @         O O O O j                 X X X X X X X X X X X X X X X X X X X X X $         ",
"        g O O O h                         i @ @ @ @         O O O O j                 X X X X X X X X X X X X X X X X X X X X X $         ",
"        g O O O h                         i @ @ @ @         O O O O j                 X X X X X X X X X X X X X X X X X X X X X $         ",
"        g O O O k l l l t z z z z z z z z x c c c c z z z z 0 0 0 0 v z z z z z z z z 0 0 0 0 0 0 0 0 0 0 0 0 0 0 0 0 0 0 0 0 0   b b b b ",
"        g O O O O O O O - X X X X X X X X X X X X X X X X X X X X X X X X X X X X X X O O O O O O O O O O O O O O O O O O O O O q @ @ @ @ ",
"        g O O O O O O O - X X X X X X X X X X X X X X X X X X X X X X X X X X X X X X O O O O O O O O O O O O O O O O O O O O O q @ @ @ @ ",
"        g O O O O O O O - X X X X X X X X X X X X X X X X X X X X X X X X X X X X X X O O O O O O O O O O O O O O O O O O O O O q @ @ @ @ ",
"> > > > - n n n m M M M = N N N N N N N N # X X X X X X X X X X X X X N N N N B B B B M M M M M M M M m n n n n n n n n - V V V 0 s s s s ",
"X X X X X X X X C                         Z X X X X X X X X X X X X A         @ @ @ @                 S X X X X X X X X D @ @ @ F         ",
"X X X X X X X X C                         Z X X X X X X X X X X X X A         @ @ @ @                 S X X X X X X X X D @ @ @ F         ",
"X X X X X X X X C                         Z X X X X X X X X X X X X A         @ @ @ @                 S X X X X X X X X D @ @ @ F         ",
"X X X X X X X X C                         Z X X X X X X X X X X X X A         @ @ @ @                 S X X X X X X X X D @ @ @ F         ",
"O O O O O O O O h       w G G G G H       Z X X X X O O O O O O O O j                                 q O O O O O O O O O O O O q @ @ @ @ ",
"O O O O O O O O h       w G G G G H       Z X X X X O O O O O O O O j                                 q O O O O O O O O O O O O q @ @ @ @ ",
"O O O O O O O O h       w G G G G H       Z X X X X O O O O O O O O j                                 q O O O O O O O O O O O O q @ @ @ @ ",
"O O O O O O O O h       w G G G G H       Z X X X X O O O O O O O O j                                 q O O O O O O O O O O O O q @ @ @ @ ",
"                        u X X X X X X X X X X X X X X X X X X X X X X X X X X @ @ @ @ X X X X X X X X X X X X X X X X X J                 ",
"                        u X X X X X X X X X X X X X X X X X X X X X X X X X X @ @ @ @ X X X X X X X X X X X X X X X X X J                 ",
"                        u X X X X X X X X X X X X X X X X X X X X X X X X X X @ @ @ @ X X X X X X X X X X X X X X X X X J                 ",
"                        u X X X X X X X X X X X X X X X X X X X X X X X X X X @ @ @ @ X X X X X X X X X X X X X X X X X J                 ",
"                        u X X X X X X X X X X X X X X X X X X X X X X X X X X @ @ @ @ X X X X X X X X X X X X X X X X X J                 ",
"        g O O O O O O O K @ @ @ @ L O O O P X X X X                           O O O O O O O O O O O O O O O O O O O O O O O O O O O O O O ",
"        g O O O O O O O K @ @ @ @ L O O O P X X X X                           O O O O O O O O O O O O O O O O O O O O O O O O O O O O O O ",
"        g O O O O O O O K @ @ @ @ L O O O P X X X X                           O O O O O O O O O O O O O O O O O O O O O O O O O O O O O O ",
"        g O O O O O O O K @ @ @ @ L O O O P X X X X                           O O O O O O O O O O O O O O O O O O O O O O O O O O O O O O ",
"        . X X X X X X X X X X X X X X X X X X X X X X X X X         I @ @ @ @                 # X X X X X X X X X X X X U O O O k         ",
"        . X X X X X X X X X X X X X X X X X X X X X X X X X         I @ @ @ @                 # X X X X X X X X X X X X U O O O k         ",
"        . X X X X X X X X X X X X X X X X X X X X X X X X X         I @ @ @ @                 # X X X X X X X X X X X X U O O O k         ",
"        . X X X X X X X X X X X X X X X X X X X X X X X X X         I @ @ @ @                 # X X X X X X X X X X X X U O O O k         ",
"                L Y Y Y V X X X X X X X X T Y Y Y Y Y Y Y Y R R R R X @ @ @ @ R R R R Y Y Y Y Y Y Y Y Y Y Y Y Y         6 6 6 6 6         ",
"                2 O O O - X X X X X X X X T O O O O O O O O X X X X E @ @ @ @ X X X X O O O O O O O O O O O O O 6                         ",
"                2 O O O - X X X X X X X X T O O O O O O O O X X X X E @ @ @ @ X X X X O O O O O O O O O O O O O 6                         ",
"                2 O O O - X X X X X X X X T O O O O O O O O X X X X E @ @ @ @ X X X X O O O O O O O O O O O O O 6                         ",
"r r r r >       v t t t & 1 1 1 1 N X X X W t t t t t t t t 1 1 1 1 J 9 9 9 9 7 7 7 7 t t t t t t t t t t t t t * * * * * * * * Q r r r r ",
"@ @ @ @ u                         ! X X X o                         w O O O O O O O O                           O O O O O O O O q @ @ @ @ ",
"@ @ @ @ u                         ! X X X o                         w O O O O O O O O                           O O O O O O O O q @ @ @ @ ",
"@ @ @ @ u                         ! X X X o                         w O O O O O O O O                           O O O O O O O O q @ @ @ @ ",
"~ ~ ~ ~ 1 % % % % % % % % % % % % 5 X X X ! % % % % % % % % % % % % u O O O O O O O O % % % % % % % % % % % % % ^ * * * * * * * v ~ ~ ~ ~ ",
"        . X X X X X X X X X X X X X X X X X X X X X X X X X X X X X # O O O O O O O O X X X X X X X X X X X X X X X X X X X X X $         ",
"        . X X X X X X X X X X X X X X X X X X X X X X X X X X X X X # O O O O O O O O X X X X X X X X X X X X X X X X X X X X X $         ",
"        . X X X X X X X X X X X X X X X X X X X X X X X X X X X X X # O O O O O O O O X X X X X X X X X X X X X X X X X X X X X $         ",
"        . X X X X X X X X X X X X X X X X X X X X X X X X X X X X X # O O O O O O O O X X X X X X X X X X X X X X X X X X X X X $         ",
"        - n n n e X X X / n n n n ( ) ) ) _ > > > > > > > > X X X X R ` ` ` ` ` ` ` ` ) ) ) ) b X X X ` > > > > > > > > l n n n ' M M M M ",
"        g O O O 9 X X X W O O O O ] @ @ @ c                 X X X X X X X X X X X X X @ @ @ @ [ X X X /                 = O O O O O O O O ",
"        g O O O 9 X X X W O O O O ] @ @ @ c                 X X X X X X X X X X X X X @ @ @ @ [ X X X /                 = O O O O O O O O ",
"        g O O O 9 X X X W O O O O ] @ @ @ c                 X X X X X X X X X X X X X @ @ @ @ [ X X X /                 = O O O O O O O O ",
"        { * * * 3 i i i S 7 7 7 7 } | | | ] 1 1 1 1 1 1 1 1 X X X X R i i i i i i i i $ $ $ $  .w w w 6         1 1 1 1 v 7 7 7 ..* * * * ",
"                        u X X X X X X X X X X X X X X X X X X X X X A                 O O O O O O O O ^         R X X X X X X X $         ",
"                        u X X X X X X X X X X X X X X X X X X X X X A                 O O O O O O O O ^         R X X X X X X X $         ",
"                        u X X X X X X X X X X X X X X X X X X X X X A                 O O O O O O O O ^         R X X X X X X X $         ",
"                        u X X X X X X X X X A A A A A A A A R R R R A                 Y Y Y Y Y Y Y Y X.        R X X X R R R R o         ",
"X X X X X X X X X X X X X X X X X s @ @ @ o.O O O O O O O O                                   # X X X X X X X X X X X X J                 ",
"X X X X X X X X X X X X X X X X X s @ @ @ o.O O O O O O O O                                   # X X X X X X X X X X X X J                 ",
"X X X X X X X X X X X X X X X X X s @ @ @ o.O O O O O O O O                                   # X X X X X X X X X X X X J                 ",
"X X X X X X X X X X X X X X X X X s @ @ @ o.O O O O O O O O                                   # X X X X X X X X X X X X J                 "
};
