/* XPM */
static char *result[] = {
/* columns rows colors chars-per-pixel */
"69 69 236 2 ",
"   c #182715",
".  c #19270E",
"X  c #24371A",
"o  c #212F1A",
"O  c #1A2C2C",
"+  c #162829",
"@  c #1D312D",
"#  c #192D32",
"$  c #1C3434",
"%  c #1E3838",
"&  c #222D2A",
"*  c #27332D",
"=  c #223534",
"-  c #243C3B",
";  c #2D3D3B",
":  c #263935",
">  c #333F37",
",  c #630E27",
"<  c #620E28",
"1  c #661227",
"2  c #6C1327",
"3  c #6D1827",
"4  c #65122A",
"5  c #6A1229",
"6  c #6D1828",
"7  c #721527",
"8  c #741B26",
"9  c #7D1A26",
"0  c #771A28",
"q  c #7C2226",
"w  c #2C4126",
"e  c #2B423C",
"r  c #29443E",
"t  c #364939",
"y  c #3C5438",
"u  c #354C2D",
"i  c #435937",
"p  c #2C4443",
"a  c #2C4843",
"s  c #334C44",
"d  c #3B4D44",
"f  c #344A47",
"g  c #365245",
"h  c #3A5345",
"j  c #36524A",
"k  c #3B544B",
"l  c #3D5A4C",
"z  c #3C5A45",
"x  c #3E5C53",
"c  c #3C5651",
"v  c #3E6255",
"b  c #3E624C",
"n  c #425C4D",
"m  c #455847",
"M  c #425D53",
"N  c #485D54",
"B  c #4C5649",
"V  c #45614C",
"C  c #4A654B",
"Z  c #546C4C",
"A  c #436254",
"S  c #4B6454",
"D  c #4D6A54",
"F  c #45645A",
"G  c #4B655A",
"H  c #4C6C5B",
"J  c #456959",
"K  c #536454",
"L  c #536C56",
"P  c #526C5C",
"I  c #5B6C5B",
"U  c #596856",
"Y  c #4E7059",
"T  c #53725C",
"R  c #5A735C",
"E  c #597757",
"W  c #53724B",
"Q  c #616C58",
"!  c #64745C",
"~  c #68785C",
"^  c #707C5C",
"/  c #4C6E63",
"(  c #4C6D68",
")  c #566E61",
"_  c #4D7264",
"`  c #4D7269",
"'  c #537363",
"]  c #5C7564",
"[  c #5C7B6B",
"{  c #597866",
"}  c #5B7E73",
"|  c #627C64",
" . c #647D6B",
".. c #6C7D6A",
"X. c #687864",
"o. c #737D66",
"O. c #627F70",
"+. c #273D44",
"@. c #841C26",
"#. c #8A1E25",
"$. c #801D29",
"%. c #822426",
"&. c #8C2125",
"*. c #8C2E26",
"=. c #862627",
"-. c #942325",
";. c #9A2525",
":. c #9D2B25",
">. c #962B27",
",. c #8C3228",
"<. c #933325",
"1. c #9A3826",
"2. c #A42A25",
"3. c #AC2D25",
"4. c #A02626",
"5. c #B22E25",
"6. c #A53325",
"7. c #A33B25",
"8. c #AA3826",
"9. c #B43324",
"0. c #B83925",
"q. c #994C2E",
"w. c #AA4425",
"e. c #A64226",
"r. c #B34525",
"t. c #BC4325",
"y. c #B44C25",
"u. c #BD4A25",
"i. c #BB4229",
"p. c #BE5424",
"a. c #BF5827",
"s. c #AD5E2F",
"d. c #AC6031",
"f. c #C34424",
"g. c #C44B24",
"h. c #CB4D24",
"j. c #C84724",
"k. c #CC5325",
"l. c #CB5C25",
"z. c #C45726",
"x. c #D45C25",
"c. c #D95E25",
"v. c #D25524",
"b. c #CE6628",
"n. c #DC6223",
"m. c #D66827",
"M. c #DB792D",
"N. c #E46E24",
"B. c #E16926",
"V. c #E47225",
"C. c #EB7424",
"Z. c #E77A29",
"A. c #6B825A",
"S. c #5E816E",
"D. c #5F8371",
"F. c #63826C",
"G. c #6C846C",
"H. c #6A8766",
"J. c #748265",
"K. c #73846B",
"L. c #7B856C",
"P. c #7C8A6C",
"I. c #75896A",
"U. c #77946C",
"Y. c #638573",
"T. c #6B8C7A",
"R. c #698974",
"E. c #738C73",
"W. c #7C8C73",
"Q. c #768876",
"!. c #7A947A",
"~. c #789578",
"^. c #6E9178",
"/. c #5E8158",
"(. c #DB8330",
"). c #D9842F",
"_. c #EA862C",
"`. c #F0872A",
"'. c #E78A32",
"]. c #EE9532",
"[. c #ED9A35",
"{. c #F29532",
"}. c #F29B34",
"|. c #F1902E",
" X c #F2AB3D",
".X c #F6B23E",
"XX c #828C6D",
"oX c #848E69",
"OX c #828E71",
"+X c #849475",
"@X c #8B9473",
"#X c #8C9A7C",
"$X c #87977B",
"%X c #949D7A",
"&X c #959A77",
"*X c #87926E",
"=X c #98A37B",
"-X c #8AA27D",
";X c #A2A77C",
":X c #F8B641",
">X c #789A83",
",X c #6F9281",
"<X c #7EA084",
"1X c #889C84",
"2X c #929D83",
"3X c #88A487",
"4X c #9CA482",
"5X c #97A887",
"6X c #92AB93",
"7X c #A4AC83",
"8X c #A6AC88",
"9X c #ABB48A",
"0X c #A9B488",
"qX c #B4BB8C",
"wX c #B6B88A",
"eX c #ADB693",
"rX c #B4BB94",
"tX c #B6BB97",
"yX c #BCC39B",
"uX c #B9C197",
"iX c #B8C089",
"pX c #BDC3A1",
"aX c #C5C99C",
"sX c #C5C799",
"dX c #C7CA97",
"fX c #C8CCA4",
"gX c #CED3A6",
"hX c #D5DAAC",
"jX c #DADCAD",
"kX c #D3D6A6",
"lX c #DADDB1",
"zX c #DCE1B3",
"xX c #DBE2B8",
"cX c #E1E2B2",
"vX c #E2DFAE",
"bX c None",
/* pixels */
"bXbXbXbXbXbXbXbXbXbXbXbXbXT ,Xl l [ #XG F #XE.M M R.[ ' >XM M O.1XP L 5X3Xl l R.{ { >Xl l [ 5XL S 3X>Xn l O.[ bXbXbXbXbXbXbXbXbXbXbXbXbXbX",
"bXbXbXbXbXbXbXbXbXbXbXbXbXP T  .XXX.[ OX2XR o.=X+XM F / J ..%X..) +X5XK R %XW.N G / J X.=XG.T @X5XI | @X+XA / bXbXbXbXbXbXbXbXbXbXbXbXbXbX",
"bXbXbXbXbXbXbXbXbXbXbXbXbX) C 8X& : e k f = + #XaXK M / S 8XU O = g m : O ^ sXU F ( K 0X7XO % f n e $ & rX~ G bXbXbXbXbXbXbXbXbXbXbXbXbXbX",
"bXbXbXbXbXbXbXbXbXbXbXbXbXY A 8X$ e S i S f O o.dXZ v / V wX! $ H m m D # I sX! J / C wX%XO f C y P e & yXJ.J bXbXbXbXbXbXbXbXbXbXbXbXbXbX",
"bXbXbXbXbXbXbXbXbXbXbXbXbXH R rX; V L t L G ; ..kXP.T _ ^.uXX.p H.y y H.a ! gX&X{ _ ^.sX4Xe C C * /.b ; fX=X' bXbXbXbXbXbXbXbXbXbXbXbXbXbX",
"bXbXbXbXbXbXbXbXbXbXbXbXbX_ 3XyXc L W . Z R j Q.kX+X` _ ~.dXQ.z U.X w U.l ..kX@X` _ ~.sX5Xg L i   A.D d fX-X' bXbXbXbXbXbXbXbXbXbXbXbXbXbX",
"bXbXbXbXbXbXbXbXbXbXbXbXbX_ V yXN C W w A.] f Q.kX~ J ` S uXK.g U.u m 6Xg X.hX~ H _ L sX5Xe D ! y $XJ e fXU.J bXbXbXbXbXbXbXbXbXbXbXbXbXbX",
"bXbXbXbXbXbXbXbXbXbXbXbXbX' 3XdXd g T n H.A = ..hX5XS.' 3XdXX.% ' b S Y.- R jX8X} ' 6XsX5X= s T S  .r * fX9XT.bXbXbXbXbXbXbXbXbXbXbXbXbXbX",
"bXbXbXbXbXbXbXbXbXbXbXbXbXT { aX; - k j k - + ..kXJ.H ` X.iXI O r g j p # U jX~ G ` I sX2X+ $ p j f #   aXP.F bXbXbXbXbXbXbXbXbXbXbXbXbXbX",
"bXbXbXbXbXbXbXbXbXbXbXbXbX_ V uXB t = : $ O * L.dXU F _ C wXXX: @ $ % O * ~ gXQ G ` K wX7X* & O = O = B aXX.x bXbXbXbXbXbXbXbXbXbXbXbXbXbX",
"bXbXbXbXbXbXbXbXbXbXbXbXbX_ V 9XvXtX| G [ ' 8XhXsXK G / M 8XlXtXX.G { ] 8XjXaXI J ` D 8XvXtX..] ..) 5XgXtX! x bXbXbXbXbXbXbXbXbXbXbXbXbXbX",
"bXbXbXbXbXbXbXbXbXbXbXbXbX_ H  .2XOX .5X4XI E.%XI.K N P / ] =XW.F.eX4X| W.J.~ P ' `  .P L.I.!.2XW.o.W.L.! H { bXbXbXbXbXbXbXbXbXbXbXbXbXbX",
"bXbXbXbXbXbXbXbXbXbXbXbXbXT >XM k T 3X{ M !.E.x k F.' ` T.M n { ~.T A F.R.M M [ { ` T.A x ' ~.P A E.T.M l { S.bXbXbXbXbXbXbXbXbXbXbXbXbXbX",
"bXbXbXbXbXbXY bXbXT T L P C.p.9 3.5.5.5.9._. X8.1 , < < , , < < <.{.C.p.9 3.5.5.9.9.'. X8.1 , , < < , , 4 <.[.J T ' T T T T ' bX/ P H H P ",
"^.k k h ~.J n ~.s g g Y.[ l.7 , 9 3.#.9 9 w.m.>.;.@.7 6 2 7 7 #.2.n.b.7 1 9 2.#.9 9 w.m.-.;.%.7 2 7 2 7 &.2.n.G >Xx M n ~.H.n 3Xn n l R. .",
"H R &X&XqX7X;X9X=X&XK.S J p.< , @.&., < , 7 r.%.-.5.3.3.3.3.3.;.#.1.p., , @.&.< < < 7 r.q ;.5.3.5.3.3.3.;.&.7.A x R 7X7XqXqX0XuX0X;XoXG J ",
"N oXo.o.+X$XL.L.^ wXfX! S z.< 1 2.3.9 1 < 5 3.'.,.;.5.3.9 7 @.:.7 5 u., 1 2.3.9 4 < 4 6.(.,.;.9.3.$.7 @.2.7 4 M m rXxXL I | ....I K #X..G ",
"U U + % s j p $ + K uX^ J v.-.-.3.-.2.4.@.&.u.'.k.h.6.9 , , 1 @.-.,.x.-.-.3.&.2.;.#.&.z.'.k.k.3.7 < < < @.&.,.n L 4XeX+ # s z k r # U K.' ",
"3Xg p ] H.~.1XM # d R.!.O.v.5.5.@.< 7 9 9 j.m.9.0.f.k.z.q , , 8 r.M.v.5.5.@.1 7 9 $.j.c.0.0.f.k.z.q , < 0 r.Z.A 6X] U # M I.U.~.] z k U.Y.",
"P.I g C y t ..N +.+.| K.] f.3.@.< < < < <.h.=.&.9.2.8 m.m.q.<.x.|. Xf.3.@., , , < <.h.%.=.5.2.8 m.m.1.1.x.'.:Xx G.5Xg p l y X w m j K I.P ",
"K W.g z X X i V p - ~.I.G C.t.8 3 2 3 1.V.;.< 2 3.#., 8 M.:XB.0.0.n.C.t.8 3 3 2 <.N.;.< 5 2.&.< q (.:Xm.0.i.n.v S tXM ; l T * u C j { P.G ",
"K.S g ~ U.U.E.H @ = ] #X{ p.Z.{.{.`.`.`.:X#.5 9 3.5.@.5 <.n.3.7 1 , p.C.}.}.`.`.`.:X#.5 9 3.5.#.1 <.n.3.7 , 4 M W.) N + l ~.~.H.H f f P.Y.",
"-Xh # r z l r % + d !.!.{ 8 z.{..X_.m.m._.9.6.4.2.2.4.6.l.g.9 < < < 3 z.[..X_.m.m._.9.6.2.2.2.2.8.x.g.9 < < 4 N >XE.2X+ # : g s = + n I. .",
"U ~ ; ; d g e e & Q sX~ F 1 8 x.|.7., 1 u.C.N.1.4 4 q _.M.3.2 , < < < q v.|.1.4 4 g.C.N.<.4 1 q M.M.3.5 < < 4 c B 8XfX> m m N B d B @XXXH ",
"S uXgXfXgXfXgXfXfXgXgX~ F 5 6.h.f.3.2.2.5.:.q w.).).e.q 8.3.5 < < < 5 6.h.f.3.2.2.9.:.q w.).).e.q 8.3.2 < < 4 M l 8XvXhXcXzXzXlXjXgXsXL.J ",
"A ~ =X=XqX9X9XtX%X$XG.K H 6.c.j.9.5.9.5.5.#.1 =.'.b.3 4 9 3.@., < < 6.n.f.9.9.5.5.5.@.4 =.'.b.3 < $.3.@.< < 4 x H J J.~ &X%X^ 4XJ.Q U H { ",
"T.v A A F.' J >XA v v F.{ |.(.8 5 , , @.3.3.@.9 y.3 < 5 3.5.5.3.:.8.|.(.7 , 2 2 9 5.3.@.q y.7 1 5 3.5.5.3.4.6.M R.v b v { { v S.J x x Y { ",
"Y / / _ _ _ ` ` ` ` ` _ _ |.[.e., < < < 9 ;.9.k.l.3 6 2.2.9 @.:.z.`.{.[.1., , , < 9 ;.9.l.z.3 2 3.2.$.$.4.l.`.x ` ' _ ` _ ` ` _ _ _ / H H ",
"T.c k x  .H v ,Xb l k [ S.u.l.V.1.5 %.*.<.8.n.].[.m.t.;.2 , 1 8 l.t.f.b.V.1.1 %.*.*.0.n.].].m.r.;.7 < < 8 b.u.x >XA n l Y.D.v >XH S n { [ ",
"Y T XX@X8X4X4XtX@X*Xo.S H ;.2 y.V.w.x.B.h.g.r.x.x.C.V.=.1 , 1 1.w.9 ;.2 p.N.w.n.B.h.g.r.b.x.C.V.=.< < 4 1.r.9 x v ! 7X7XiXqX0XiXwX7X@XL G ",
"F 7XfXfXhXhXhXhXgXgXgX~ M 5.0 5 l.0.0.0.2.2 7 3.%.z.}.V.,.=.1.b.q 1 3.9 1 v.0.0.9.4.2 7 3.$.p.}.N.,.=.1.b.q 4 v M rXvXeXtXyXyXpXtX9XtX+XH ",
"K I ; f M G f f : ! sX~ F 5.9 1 n.k.3.@.1 1 #.8 y.v.f.f.k.C.].b.e.&.9.9 1 b.k.9.@.5 5 @.9 y.v.f.f.v.V.[.b.e.&.M T =XrXO = e k k ; # ! L.' ",
"5Xm $ s V S n +.# y W.1XT.j.7.w.'.[.k.-.9 -.2.#.:.:.7 7 >.9.t.k.n.k.f.7.w.|.}.k.-.$.-.2.#.:.:.7 5 ;.9.i.k.m.v.N 1X{ G.# f T H.E D p k E.!.",
"~.S f R E W !.T +.p  .o.T n.C.C.d.d.b.B.c.c.c.1.4 4 4 4 4 0 @.%.7.C.x.C.C.d.q.m.c.c.c.c.1.4 4 4 4 4 0 q %.7.C.M Q.1Xf +.l C i y C l K W.R ",
"V K.g i X . m n s p W.L.v Z.a.q 8.5.5.5.0.'. Xw.4 4 4 4 4 4 1 4 <.[.Z.z.q 5.0.8.5.0.'.:Xr.4 4 4 4 4 4 4 4 <.{.M G eXM p k J X o h h ..-XA ",
"G.K g L Z Z E H - %  .$X[ b.8 < $.2.#.$.9 8.M.-.:.$.2 6 6 5 2 &.2.n.b.8 4 $.3.=.9 9 8.m.-.;.%.6 6 5 6 6 #.6.n.c G.! J = N 3XU.A.R k m P.E.",
"5Xl % g D W b p # t I.>XE.a.4 , $.&.4 < < 7 r.q ;.3.3.3.3.3.3.;.#.7.u.4 < $.#.4 < < 7 r.%.-.3.3.3.3.3.3.;.#.7.M >X~ @X& % k N n f $ n I.^.",
"T U = e h n p ; O Q uXJ.J z.< < 4.3.9 5 < < 8.'.,.;.5.3.0 7 @.:.5 < z.4 4 4.3.0 1 < 5 8.'.,.;.5.5.0 0 9 4.6 < M S 7XfX> s m G G g e o.XXA ",
"n 2XeXrXyXyXyXtXtXaXfX~ M x.-.-.3.-.4.4.#.&.z.'.k.h.3.9 < < 4 @.-.*.v.-.-.5.-.4.4.#.&.p.'.z.h.3.0 4 < < @.#.*.c l 4XkXfXhXgXhXgXgXaXrXI.x ",
"D X.&X=X9X9X7XqX7X=XL.S J x.5.3.@.4 7 0 9 g.x.0.9.f.z.z.q < < 8 8.Z.v.5.5.@.< 7 9 9 g.x.0.0.j.k.k.9 < < 9 r.Z.x P D XX*X=X7X#X9X=XoX~ D _ ",
">XA x x Y.S.A <Xv b A Y.D.u.3.&.< < 4 < *.g.=.&.5.2.8 m.m.q.<.n.{..Xf.5.@.1 , < < <.h.%.#.5.2.8 m.m.q.<.l.|..Xk R.A M x ) { x T.F x x _ S.",
"H / / _ _ _ ` _ T _ _ _ / C.t.8 5 5 3 <.Z.;.1 5 3.&.1 0 M..XV.0.i.m.C.0.8 3 3 3 <.V.>.4 5 2.&., q M..XN.0.u.n.x _ ` _ ` ` ` / ( / _ / / / ",
",Xb j g Y.T A >Xg k k S.D.z.Z.{.{.`.`.`..X&.1 9 3.5.@.4 <.n.3.2 < 1 p.C.{.{.`.`.`. X#.5 9 3.5.&.1 <.n.3.7 4 < l >XJ A n | R.v <XG V l [ ^.",
"Y R +X&X0X7X=XrX=X@XG.S H 6 z.[.:X_.n.m._.9.6.4.2.2.2.7.l.g.9 < < 4 6 z.[.:XZ.m.m._.9.6.:.2.:.:.6.l.j.9 < < < l b R 4X7XqXqX9XqX8X;XOXS J ",
"x 8XhXhXzXzXzXzXlXhXaXQ M 4 8 x.`.7., 1 u.C.N.1.4 1 q _.Z.3.2 < < < < 8 x.|.7.1 1 u.C.N.1.1 1 q _.M.3.6 < < < M k 8XcXsXfXfXfXfXaXtXsXOXM ",
"S L.d t S K h d t B sX..H 5 6.j.f.5.2.3.5.:.q e.).).w.q 8.3.5 < < < 1 6.h.f.3.2.2.9.:.q e.).).w.0 7.3.2 < < < x ] %XeX& : p m c ; : m I.T ",
"2XS # - f k e % + = E.!.^.6.m.j.9.5.5.5.5.&., =.'.b.7 < 9 3.@.< < , 2.n.j.9.9.5.9.5.#., =._.b.3 < 9 5.@., , < M 3XF.X.O % a l z r $ e E.~.",
"#XK s | U.-X6X{ $ @ ] K...'.'.9 4 2 1 9 5.5.@.0 y.3 4 5 2.5.9.3.>.6.|.).7 2 1 5 9 3.5.@.q y.3 1 2 3.5.5.3.>.6.M K.1Xs $ A F.U.U.F.G k W.{ ",
"M @Xg m w w E V s % +XL.F {.[.1., , , , 9 -.5.v.l.7 2 2.2.@.9 2.z.`.|.].e., , , < 9 ;.9.k.l.6 2 3.4.$.$.2.z.`.x x eXM p h V X o y k  .2XN ",
"H.X.g y w X y V a @  .-X .g.b.V.1.1 %.*.*.8.c.|.].m.t.:.2 < < 7 l.g.u.b.N.1.1 q *.*.8.n.{.[.m.0.;.7 < < 7 l.g.x G.o.G e l F.i u C b h K.Q.",
"5XS s E U.U.H.P % * Q.$XE.>.2 y.N.r.n.n.k.g.y.b.x.N.M.=.1 1 5 1.r.9 -.3 y.m.y.m.n.k.g.t.b.x.N.V.=.1 < , 1.y.9 c >X| $X# f ^.$XU.R j a E.^.",
"D  .+ r g l r $ + > yXX.J 5.9 5 l.0.0.0.2.2 0 2.%.p.}.N.<.q 1.b.q < 9.0 2 x.0.0.9.2.2 7 2.%.z.}.V.,.%.1.b.9 , M n =XrX+ # r j g % O m L.J ",
"l OXU X...Q. .X.Q 8XgXX.F 9.9 4 l.h.5.@.1 1 @.0 u.v.f.f.k.C.].b.e.&.5.9 1 x.k.5.@.5 , #.0 u.v.g.f.v.Z.].b.e.#.M g 4XhX@XXX+X$X$XP.L.XXL.A ",
"F R =X;XwX9X;XrX=X&XI.S H f.6.w.|. Xk.-.$.&.3.#.:.:.7 7 -.9.t.v.n.k.f.7.w.|.[.k.;.9 -.2.%.2.:.7 7 -.0.i.k.n.k.n ' V o.L.%X8X+X0X+XJ.~ G { ",
">XJ A A Y.F.A 3XM M x T.R.x.C.C.s.q.m.c.c.c.c.8.1 , , , , 3 9 %.8.C.x.C.Z.s.q.b.c.c.c.c.1.< < < 4 < 7 9 9 7.C.l T.A x x ' D.x Y.J c c P Y.",
"C P L H D Y bXbXbXP ) ' L g e d e p s f ; ; e e e ; e e e t t a s d j k k k k & f k d k k k k k s j k j k g h S Y L W Y bXT bXbXbXbXbXbXbX",
"bXbXbXbXbXbXbXbXbXbXbXbXbXT T.x x H ~.P A E.R.k k ' R.` >Xn d ) 1X! N !.!.K k m [ _ ,Xl j H 3XI x E.1Xn k H ,XbXbXbXbXbXbXbXbXbXbXbXbXbXbX",
"bXbXbXbXbXbXbXbXbXbXbXbXbX' b L 4X+X' +XuXE.G.&X$XJ / ` b S 4X+XR W.eX~.F.&X2XG / ` M D 4X@X] XXuX$X .%X$XL H bXbXbXbXbXbXbXbXbXbXbXbXbXbX",
"bXbXbXbXbXbXbXbXbXbXbXbXbX/ g =XcXfXQ.{ / B 7XjXkXI.F ` s %XcXsXQ.` P n =XkXkXJ.J ` n ;XzXtXL.U G k XXaXhX+XF bXbXbXbXbXbXbXbXbXbXbXbXbXbX",
"bXbXbXbXbXbXbXbXbXbXbXbXbX) m 0Xo.* = = # + O U kXXXA _ s ;X%X* & - = O * B hXXXF _ n 7XtX& + O = O + & rX@Xx bXbXbXbXbXbXbXbXbXbXbXbXbXbX",
"bXbXbXbXbXbXbXbXbXbXbXbXbX/ C tX* = p j f - + B jX=X_ _ D qXW.+ - g j z $ d lX=X` ` R wXtX# % j l k r + eX=X{ bXbXbXbXbXbXbXbXbXbXbXbXbXbX",
"bXbXbXbXbXbXbXbXbXbXbXbXbX' !.yXf p R.N G F % K jX9XY.` 1XwXOX$ O.] C ] e N xX8XY.` ^.rXyX: s !.S H l $ eX9X^.bXbXbXbXbXbXbXbXbXbXbXbXbXbX",
"bXbXbXbXbXbXbXbXbXbXbXbXbXP n eXm A 3Xu C ~ a I zX*XJ ` l 9X#Xg !.C w A.z D xX@XJ ` z 7XyXf S -Xw C R a rX%Xv bXbXbXbXbXbXbXbXbXbXbXbXbXbX",
"bXbXbXbXbXbXbXbXbXbXbXbXbX/ F.qXP C U.. y H.g ! zX5XS._ F.qX2Xh I.u o H.n Y xX0XD.` E.rXtXc D U.  y /.j rX9XT.bXbXbXbXbXbXbXbXbXbXbXbXbXbX",
"bXbXbXbXbXbXbXbXbXbXbXbXbX_ F.eXI l H.u C E e K lX5X/ / P wX+X; ] i y F.f B lX#XH _ D 0XtXp j F.u C D - eX=XH bXbXbXbXbXbXbXbXbXbXbXbXbXbX",
"bXbXbXbXbXbXbXbXbXbXbXbXbXbXd =XK - L g A n @ B gXP.F / d =XOX# N n z / $ m gXXXv _ g &XeX= : T y C k $ 7X*Xx bXbXbXbXbXbXbXbXbXbXbXbXbXbX",
"bXbXbXbXbXbXbXbXbXbXbXbXbXbXs &XU : - M l = O ~ dXI.F ( t &XXX& = j M r $ m fXL.F / g @XfX> = e n s - & =XK.x bXbXbXbXbXbXbXbXbXbXbXbXbXbX",
"bXbXbXbXbXbXbXbXbXbXbXbXbXY l I %XL.H 2X4XR ] #X&XL H ( n I -XL.' W.$XH. .L.$XP _ / H L @XK. .H.$XG.X.K.L.H ' bXbXbXbXbXbXbXbXbXbXbXbXbXbX",
"bXbXbXbXbXbXbXbXbXbXbXbXbXH <XG n L 6XJ.m +X3XJ M { Y.H ,XF M R 3XS.z J.~.A x Y F./ ^.J M P 3XF.M K.>XJ x T ^.bXbXbXbXbXbXbXbXbXbXbXbXbXbX"
};
