/* XPM */
static char *result[] = {
/* columns rows colors chars-per-pixel */
"69 69 44 1 ",
"  c #C3BD89",
". c #C6C18C",
"X c #C9C58F",
"o c #CCC88F",
"O c #CBC691",
"+ c #CECB93",
"@ c #D3CD95",
"# c #D4D295",
"$ c #D5D599",
"% c #D9D49D",
"& c #D6D99C",
"* c #D9DC9E",
"= c #DAD7A3",
"- c #DBDFA2",
"; c #E1DFA5",
": c #E2DFAB",
"> c #DDE4A5",
", c #DDE6A8",
"< c #DEEAAA",
"1 c #E1E5A6",
"2 c #E1E9A7",
"3 c #E3E5AB",
"4 c #E2ECAC",
"5 c #E8ECAF",
"6 c #E5F1AF",
"7 c #E6E5B0",
"8 c #E9E7B6",
"9 c #E7E9B3",
"0 c #EAECB4",
"q c #EDEEBA",
"w c #E5F2B1",
"e c #E8F6B5",
"r c #EBF8B6",
"t c #EEF3B9",
"y c #EEF8BA",
"u c #F2F4BC",
"i c #F3F9BD",
"p c #F3F4C2",
"a c #F5F9C2",
"s c #F9F9C5",
"d c #F5F6C9",
"f c #F6F9C9",
"g c #FAFACD",
"h c #FAFAD0",
/* pixels */
"****2rrrrrrrro       .****,,,<X        ****errrrisssssss66<w+        ",
"**-*2rrrrrrrro       .****<,<,+       .****rrrriiissssss64w<+        ",
"**-*2rrrrrrrr#       .****<,<<+       .****rrrrisssssssi<44<+        ",
"****2rrrrrrrro       .****<<<<+       .****6rrrrsssssssi<446$        ",
"*&**26rrr>***o   XoXO+,,2,$$$$++XXX   .$%%&12110iiiiiiii&&&&++++o@o+o",
"####>rrr6.       +$$$*rerr    +$&$+   .+@@@@@@@-yyrrrrrr    $&*&*****",
"####>rrre.       +$$$*eeee.   +$$$#   .+@@@@@@@:rrrrrrrr    $*&-*****",
"####>6rre.       O$$$&eeee    +$$$+    +@@@@@@@-rrrrrrrr    +*&******",
"$&&&-6662oX....X.+&$$-yeey    +##$+.  O@@@@@@@@-yyyirrrrXXOX&&&&&*$**",
"rrrr*   .*******&****-ssss    O@++#***-*-**%&#%3sssirrrreeee$ . +&$$*",
"rrer>   .&***********-ssss    OO++#********$#&%3ssiirrrreyep&...+#&&*",
"rree>   .&***********>ssss    O@O+#********$&##3ssiirrrreeee$...+$&##",
"rrrr-. . ***********&>ssss    XOO+@-&******%#$%3sssireeerrer$ ..+&%%&",
"rrrre<<4<oXXX$***>>>,3ssss$$$$&&&=&@##@-***quuuussst++++rryyw<<<wtuut",
"rrrrrrre6X   &***><,,4ssss********&@@@@****psssssss5    rryeeepeassss",
"rrrrrrre6.   &**>>,<<4ssss********&@@@@-***psssssss0    rreeeepeyssss",
"rrerreere.   $***>,2,4ssss****&***&+@@#****asssssss8    rryerrrreffss",
"&&&&=$$&$:::39000ttttussss6424>**-,88880000====*;%=%@@+#2,22wrrreeeee",
".....   .assssssssssssssaseere>***7hhhhssssO       X********9rrre<<<<",
"....    .pssssssssssssssffeeee>*-&9hhhhssssX       X********6rrrw<<<<",
".....   Xpsssssssssssssssseeee>***7hghgssssO       o********4rrre<<6<",
"  ...++++0utu9737777377777eerr55330fffp9977.   .OOo+$&&%****2444<666w",
"    +*-&*>2,>X            rrrraassieee5X      .o***%@@@@****&$$$,eeee",
"    +**&>>>>>X            rrrrasssaeee5        o***%@@@@****&$$$,eeee",
"    +****>>>,o            rrrrisssieeew.       o***&@@@#****%$$#>eree",
"    +&**>>><>o            rrrrasssaeeew. .     @***$@@@#*&*=%$#%>rere",
"><,,-&$$*yryiO   @**&&******-*6rerrrrreerrr>***$@@@#####+O@O2iiiasssa",
">>,,*$$$&yiiu@   @**>******>**wrrrrrrrrerrr****#@@@#####++O@3iiiasssf",
"<>><*#&#&yiiy@   +****&*******6rrrrrrrrrrrr;***$@@@@####@@O@9iiiisssf",
">2><*&&#&uiiiO   #*=*&-&***-**wrrrrrrryerrr****#@@@@##$# O@@7iiiasssf",
">>*>>>**>22429888qppppppypytyt>*>*&+++$,1115t5r52552>*-;qq00yiiiyyyyr",
"->>*>><211211isssghhhhhhhhssss-###+   .&***iiiiirrr6>>1;ssssiiiiyeeer",
",*>*>2>,>,,>1usssshhhhhhhhssss*###+   .****uiiiirrr6,,,>ssssiiiiieeee",
"*>*>-<>,2,,>1isssghghhhhhhsssa>$#$o   .&***uiiiirrr6,<,,ssssiiiireeee",
"6646-#++#++#@=*%=39900ssss==-=+ooo.    +OOO;1;;16661++$+33335uiirrrre",
"eerr*.           @*-*-iiiu    . ...        +@@@%662>    #@@@2rrrrrrry",
"eeer-            +--*-iiii    ....         O@@+&26<,    ####2rrrrrrrt",
"eerr>        .   @*&*-iiii    ....         @@@@&4<<>    ####5rrrrrrrr",
"rrrr>............#&**-iaaaOXXXXXoX.        @@@@-<44>XOOO####16566w666",
"rrrr4&&&&$#$#$*&=#@@@&hgghwwww,,,,$        ,<2<,***,ddddrrrr#. o.....",
"rrrr4****$$$$***-$@@@%hhhheeee<<,>&        ,w<6<*&-7hhhhrrrr#        ",
"rrrr4****$$$#***&$@@@%hhhheeee<,>>$        ,<4<<*&=,hhhhrrrr#        ",
"rrrr4-***$#$$****$@@@%hhhhreee<<,,&        ,444>>&*<hhhhrrrt@        ",
"ffaaiurrr$###****8ddddrtperyereeeweyuu0*&&#-**>7dddfyyyyoooX.   O&$*&",
"ssssaiiii###$&**-qhhhfereeyrrreeeeisssp--&*****9fhhfryer        O****",
"ssssaiiii$###&**=ehhhgrreeyrereeeersssi********9hhhfrrrr        O****",
"ssssaiiii####&**&ehhhfrreeeerreeerrssaa********9hhhfrrrr        O-**&",
"ssssiriii00000qqqtappq$$$$$$@$>>>,46900tqq00545eaapw@$@#@O@@OXXX@****",
"ssssirrrrssssssssirrrw        #***>,2,2asssrrrrrerr<    $$$$@@+@#****",
"ssssirrrrssssssssyrrr9        $=***>>,3ssssyrrrrere<    $$$$+O+O%****",
"ssssareyrssssssssartrw        #***>>>,3ssssyrrrrrre,    $$$$++++#****",
"iaaaq2,,<80880800trureOXXX    #*&&&&&*-90q5rrrrrrry,    $$$$@@@@%1333",
"rrrr>         O  7ssfa**-*    O@@@X        6rrrryrr<    #**#&$$&3ssss",
"rrrr-     OOO O  7ssfy****    O@@@+        6rrrrrrr2    *#**%%$$3ssss",
"rrrr-    O   O  .3ssai****.   o#@@o        6rrrrrrr,    #*$$$#$$3ssss",
"rrrr>     O    O.3sssi****    ++@@+        wrrrrrrr<    ##$*$#**3ssss",
"         %@@@%%@&,reeerrrrhhggrete6,,2>&#$*****6rrew****####****7ssss",
"         @@@@%$##2eererrrrhhhgieee6,,>>&*##;***2rrrw****####****5ssss",
"         @@@@#$#$,eeeerrrrhhhhieee6>>>>$#******2reew>***#####***5ssis",
"         @@@@#%&&<errerrrrhhhhrree6>>11&*##****2rrew***>####****5ssis",
"2646>@+@@.   &-&*>>2,1*>>->>11riiiirrrurutt****,rrre<4<<suuuiiiitrrri",
"rree1#@#@    &***->>1>********tiiiiuiiiiiii>***<rrre4<6<ssssiisiirrrr",
"eeee>#@##    %*&*>>2,>********tiiiiiuiiiiii>***,rrre4w54ssssssssirrrr",
"eeee1@##@    #*-*>>,,>********5iiiiiiiiiiii>***<rree44<2ssssssssirrrr",
"<<,,23:3:#+@+&&&*->->13957,22<>>,-39555955w9999eeeew&&&&,-::pppar4444",
"$$$$2sssa22,,&$$#&***-sssseree+   O-*******dhhhpeee<        ,eyr4****",
"$$$$3ssss1,12&$$#****;sssseeee+   O********dhhhaeee,        ,eer4****",
"$$$$7sssa12>>*$$$$***-sssseree@   O***&****dhhhaeee<        -eer4****",
"%#%#3ssss1>2>*$#$&-**-sssfeeee$   O***&-***dghhaeee,        ,pee4****"
};
