/* XPM */
static char *result[] = {
/* columns rows colors chars-per-pixel */
"69 69 240 2 ",
"   c #030404",
".  c #080606",
"X  c #060807",
"o  c #050609",
"O  c #06090A",
"+  c #0A0C0C",
"@  c #080708",
"#  c #0C100F",
"$  c #070C11",
"%  c #0B0E12",
"&  c #0D1213",
"*  c #0D141A",
"=  c #0F1919",
"-  c #111414",
";  c #12161B",
":  c #141B1B",
">  c #151A19",
",  c #172618",
"<  c #19270E",
"1  c #23341A",
"2  c #243A1B",
"3  c #212F1A",
"4  c #131B24",
"5  c #171C25",
"6  c #0E1721",
"7  c #152324",
"8  c #1B2322",
"9  c #152A2C",
"0  c #1B2C2C",
"q  c #182629",
"w  c #1D312D",
"e  c #172E32",
"r  c #1B2D32",
"t  c #192634",
"y  c #1C3434",
"u  c #1E3838",
"i  c #222D2B",
"p  c #262B27",
"a  c #23322D",
"s  c #2B362E",
"d  c #232A35",
"f  c #243533",
"g  c #2A3633",
"h  c #253A35",
"j  c #2A3C35",
"k  c #243C3B",
"l  c #2C3D3A",
"z  c #23333B",
"x  c #333D38",
"c  c #2C4226",
"v  c #2B412B",
"b  c #344A2C",
"n  c #2B423C",
"m  c #29443D",
"M  c #354839",
"N  c #3C5438",
"B  c #3A522F",
"V  c #435937",
"C  c #283B42",
"Z  c #212F41",
"A  c #2D4543",
"S  c #2D4A43",
"D  c #284343",
"F  c #324543",
"G  c #334C44",
"H  c #3B4D44",
"J  c #344C48",
"K  c #394B4A",
"L  c #365245",
"P  c #3A5345",
"I  c #3C5A45",
"U  c #36524A",
"Y  c #3B544B",
"T  c #3D5A4C",
"R  c #365847",
"E  c #3E5C53",
"W  c #3D5652",
"Q  c #3E6255",
"!  c #3E624C",
"~  c #434F45",
"^  c #425343",
"/  c #435C44",
"(  c #42554B",
")  c #425C4D",
"_  c #4A5B4C",
"`  c #4B5745",
"'  c #555D4C",
"]  c #425D53",
"[  c #4B5D53",
"{  c #445B58",
"}  c #45614C",
"|  c #4A634C",
" . c #4B6A4E",
".. c #4B6345",
"X. c #546C4C",
"o. c #436254",
"O. c #4B6454",
"+. c #4D6A54",
"@. c #45645A",
"#. c #4B655A",
"$. c #46695A",
"%. c #4C6C5B",
"&. c #456955",
"*. c #536454",
"=. c #536C56",
"-. c #5B6B54",
";. c #526C5C",
":. c #5B6C5B",
">. c #576657",
",. c #4D705C",
"<. c #4F7152",
"1. c #53725C",
"2. c #5A735C",
"3. c #597757",
"4. c #53724B",
"5. c #616C58",
"6. c #64745C",
"7. c #647A5D",
"8. c #6B775C",
"9. c #707C5C",
"0. c #4C6E63",
"q. c #4C6D68",
"w. c #526F61",
"e. c #5B6E61",
"r. c #4D7264",
"t. c #4D7269",
"y. c #537363",
"u. c #5C7564",
"i. c #5D7A64",
"p. c #547568",
"a. c #5C7B6B",
"s. c #597867",
"d. c #5B7E73",
"f. c #657563",
"g. c #627C64",
"h. c #6C7D64",
"j. c #647D6B",
"k. c #6C7D6A",
"l. c #687566",
"z. c #737D66",
"x. c #627F70",
"c. c #6B825A",
"v. c #5E816E",
"b. c #5F8371",
"n. c #63826C",
"m. c #6C846C",
"M. c #6A8766",
"N. c #748265",
"B. c #73846B",
"V. c #7B856C",
"C. c #7C8A6C",
"Z. c #75896A",
"A. c #76936C",
"S. c #79956C",
"D. c #638573",
"F. c #6B8973",
"G. c #6B8C7A",
"H. c #688876",
"J. c #738C73",
"K. c #7C8C73",
"L. c #768876",
"P. c #6E9178",
"I. c #7B9475",
"U. c #75937B",
"Y. c #7A947A",
"T. c #7E9A7D",
"R. c #769575",
"E. c #5E8158",
"W. c #828C6D",
"Q. c #848E69",
"!. c #828E71",
"~. c #849475",
"^. c #8B9473",
"/. c #84947A",
"(. c #8C9A7C",
"). c #88997B",
"_. c #929A75",
"`. c #949D7A",
"'. c #989B79",
"]. c #87926E",
"[. c #94A27C",
"{. c #9BA47C",
"}. c #9AA378",
"|. c #8AA27D",
" X c #A2A77C",
".X c #7B9B82",
"XX c #769984",
"oX c #6F9281",
"OX c #7EA084",
"+X c #839D84",
"@X c #8C9B83",
"#X c #869F8E",
"$X c #929D83",
"%X c #88A487",
"&X c #94A283",
"*X c #9CA482",
"=X c #9CAB85",
"-X c #93AC8B",
";X c #9AA98A",
":X c #92AB93",
">X c #A4AC83",
",X c #A6AC88",
"<X c #ACB386",
"1X c #ABB48A",
"2X c #A7B589",
"3X c #B4BB8C",
"4X c #B6B88A",
"5X c #AEB591",
"6X c #ABB896",
"7X c #B2B791",
"8X c #B4BB94",
"9X c #BABD96",
"0X c #B5BD9A",
"qX c #B9BC9A",
"wX c #BCC39B",
"eX c #B9C197",
"rX c #B8C089",
"tX c #BDC3A1",
"yX c #C3C596",
"uX c #C5C99C",
"iX c #C9CC9C",
"pX c #C5C69A",
"aX c #C7CA97",
"sX c #C4CBA2",
"dX c #CACEA4",
"fX c #C8CAA6",
"gX c #CED3A4",
"hX c #CED3AB",
"jX c #D3D4A4",
"kX c #D4D9A5",
"lX c #D5DAAC",
"zX c #DADCAD",
"xX c #D3D6AB",
"cX c #DCDEB2",
"vX c #D4DBB1",
"bX c #DCE1B3",
"nX c #DBE2B8",
"mX c #E1E2B2",
"MX c #E2DFAE",
"NX c None",
/* pixels */
"NXNXNXNXNXNXNXNXNXNXNXNXNX1.oXT E u.@X#.#.@XF.] ] H.x.w.XX{ { j.).;.+.=X+X] T F.i.p.OXE T i.&X;.] &XXX) T D.s.NXNXNXNXNXNXNXNXNXNXNXNXNXNX",
"NXNXNXNXNXNXNXNXNXNXNXNXNX;.1.j.V.M.i.K.@X2.k.*X~.) #.0.$.h.[.k.w./.=X*.2.`.K.] $.0.&.g.*XB.3.).=X:.f.~.I.[ #.NXNXNXNXNXNXNXNXNXNXNXNXNXNX",
"NXNXNXNXNXNXNXNXNXNXNXNXNX;. .,Xi j A P K f 8 `.pXX.E 0.O.,X5.w h K P h 0 8.yX-.{ q.*.<X*X0 u G Y n y p 8X7.%.NXNXNXNXNXNXNXNXNXNXNXNXNXNX",
"NXNXNXNXNXNXNXNXNXNXNXNXNX%.o.,X0 m *.^ O.G 0 h.aX-.Q 0.} 4X6.y %./ / ;.y 5.pX6.@.0. .9X`.0 G | I 1.m w wXN.$.NXNXNXNXNXNXNXNXNXNXNXNXNXNX",
"NXNXNXNXNXNXNXNXNXNXNXNXNX%.2.8Xl ] 4.b =.+.k z.jXZ.r.r.F.yXl.D M.N N M.A 6.gX(.p.r.R.yX&Xn +...s E.) l sX[.r.NXNXNXNXNXNXNXNXNXNXNXNXNXNX",
"NXNXNXNXNXNXNXNXNXNXNXNXNXr.%XwX( =.4., X.2.U L.kX/.p.r.R.yXL.I S.2 2 I.T k.kX^.r.t.R.yX;XH =.V < c.+.P gX[.y.NXNXNXNXNXNXNXNXNXNXNXNXNXNX",
"NXNXNXNXNXNXNXNXNXNXNXNXNX,.} wX{  .4.c M.7.S L.kX7.$.t.$.wXz.L S.b ) :XL h.lX9.$.t.=.pX;Xn +.3.N ).O.n sXC.&.NXNXNXNXNXNXNXNXNXNXNXNXNXNX",
"NXNXNXNXNXNXNXNXNXNXNXNXNXy.%XiXH L 1./ n.] z B.kX=Xv.r.%XaXl.u p.! +.x.u 6.zX;Xb.p.-XpX*Xy G 1.o.n.m a fX2XG.NXNXNXNXNXNXNXNXNXNXNXNXNXNX",
"NXNXNXNXNXNXNXNXNXNXNXNXNX,.i.uXl u U Y U k 9 k.jXN.%.t.h.rX:.e n L U C r >.lX8.#.t.2.yX$X8 h A U G y : uXZ.@.NXNXNXNXNXNXNXNXNXNXNXNXNXNX",
"NXNXNXNXNXNXNXNXNXNXNXNXNXr.} eX' x h k y 0 p V.iX-.@.0._ 4XV.s w y u w s 8.jX5.@.t.*.4X$Xs a 0 z 0 g ~ pXh.Q NXNXNXNXNXNXNXNXNXNXNXNXNXNX",
"NXNXNXNXNXNXNXNXNXNXNXNXNXr.o.1XcX9Xu.%.a.y.,XzXwXX.#.q.o.<XcX9X6.#.s.u.,XzXdX:.@.t.+.1XmXwXB.e.m.w.;XjX9X6.Q NXNXNXNXNXNXNXNXNXNXNXNXNXNX",
"NXNXNXNXNXNXNXNXNXNXNXNXNXr.%.l.&XW.j.=X*X:.F.`.N.*.[ w.0.y.{.L.D.5X=Xg.L.N.6.;.y.q.j.>.N.B.Y.$XC.z.Y.N.5.w.y.NXNXNXNXNXNXNXNXNXNXNXNXNXNX",
"NXNXNXNXNXNXNXNXNXNXNXNXNXy.XXT L 1.%Xa.) Y.J.T Y n.p.y.G.o.) i.I.1.[ M.F.] E a.s.t.G.Q E 1.U.1.o.J.G.] T s.v.NXNXNXNXNXNXNXNXNXNXNXNXNXNX",
"NXNXNXNXNXNX,.NXNX1.2.;.;.H F n n n l j j A 0.J F n n n n j l j j j n n h j A W n j j n n n g l n l F l l j n o.1.r.1.1.1.1.y.NX;.0.%.%.w.",
"G.Y Y P U.+.) U.G L L D.j.,   X @ & + $ * $ +     . $ 0 = . o o     % ;     $ ;     o O o .     O   @   @     #..XE ] } P.m.) -X) ) W F.j.",
"%.6.^.}.3X X>X1X}._.B.o.$.8       + O & * @       + 5 K = $         . %       % &   o $ t %       X           ] E 2. X<X3X3X2X8X<X XQ.+.$.",
"O.W.z.z.~.).V.V.z.7XiX6.@.0       . . .     . .           o + o - + O * ; o o % $ .   = 6 4 @ O             - { ( 8XbX-.:.f.k.k.:.>.^.k.#.",
">.>.e u G U n y 7 ' yX9.%.a     @   - o @ o . .           O , & : * * o o o o q *       * q + .   X X   @ ; o ) =.{.6X9 y S T U n r -.J.0.",
"%XH A 2.M.Y.+X{ y H B.U.a.a     + # * O @ + * o         X O X O & = Z 7   @   - * + @ X o $ + o X X X   = t O o.-Xu.-.e ) A.S.R.g.R P I.n.",
"S.:.H } B B k.o.C D u.B.u.f       & ; o   + & @           X       @ + o O       X @   + .   $ @     X     o $ E B.-XJ D T N 2 c ^ R #.Z.;.",
"*.W.L P 2 1 / ) A m I.V.#.f       #     o @ o X       .           @ X   +             @           X     X + * o.O.6X{ A T 1.s b ) L j.C.%.",
"m.*.L g.S.S.J.%.y f u.+Xu.i       X   X @ X & 6               o           o &       X           X       @ @ # o.K.2.[ 0 Y U.R.M.1.G F Z.D.",
"|.P e m R T D y 9 M L.T.i.a @ #               ;     # # - O   #     X     @ .   . .     +               @     { +Xm.$X5 r l L G u 9 _ Z.j.",
"=.8.x l H P n n i 5.pXh.@.a # p - @ # - @   X o . X + & 7 o # O O   .     # #     -     X               X X X Y _ 2XfXM H ~ [ _ ~ ~ ^.C.#.",
"O.0XgXuXhXfXhXdXdXgXgX7.$.a . . - + @ > + + % 4 7 # O   X   X O -           .   .         .   @ #         * 0 { P ,XzXzXbXbXzXbXzXjXpXC.$.",
"&.g.'.>X3X1X2X8X'.^.h.;.%.a   = G [ p +     . 9 Z X     X # @ X             @ $ o +     @ . X o &     X   * 5 { %.%.N.8.`.`.9.*XN.5.>.+.p.",
"G.o.o.o.n.y.%.XXo.o.Q b.p.a X O 8 8 % + .     X @         X X   X X X X   . : % * *     @       X # X X X o * E H.o.Q Q s.p.o.v.$.E o.%.p.",
",.0.0.0.0.r.q.t.t.t.t.r.,.h = = o o @ @ +               X = X X # # O     o - @   o   + O     @ = # O o   X   E r.r.r.r.r.t.t.r.r.0.0.%.1.",
"H.E Y ] D.$.&.oX! T Y a.v.a # y @   X   X     X @   .     + X     X X X   O * &       @ #     X + 7 & + o + X { XXo.E T D.v.Q .X;.O.} s.x.",
",.;.W.^.,X{.[.0X_.Q.h.O.%.g O X @ X           # o + - X   # X X X     & @ O 4 O             .   + + =       + E Q 6.>X>XrX3X1XrX1X>X^.+.0.",
"O.>XfXfXvXlXxXxXhXhXgX8.{ a     @ X X     X   O 0 + @     > X   O # # +     . .   - . X   .   . o   o .   & l E ) 9XmX3X0XeXtXtXqX1X9X!.@.",
";.-.l F ] #.H K f 6.pX7.o.j X               X X +         . X   X O + :           +   X   + @ o o o $     & i E 1.}.7X0 f m Y Y l a e.C.y.",
"-X( y G } +.] C r V I./.F.m o   .           . @             o     X X # O X X                 @   @ % o     X E %Xu.B.e G ;.n.3.+.A ( B.T.",
"I.O.H 2.3.X.Y.w.C D j.z.2.j @ o           +   o     $       +     X O   O X             .     - X & . @     O E F.%XJ k T  .V V  .Y *.S.w.",
"..F.G P 1 < / ) J m K.K.Q n ,   .       o .         ; @       o & O $ *             + + . X &   @ =   + + & ; ] *.6X{ A T O.1 3 I L j.[.o.",
"N.*.N =.4.X.3.%.k u a.).a.a = @         . .   X +   - + + o   $ d X + =           X + #   @ 8   X O . + @ & & W m.6.o.h { %XA.c.2.( ( Z.B.",
"-X( u L +.<.! F r M B..XP.a @ O   . @   @ &       .     o     . 5 o               + X   @ # @   X X     + X o ] .X7.^.0 y W [ } J y ) Z.P.",
"1.*.f n P ) m l 0 5.eXm.%.j X X + .       +   X +   $ * o % * o . + X   @ .       X     X   .                 ) +.>XsXx M Y #.O.K M z.C.Q ",
"T &X7X8XwXwXwXwXqXdXgX7.] h       X       . . @     O 6 $ $ f O X       - .   - X X     O           O X   &   E T *XkXdXxXxXxXxXgXuXeXZ.{ ",
"&.f.'.{.<X2X>X3X X'.V.} $.f       O o o       o   . o $     o O   @ . . . +   + X X O     X     . @ & X : = o E ;.+.W.].{.>X(.2X_.Q.7.+.r.",
"XXo.E T D.v.o.OXo.! Q D.D.g       : : 4 Z o           X -     X @   & 0       @ @   @   X       + O +   $ q o T H.o.] E w.a.E H.@.E E r.b.",
"%.r.0.q.r.r.t.r.r.r.r.r.t.h     X o   o 6 o   o X X + # & #     +   . + X     .         X @     X & ;   o O o E r.r.r.t.t.r.r.q.r.r.q.%.0.",
"XXT L T n.y.o.XXR U T v.b.h X X + =     X       X O @ & 0 0 * @ @               X $ O   @ @   . X X .   i $   E .X$.] ] i.F.Q %XO.] ) u.P.",
",.1.^._.2X>X{.3X}.^.k.} %.h # # + 8     8 O   @ + O #   , 0 & 7             . + O $ #   @ o   o @       $ ; + T ! 2.*X>X3X3X1X3X<X{.!.%.&.",
"] ,XlXxXbXnXbXbXcXxXiX6.{ f       .     @       X X $ .   @ . @ @     @ +   +   + +   X X ; > .   X @   x ; - ] U 5XmXyXsXfXfXfXsX9XpXK.] ",
"O.z.N H o.*.^ H x ' wXh.%.s     .                 X t *   @ . > @     + +     + o & X   @ # : o X   * + 8 : % ] :.(.7Xi g A Y Y l j / B.1.",
"&X[ 9 k U Y m y 9 f J.Y.J.g   +                   & $ @ & X & = & + X       X   X   X     + 5 % = : z h = O = { %Xj.M.0 y S T I m y m F.U.",
"@X;.G g.A.|.:Xs.y a 2.m.j.h - @ @     X @   .     X     . & * * O =       + #     X         X s - * O q $ O   ] B.%XS y @.M.S.S.n.O.( C.a.",
") ^.L I c 2 3.} S f Y.V.@.g +       .   .             O o * 4 $ + + O   .   @   X X         X + @         * . E E 7X] D I ) 1 1 V R l.@XO.",
"h.k.L V c 2 ..! S y j.(.j.g             X @         X & Z $ 6 $ & $ o X     .           X                 . X E m.k.@.m T M.V B | T Y Z.J.",
"-XO.F i.A.S.M.;.y s B.).J.f     . . $ + + +   @     X @ * $ o : * + o O +         X       X     + + &       @ W .Xi./.r U U./.Z.y.U A J.U.",
"=.g.9 k G T S y t x wXh.%.f     & @ + z O     o o   @ & o   o 7 y 6 o # 7 .     X X O     X X X + + + @   @ = ] ) }.9X7 e m U U k w ^ C.{ ",
"I !.-.f.k.L.j.f.5.,XjX7.E h     . .   $ @     . $ $ o + @ X % $ e z : * f * 4 $   X X + .     O #       . X   E U [.lX^.V.!.)./.C.N.W.B.o.",
"o.2.}. X<X3X X3X{._.V.O.0.j . @ + . @   X . - . @ 5 6     # o * O : $   @ o t 5 O & .     &       @   @       ) y.[ N.V.`.2X~.2X~.N.6.>.p.",
"XXo.o.o.H.n.o.%X] ] { H.H.g   + # ; ; - @   .     . .   .   o + O @ o . @ . @ @   o     o &   X X .   : + @   ] G.o.E E y.b.E H.@.E E ;.D.",
"=.;.+.%.%.,.NXNXNX1.y.y.<.P n K m A G G n n n n l n n n n M F G G G K Y Y Y Y 0 K Y P U U T Y Y L Y U U Y P L o.%.4.<.<.NX=.NXNXNXNXNXNXNX",
"NXNXNXNXNXNXNXNXNXNXNXNXNX1.H.o.E %.Y.;.O.P.F.Y Y y.H.r.XXT H w.@Xu.{ Y.U.[ Y ( a.r.oXT U %.%X:.E J.+XT P 0.oXNXNXNXNXNXNXNXNXNXNXNXNXNXNX",
"NXNXNXNXNXNXNXNXNXNXNXNXNXy.T ;.*X~.y.~.0XJ.m.'./.#.q.t.T +.*X~.2.K.8XI.k.'.@X+.r.t.{ +. X~.u.W.0XT.k.'.).=.%.NXNXNXNXNXNXNXNXNXNXNXNXNXNX",
"NXNXNXNXNXNXNXNXNXNXNXNXNXy.R {.cXsXK.p.;.( >XlXjXZ.@.t.L `.bXpXY.p.;.Y *XxXkXZ.@.t.) }.cX8XV.;.+.Y !.iXlX~.@.NXNXNXNXNXNXNXNXNXNXNXNXNXNX",
"NXNXNXNXNXNXNXNXNXNXNXNXNXw.P <Xz.g a f w 9 i >.jXW.$.r.M  X'.s i h u 0 a ` kXW.$.r.( <XqXp q 0 f 0 0 8 8X^.E NXNXNXNXNXNXNXNXNXNXNXNXNXNX",
"NXNXNXNXNXNXNXNXNXNXNXNXNXy.| 8Xg u F U K k 9 ` cX[.y.t.=.1X!.9 n L L Y y ~ nX[.r.t.y.4XqXa z P W Y m 9 5X*Xy.NXNXNXNXNXNXNXNXNXNXNXNXNXNX",
"NXNXNXNXNXNXNXNXNXNXNXNXNX0..XwXF F H.] o.#.y *.cX2XD.t..X3X!.f x.2.} i.n ( nX2XD.t.U.3XeXk F U.o.=.} y 8X2XP.NXNXNXNXNXNXNXNXNXNXNXNXNXNX",
"NXNXNXNXNXNXNXNXNXNXNXNXNX;.( 1X( o.%XM ..g.S :.mX~.&.r.T <X(.G U.| c c.P ;.nX~.o.t.R >XwXJ o.%Xv ..1.S 8X`.o.NXNXNXNXNXNXNXNXNXNXNXNXNXNX",
"NXNXNXNXNXNXNXNXNXNXNXNXNXr.n.3X-. .A.< B M.R 2.zX=Xv.r.m.4X$XR Z.B 1 M.) =.bX2XD.t.P.3XqXW  .I.< N E.U 8X2XG.NXNXNXNXNXNXNXNXNXNXNXNXNXNX",
"NXNXNXNXNXNXNXNXNXNXNXNXNXy.n.7X:.T M.b ..2.D *.zX*Xy.0.;.<X^.l 3...M n.G [ nX).%.r.+.2XqXn U M.b | +.k 5X[.%.NXNXNXNXNXNXNXNXNXNXNXNXNXNX",
"NXNXNXNXNXNXNXNXNXNXNXNXNXNXG  X*.u 1.P o.) w _ jXC.@.q.J  XK.r ] } I ,.u ~ jXW.Q r.L '.5Xk h ;.P  .P r ,X].Q NXNXNXNXNXNXNXNXNXNXNXNXNXNX",
"NXNXNXNXNXNXNXNXNXNXNXNXNXNXF _.*.j k ] Y k 9 8.iXN.$.0.M _.W.d z K ] m y ~ jXN.@.0.L ^.tXx u n ) F k a }.N.E NXNXNXNXNXNXNXNXNXNXNXNXNXNX",
"NXNXNXNXNXNXNXNXNXNXNXNXNX%.T 2.$XV.=.@X&X7.u.(._.%.%.0.) =.[.V.w.K.(.m.j.V./.;.r.0.%.=._.B.i.M.~.B.n.N.K.%.y.NXNXNXNXNXNXNXNXNXNXNXNXNXNX",
"NXNXNXNXNXNXNXNXNXNXNXNXNX0.OXO.( =.-Xm./ ~.%X+.o.a.n.,.oXO.{ y.%X3.! k.T.o.! %.v.r.U.$.T ;.%Xm.] m.+Xo.E 1.G.NXNXNXNXNXNXNXNXNXNXNXNXNXNX"
};
