/* XPM */
static char *result[] = {
/* columns rows colors chars-per-pixel */
"69 69 188 2 ",
"   c black",
".  c #000001",
"X  c #010001",
"o  c #010101",
"O  c #010102",
"+  c #020002",
"@  c #020102",
"#  c #020202",
"$  c #030203",
"%  c #030304",
"&  c #040304",
"*  c #060006",
"=  c #040404",
"-  c #040405",
";  c #050405",
":  c #050406",
">  c #050506",
",  c #050507",
"<  c #060506",
"1  c #060507",
"2  c #060607",
"3  c #060608",
"4  c #070608",
"5  c #070708",
"6  c #070709",
"7  c #07070A",
"8  c #080708",
"9  c #080709",
"0  c #09070B",
"q  c #0D000D",
"w  c #080809",
"e  c #08080A",
"r  c #09080A",
"t  c #08080B",
"y  c #09080B",
"u  c #09090B",
"i  c #0A090B",
"p  c #09090C",
"a  c #0B0A0C",
"s  c #0A0A0D",
"d  c #0B0A0D",
"f  c #0A0A0E",
"g  c #0B0B0E",
"h  c #0C0B0D",
"j  c #0C0B0E",
"k  c #0D0B0E",
"l  c #0E0B0F",
"z  c #0D0C0E",
"x  c #0C0C0F",
"c  c #0D0C0F",
"v  c #0E0C0F",
"b  c #0E0D0F",
"n  c #0C0C10",
"m  c #0D0D10",
"M  c #0D0D11",
"N  c #0E0D10",
"B  c #0F0E11",
"V  c #0D0D12",
"C  c #0F0C13",
"Z  c #0F0E12",
"A  c #0E0E13",
"S  c #0F0F13",
"D  c #0F0F14",
"F  c #100E11",
"G  c #100F12",
"H  c #110F12",
"J  c #100F13",
"K  c #110F13",
"L  c #180018",
"P  c #1C001C",
"I  c #101014",
"U  c #111014",
"Y  c #101015",
"T  c #111015",
"R  c #121014",
"E  c #121114",
"W  c #121115",
"Q  c #131115",
"!  c #111116",
"~  c #111117",
"^  c #121116",
"/  c #141216",
"(  c #141217",
")  c #151317",
"_  c #131318",
"`  c #131319",
"'  c #13131A",
"]  c #141318",
"[  c #151318",
"{  c #151419",
"}  c #161419",
"|  c #14141A",
" . c #15141A",
".. c #15151B",
"X. c #16141A",
"o. c #16151A",
"O. c #17151A",
"+. c #16151B",
"@. c #17151B",
"#. c #17161B",
"$. c #15151C",
"%. c #16151C",
"&. c #16161C",
"*. c #17161C",
"=. c #17161D",
"-. c #16161E",
";. c #17171E",
":. c #18161C",
">. c #18171D",
",. c #18171E",
"<. c #19171E",
"1. c #19181E",
"2. c #18181F",
"3. c #19181F",
"4. c #1C1621",
"5. c #1F1726",
"6. c #181820",
"7. c #191921",
"8. c #1A1920",
"9. c #1A1921",
"0. c #1A1A21",
"q. c #1B1A21",
"w. c #191922",
"e. c #1A1A22",
"r. c #1B1A22",
"t. c #1B1B22",
"y. c #1A1A23",
"u. c #1B1A23",
"i. c #1B1B23",
"p. c #1C1B23",
"a. c #1B1B24",
"s. c #1C1B24",
"d. c #1C1C24",
"f. c #1D1C25",
"g. c #1D1D26",
"h. c #1E1D27",
"j. c #1E1E27",
"k. c #1E1E28",
"l. c #1F1F28",
"z. c #1F1F29",
"x. c #200020",
"c. c #230023",
"v. c #240425",
"b. c #2B002B",
"n. c #2D062F",
"m. c #211E2B",
"M. c #211F2B",
"N. c #221E2B",
"B. c #231E2D",
"V. c #241E2D",
"C. c #340034",
"Z. c #360036",
"A. c #3E013E",
"S. c #271C30",
"D. c #281D31",
"F. c #2A1D33",
"G. c #2C1B34",
"H. c #2E1A37",
"J. c #2B1D34",
"K. c #331139",
"L. c #37173F",
"P. c #33193B",
"I. c #35183C",
"U. c #3C1A44",
"Y. c #490049",
"T. c #4D024D",
"R. c #4D014E",
"E. c #4B0C4F",
"W. c #401447",
"Q. c #48124E",
"!. c #48154F",
"~. c #520F57",
"^. c #5E035F",
"/. c #560F5A",
"(. c #4C1151",
"). c #4D1353",
"_. c #521258",
"`. c #55155C",
"'. c #58105D",
"]. c #5F0B62",
"[. c #6B076D",
"{. c #7F0781",
"}. c #830484",
"|. c #89058B",
" X c #8A048C",
".X c #A505A7",
"XX c #AC04AD",
"oX c None",
/* pixels */
"oXoXoXoXoXoXoXoXoXoXoXoXoXoXoXoXoXoXoXoXoXoXoXoXoXoXoXoXoXoXoXoXoXoXoXoXoXoXoXoXoXoXoXoXoXoXoXoXoXoXoXoXoXoXoXoXoXoXoXoXoXoXoXoXoXoXoXoXoX",
"oXoXoXoXoXoXoXoXoXoXoXoXoXoXoXoXoXoXoXoXoXoXoXoXoXoXoXoXoXoXoXoXoXoXoXoXoXoXoXoXoXoXoXoXoXoXoXoXoXoXoXoXoXoXoXoXoXoXoXoXoXoXoXoXoXoXoXoXoX",
"oXoXoXoXoXoXoXoXoXoXoXoXoXoXoXoXoXoXoXoXoXoXoXoXoXoXoXoXoXoXoXoXoXoXoXoXoXoXoXoXoXoXoXoXoXoXoXoXoXoXoXoXoXoXoXoXoXoXoXoXoXoXoXoXoXoXoXoXoX",
"oXoXoXoXoXoXoXoXoXoXoXoXoXoXoXoXoXoXoXoXoXoXoXoXoXoXoXoXoXoXoXoXoXoXoXoXoXoXoXoXoXoXoXoXoXoXoXoXoXoXoXoXoXoXoXoXoXoXoXoXoXoXoXoXoXoXoXoXoX",
"oXoXoXoXoXoXoXoXoXoXoXoXoXoXoXoXoXoXoXoXoXoXoXoXoXoXoXoXoXoXoXoXoXoXoXoXoXoXoXoXoXoXoXoXoXoXoXoXoXoXoXoXoXoXoXoXoXoXoXoXoXoXoXoXoXoXoXoXoX",
"oXoXoXoXoXoXoXoXoXoXoXoXoXoXoXoXoXoXoXoXoXoXoXoXoXoXoXoXoXoXoXoXoXoXoXoXoXoXoXoXoXoXoXoXoXoXoXoXoXoXoXoXoXoXoXoXoXoXoXoXoXoXoXoXoXoXoXoXoX",
"oXoXoXoXoXoXoXoXoXoXoXoXoXoXoXoXoXoXoXoXoXoXoXoXoX                              oXoXoXoXoXoXoXoXoXoXoXoXoXoXoXoXoXoXoXoXoXoXoXoXoXoXoXoXoX",
"oXoXoXoXoXoXoXoXoXoXoXoXoXoXoXoXoXoXoXoXoXoXoXoXoX  2 x D D D D D D D D D D n   oXoXoXoXoXoXoXoXoXoXoXoXoXoXoXoXoXoXoXoXoXoXoXoXoXoXoXoXoX",
"oXoXoXoXoXoXoXoXoXoXoXoXoXoXoXoXoXoXoXoXoXoXoXoXoX  j <.z.z.z.z.z.z.z.z.z.z.7.. oXoXoXoXoXoXoXoXoXoXoXoXoXoXoXoXoXoXoXoXoXoXoXoXoXoXoXoXoX",
"oXoXoXoXoXoXoXoXoXoXoXoXoXoXoXoXoXoXoXoXoXoXoXoXoX  j <.z.z.z.B.D.J.J.M.z.N.5.X oXoXoXoXoXoXoXoXoXoXoXoXoXoXoXoXoXoXoXoXoXoXoXoXoXoXoXoXoX",
"oXoXoXoXoXoXoXoXoXoXoXoXoXoXoXoXoXoXoXoXoXoXoXoXoX  j <.z.z.z.~. XXXXXU.z.W.^.+ oXoXoXoXoXoXoXoXoXoXoXoXoXoXoXoXoXoXoXoXoXoXoXoXoXoXoXoXoX",
"oXoXoXoXoXoXoXoXoXoXoXoXoXoXoXoXoXoXoXoXoXoXoXoXoX  j <.z.z.z.P.!.`.`.F.z.G.K.X oXoXoXoXoXoXoXoXoXoXoXoXoXoXoXoXoXoXoXoXoXoXoXoXoXoXoXoXoX",
"oXoXoXoXoXoXoXoXoXoXoXoXoXoXoXoXoXoXoXoXoXoXoXoXoX  j <.z.z.r.| ! | z.| 7.w.V   oXoXoXoXoXoXoXoXoXoXoXoXoXoXoXoXoXoXoXoXoXoXoXoXoXoXoXoXoX",
"oXoXoXoXoXoXoXoXoXoXoXoXoXoXoXoXoXoXoXoXoXoXoXoXoX  j <.z.z.X.c 6 y ;.y I Y -   oXoXoXoXoXoXoXoXoXoXoXoXoXoXoXoXoXoXoXoXoXoXoXoXoXoXoXoXoX",
"oXoXoXoXoXoXoXoXoXoXoXoXoXoXoXoXoXoXoXoXoXoXoXoXoX  j ,.k.z.O.r.r.K # K u y K   oXoXoXoXoXoXoXoXoXoXoXoXoXoXoXoXoXoXoXoXoXoXoXoXoXoXoXoXoX",
"oXoXoXoXoXoXoXoXoXoXoXoXoXoXoXoXoXoXoXoXoXoXoXoXoX  j ) :.z.h.k.k.g.i.g.d.d.2.. oXoXoXoXoXoXoXoXoXoXoXoXoXoXoXoXoXoXoXoXoXoXoXoXoXoXoXoXoX",
"oXoXoXoXoXoXoXoXoXoXoXoXoXoXoXoXoXoXoXoXoXoXoXoXoX  - 4 9 g g g g g g g g g p   oXoXoXoXoXoXoXoXoXoXoXoXoXoXoXoXoXoXoXoXoXoXoXoXoXoXoXoXoX",
"oXoXoXoXoXoXoXoXoXoXoXoXoXoXoXoXoXoXoXoXoXoXoXoXoXoX          > r 4             oXoXoXoXoXoXoXoXoXoXoXoXoXoXoXoXoXoXoXoXoXoXoXoXoXoXoXoXoX",
"oXoXoXoXoXoXoXoXoXoXoXoXoXoXoXoXoXoXoXoXoXoXoXoXoXoXoXoXoXoX7 U @.( e oXoXoXoXoXoXoXoXoXoXoXoXoXoXoXoXoXoXoXoXoXoXoXoXoXoXoXoXoXoXoXoXoXoX",
"oXoXoXoXoXoXoXoXoXoXoXoXoXoXoXoXoXoXoXoXoXoXoXoXoXoXo o O # w.z.z.l.z.7 o o oXoXoXoXoXoXoXoXoXoXoXoXoXoXoXoXoXoXoXoXoXoXoXoXoXoXoXoXoXoXoX",
"oXoXoXoXoXoXoXoXoXoXoXoXoXoXoXoXoXoXoXoXoXoXoXoXoX  a { e.y.k.z.i.:.z.a.{ a   oXoXoXoXoXoXoXoXoXoXoXoXoXoXoXoXoXoXoXoXoXoXoXoXoXoXoXoXoXoX",
"oXoXoXoXoXoXoXoXoXoXoXoXoXoXoXoXoXoXoXoXoXoXoXoXoX  ; y Y z.z.z.g.0.>.h.T -   oXoXoXoXoXoXoXoXoXoXoXoXoXoXoXoXoXoXoXoXoXoXoXoXoXoXoXoXoXoX",
"oXoXoXoXoXoXoXoXoXoXoXoXoXoXoXoXoXoXoXoXoXoXoXoXoX      6 z.z.z.g.=.a i.M     oXoXoXoXoXoXoXoXoXoXoXoXoXoXoXoXoXoXoXoXoXoXoXoXoXoXoXoXoXoX",
"oXoXoXoXoXoXoXoXoXoXoXoXoXoXoXoXoXoXoXoXoXoXoXoXoX      6 z.z.g.=.v 7 y.M     oXoXoXoXoXoXoXoXoXoXoXoXoXoXoXoXoXoXoXoXoXoXoXoXoXoXoXoXoXoX",
"oXoXoXoXoXoXoXoXoXoXoXoXoXoXoXoXoXoXoXoXoXoXoXoX      X 0 V.V.4.l 6 z.m.C X     oXoXoXoXoXoXoXoXoXoXoXoXoXoXoXoXoXoXoXoXoXoXoXoXoXoXoXoXoX",
"oXoXoXoXoXoXoXoXoXoXoXoXoXoXoXoXoXoXoXoXoXoXoXoX    oXb.R..X.X}.E.i.z.].T.x.    oXoXoXoXoXoXoXoXoXoXoXoXoXoXoXoXoXoXoXoXoXoXoXoXoXoXoXoXoX",
"oXoXoXoXoXoXoXoXoXoXoXoXoXoXoXoXoXoXoXoXoXoXoXoX    oXoXc.Y.'.).I.z.z.n.Z.L     oXoXoXoXoXoXoXoXoXoXoXoXoXoXoXoXoXoXoXoXoXoXoXoXoXoXoXoXoX",
"oXoXoXoXoXoXoXoXoXoXoXoXoXoXoXoXoXoXoXoXoXoXoXoX    oXoX* P /._.L.S.Q.v.oXoX    oXoXoXoXoXoXoXoXoXoXoXoXoXoXoXoXoXoXoXoXoXoXoXoXoXoXoXoXoX",
"oXoXoXoXoXoXoXoXoXoXoXoXoXoXoXoXoXoXoXoXoXoXoXoX- o oXoXq C.|.{.(.H.[.A.oXoXo - oXoXoXoXoXoXoXoXoXoXoXoXoXoXoXoXoXoXoXoXoXoXoXoXoXoXoXoXoX",
"oXoXoXoXoXoXoXoXoXoXoXoXoXoXoXoXoXoXoXoXoXoXoXoXQ % oXoXoX. 7.z.z.z.z.3 oXoX& / oXoXoXoXoXoXoXoXoXoXoXoXoXoXoXoXoXoXoXoXoXoXoXoXoXoXoXoXoX",
"oXoXoXoXoXoXoXoXoXoXoXoXoXoXoXoXoXoXoXoXoXoXoXoXQ % oXoXoX  W p.z.g.X.- oXoX& / oXoXoXoXoXoXoXoXoXoXoXoXoXoXoXoXoXoXoXoXoXoXoXoXoXoXoXoXoX",
"oXoXoXoXoXoXoXoXoXoXoXoXoXoXoXoXoXoXoXoXoXoXoXoX8 o oXoXoX  G @.>.*./ = oXoXO 8 oXoXoXoXoXoXoXoXoXoXoXoXoXoXoXoXoXoXoXoXoXoXoXoXoXoXoXoXoX",
"oXoXoXoXoXoXoXoXoXoXoXoXoXoXoXoXoXoXoXoXoXoXoX% 9 O oXoXoX  G B B E h & oXoX@ 9 % oXoXoXoXoXoXoXoXoXoXoXoXoXoXoXoXoXoXoXoXoXoXoXoXoXoXoXoX",
"oXoXoXoXoXoXoXoXoXoXoXoXoXoXoXoXoXoXoXoXoXoXoX> } = oXoXoX  c 2 2 k   oXoXoX& / - oXoXoXoXoXoXoXoXoXoXoXoXoXoXoXoXoXoXoXoXoXoXoXoXoXoXoXoX",
"oXoXoXoXoXoXoXoXoXoXoXoXoXoXoXoXoXoXoXoXoXoXoX7 k., oXoXoXoX          oXoXoX& / - oXoXoXoXoXoXoXoXoXoXoXoXoXoXoXoXoXoXoXoXoXoXoXoXoXoXoXoX",
"oXoXoXoXoXoXoXoXoXoXoXoXoXoXoXoXoXoXoXoXoXoXoX> } = oXoXoXoX          oXoXoX& / - oXoXoXoXoXoXoXoXoXoXoXoXoXoXoXoXoXoXoXoXoXoXoXoXoXoXoXoX",
"oXoXoXoXoXoXoXoXoXoXoXoXoXoXoXoXoXoXoXoXoXoXoX; Q % oXoXoX            oXoXoX& / - oXoXoXoXoXoXoXoXoXoXoXoXoXoXoXoXoXoXoXoXoXoXoXoXoXoXoXoX",
"oXoXoXoXoXoXoXoXoXoXoXoXoXoXoXoXoXoXoXoXoXoXoX; Q % oXoXoX            oXoXoX& / - oXoXoXoXoXoXoXoXoXoXoXoXoXoXoXoXoXoXoXoXoXoXoXoXoXoXoXoX",
"oXoXoXoXoXoXoXoXoXoXoXoXoXoXoXoXoXoXoXoXoXoXoX> { = oXoXoX    oXoX    oXoXoX& / - oXoXoXoXoXoXoXoXoXoXoXoXoXoXoXoXoXoXoXoXoXoXoXoXoXoXoXoX",
"oXoXoXoXoXoXoXoXoXoXoXoXoXoXoXoXoXoXoXoXoXoXoX6 k., oXoXoX    oXoX    oXoXoX& / - oXoXoXoXoXoXoXoXoXoXoXoXoXoXoXoXoXoXoXoXoXoXoXoXoXoXoXoX",
"oXoXoXoXoXoXoXoXoXoXoXoXoXoXoXoXoXoXoXoXoXoXoX7 k., oXoXoX    oXoX    oXoXoX, d.3 oXoXoXoXoXoXoXoXoXoXoXoXoXoXoXoXoXoXoXoXoXoXoXoXoXoXoXoX",
"oXoXoXoXoXoXoXoXoXoXoXoXoXoXoXoXoXoXoXoXoXoXf $.k., oXoXoX    oXoX    oXoXoX3 l.$.s oXoXoXoXoXoXoXoXoXoXoXoXoXoXoXoXoXoXoXoXoXoXoXoXoXoXoX",
"oXoXoXoXoXoXoXoXoXoXoXoXoXoXoXoXoXoXoXoXoX  V j.9.> oXoXoX    oXoX    oXoXoX3 l.p.g   oXoXoXoXoXoXoXoXoXoXoXoXoXoXoXoXoXoXoXoXoXoXoXoXoXoX",
"oXoXoXoXoXoXoXoXoXoXoXoXoXoXoXoXoXoXoXoXoX  m i.{ = oXoXoX% o oXoXo % oXoXoX2 7.{ w   oXoXoXoXoXoXoXoXoXoXoXoXoXoXoXoXoXoXoXoXoXoXoXoXoXoX",
"oXoXoXoXoXoXoXoXoXoXoXoXoXoXoXoXoXoXoXoXoX  r @.j., oXoXoXQ & oXoX= Q oXoXoXoXo F w   oXoXoXoXoXoXoXoXoXoXoXoXoXoXoXoXoXoXoXoXoXoXoXoXoXoX",
"oXoXoXoXoXoXoXoXoXoXoXoXoXoXoXoXoXoXoXoX  ! +.O.k., oXoX> / & oXoX= / ; oXoXoX  F %.Y   oXoXoXoXoXoXoXoXoXoXoXoXoXoXoXoXoXoXoXoXoXoXoXoXoX",
"oXoXoXoXoXoXoXoXoXoXoXoXoXoXoXoXoXoXoXoX  J 3.i.k., oXoX- / & oXoX= / = oXoXoX   .g.'   oXoXoXoXoXoXoXoXoXoXoXoXoXoXoXoXoXoXoXoXoXoXoXoXoX",
"oXoXoXoXoXoXoXoXoXoXoXoXoXoXoXoXoXoXoXoX  Z r.j.0.> oXoX- / & oXoX$ k $ oXoXoX  6.z.2.f oXoXoXoXoXoXoXoXoXoXoXoXoXoXoXoXoXoXoXoXoXoXoXoXoX",
"oXoXoXoXoXoXoXoXoXoXoXoXoXoXoXoXoXoXoXoX  | k.r.Q % oXoX& H & oXoXo % o oXoXoX  6.z.k.2.o oXoXoXoXoXoXoXoXoXoXoXoXoXoXoXoXoXoXoXoXoXoXoXoX",
"oXoXoXoXoXoXoXoXoXoXoXoXoXoXoXoXoXoXoXoX  | 0.( Q % oXoX  o oXoXoX= Q & oXoXoX  6.z.r.K o oXoXoXoXoXoXoXoXoXoXoXoXoXoXoXoXoXoXoXoXoXoXoXoX",
"oXoXoXoXoXoXoXoXoXoXoXoXoXoXoXoXoXoXoXoX  | 9./ Q %   5 h   oXoXoX= / = oXoXoX  6.9.1.9.B - oXoXoXoXoXoXoXoXoXoXoXoXoXoXoXoXoXoXoXoXoXoXoX",
"oXoXoXoXoXoXoXoXoXoXoXoXoXoXoXoXoXoXoXoX  J ^ r r @   w F   oXoXoX= / z 1 oXoX  ] 8...M r # oXoXoXoXoXoXoXoXoXoXoXoXoXoXoXoXoXoXoXoXoXoXoX",
"oXoXoXoXoXoXoXoXoXoXoXoXoXoXoXoXoXoXoXoX  9 r         w F   oXoXoX= / / 9   oX  i ! A       oXoXoXoXoXoXoXoXoXoXoXoXoXoXoXoXoXoXoXoXoXoXoX",
"oXoXoXoXoXoXoXoXoXoXoXoXoXoXoXoXoXoXoXoX    oXoXoXoX  w F   oXoXoX- } ( 9   oX        oXoXoXoXoXoXoXoXoXoXoXoXoXoXoXoXoXoXoXoXoXoXoXoXoXoX",
"oXoXoXoXoXoXoXoXoXoXoXoXoXoXoXoXoXoXoXoXoXoXoXoXoXoX  w F   oXoXoX3 k.X.9   oXoXoXoXoXoXoXoXoXoXoXoXoXoXoXoXoXoXoXoXoXoXoXoXoXoXoXoXoXoXoX",
"oXoXoXoXoXoXoXoXoXoXoXoXoXoXoXoXoXoXoXoXoXoXoXoXoXoX  x &.  oXoXoX3 z.o.9   oXoXoXoXoXoXoXoXoXoXoXoXoXoXoXoXoXoXoXoXoXoXoXoXoXoXoXoXoXoXoX",
"oXoXoXoXoXoXoXoXoXoXoXoXoXoXoXoXoXoXoXoXoXoXoXoXoXoX9 _ 6.  oXoXoX3 z.o.9   oXoXoXoXoXoXoXoXoXoXoXoXoXoXoXoXoXoXoXoXoXoXoXoXoXoXoXoXoXoXoX",
"oXoXoXoXoXoXoXoXoXoXoXoXoXoXoXoXoXoXoXoXoXoXoXoXoX  j <.6.  oXoXoX3 z.3.N > oXoXoXoXoXoXoXoXoXoXoXoXoXoXoXoXoXoXoXoXoXoXoXoXoXoXoXoXoXoXoX",
"oXoXoXoXoXoXoXoXoXoXoXoXoXoXoXoXoXoXoXoXoXoXoXoXoX  j <.6.  oXoXoX3 z.z.,.h   oXoXoXoXoXoXoXoXoXoXoXoXoXoXoXoXoXoXoXoXoXoXoXoXoXoXoXoXoXoX",
"oXoXoXoXoXoXoXoXoXoXoXoXoXoXoXoXoXoXoXoXoXoXoXoXoX  j <.6.  oXoXoX3 z.z.,.h   oXoXoXoXoXoXoXoXoXoXoXoXoXoXoXoXoXoXoXoXoXoXoXoXoXoXoXoXoXoX",
"oXoXoXoXoXoXoXoXoXoXoXoXoXoXoXoXoXoXoXoXoXoXoXoXoX  ! g.6.  oXoXoX: #.g.g.!   oXoXoXoXoXoXoXoXoXoXoXoXoXoXoXoXoXoXoXoXoXoXoXoXoXoXoXoXoXoX",
"oXoXoXoXoXoXoXoXoXoXoXoXoXoXoXoXoXoXoXoXoXoXoXoXo r ] p.u.i % oXoX= / >.f.`   oXoXoXoXoXoXoXoXoXoXoXoXoXoXoXoXoXoXoXoXoXoXoXoXoXoXoXoXoXoX",
"oXoXoXoXoXoXoXoXoXoXoXoXoXoXoXoXoXoXoXoXoXoXoXoXo H o.3.8./ & oXoX= / @.s.$.1 oXoXoXoXoXoXoXoXoXoXoXoXoXoXoXoXoXoXoXoXoXoXoXoXoXoXoXoXoXoX",
"oXoXoXoXoXoXoXoXoXoXoXoXoXoXoXoXoXoXoXoXoXoXoXoXo R i.r.[ / & oXoX= / p.k.t.R $ oXoXoXoXoXoXoXoXoXoXoXoXoXoXoXoXoXoXoXoXoXoXoXoXoXoXoXoXoX",
"oXoXoXoXoXoXoXoXoXoXoXoXoXoXoXoXoXoXoXoXoXoXoXoXo 7.l.l.s./ & oXoX= / ) r.l.s.E - oXoXoXoXoXoXoXoXoXoXoXoXoXoXoXoXoXoXoXoXoXoXoXoXoXoXoXoX",
"oXoXoXoXoXoXoXoXoXoXoXoXoXoXoXoXoXoXoXoXoXoXoXoXo e.~ p t < o     = / / q.-.t < o       oXoXoXoXoXoXoXoXoXoXoXoXoXoXoXoXoXoXoXoXoXoXoXoXoX",
"oXoXoXoXoXoXoXoXoXoXoXoXoXoXoXoXoXoXoXoXoXoXoXoXo  .J c Y Y d i 1 # i R T D S i i i 2     oXoXoXoXoXoXoXoXoXoXoXoXoXoXoXoXoXoXoXoXoXoXoXoX",
"oXoXoXoXoXoXoXoXoXoXoXoXoXoXoXoXoXoXoXoXoXoXoXoX  d b T &.$.Z b 9     a < t | b b b r     oXoXoXoXoXoXoXoXoXoXoXoXoXoXoXoXoXoXoXoXoXoXoXoX",
"oXoXoXoXoXoXoXoXoXoXoXoXoXoXoXoXoXoXoXoXoXoXoXoX                                          oXoXoXoXoXoXoXoXoXoXoXoXoXoXoXoXoXoXoXoXoXoXoXoX"
};
