/* XPM */
static char *result[] = {
/* columns rows colors chars-per-pixel */
"69 69 200 2 ",
"   c black",
".  c #000001",
"X  c #010001",
"o  c #000101",
"O  c #010101",
"+  c #010102",
"@  c #020002",
"#  c #020102",
"$  c #020003",
"%  c #000202",
"&  c #020202",
"*  c #020203",
"=  c #030203",
"-  c gray1",
";  c #030304",
":  c #040304",
">  c #040404",
",  c #040405",
"<  c #050405",
"1  c #050506",
"2  c #050507",
"3  c #060506",
"4  c #060507",
"5  c #060607",
"6  c #060608",
"7  c #070608",
"8  c #070708",
"9  c #070709",
"0  c #07070A",
"q  c #080708",
"w  c #080709",
"e  c #08070A",
"r  c #000E0E",
"t  c #080809",
"y  c #08080A",
"u  c #09080A",
"i  c #09090A",
"p  c #08080B",
"a  c #09090B",
"s  c #0A090B",
"d  c #09090C",
"f  c #0A090C",
"g  c #0B090C",
"h  c #0B0A0C",
"j  c #0A0A0D",
"k  c #0B0A0D",
"l  c #0B0B0D",
"z  c #0B0B0E",
"x  c #0C0A0D",
"c  c #0C0B0D",
"v  c #0C0B0E",
"b  c #0D0C0E",
"n  c #0C0C0F",
"m  c #0D0C0F",
"M  c #0E0C0F",
"N  c #0E0D0F",
"B  c #0C0C10",
"V  c #0D0C10",
"C  c #0C0C11",
"Z  c #0F0D10",
"A  c #0E0D11",
"S  c #0F0E11",
"D  c #0D0D12",
"F  c #0E0E12",
"G  c #0F0E12",
"H  c #0E0E13",
"J  c #0F0F13",
"K  c #0F0F14",
"L  c #160016",
"P  c #100E11",
"I  c #100E12",
"U  c #100F12",
"Y  c #110F12",
"T  c #100F13",
"R  c #100F14",
"E  c #130E14",
"W  c #190019",
"Q  c #1B001B",
"!  c #180C1A",
"~  c #001B1B",
"^  c #001D1D",
"/  c #111014",
"(  c #101015",
")  c #111015",
"_  c #121014",
"`  c #121115",
"'  c #121116",
"]  c #131216",
"[  c #121217",
"{  c #131217",
"}  c #141216",
"|  c #141217",
" . c #141317",
".. c #151317",
"X. c #121218",
"o. c #131319",
"O. c #13131A",
"+. c #151318",
"@. c #15121B",
"#. c #151418",
"$. c #151419",
"%. c #161419",
"&. c #15141A",
"*. c #14141B",
"=. c #16141A",
"-. c #16151A",
";. c #17151A",
":. c #16151B",
">. c #17151B",
",. c #17161B",
"<. c #15151C",
"1. c #16151C",
"2. c #16161C",
"3. c #16161D",
"4. c #17161D",
"5. c #17171D",
"6. c #17171F",
"7. c #18161C",
"8. c #18171D",
"9. c #18171E",
"0. c #19171E",
"q. c #19181E",
"w. c #19181F",
"e. c #181820",
"r. c #191921",
"t. c #1A1920",
"y. c #1A1921",
"u. c #1A1A21",
"i. c #1B1A21",
"p. c #191922",
"a. c #1A1A22",
"s. c #1B1A22",
"d. c #1A1A23",
"f. c #1B1B23",
"g. c #1C1B23",
"h. c #1B1B24",
"j. c #1D1825",
"k. c #1F1925",
"l. c #1C1B24",
"z. c #1C1C24",
"x. c #1C1C25",
"c. c #1D1C25",
"v. c #1D1D25",
"b. c #1D1D26",
"n. c #1E1D27",
"m. c #1E1E27",
"M. c #1E1E28",
"N. c #1F1E28",
"B. c #1F1F28",
"V. c #1F1F29",
"C. c #2A002A",
"Z. c #2B002B",
"A. c #2D072F",
"S. c #290D2D",
"D. c #211E2B",
"F. c #241E2D",
"G. c #320032",
"H. c #330033",
"J. c #370037",
"K. c #321533",
"L. c #003232",
"P. c #003838",
"I. c #24242E",
"U. c #2A2433",
"Y. c #2A2A33",
"T. c #2B2B35",
"R. c #3C1643",
"E. c #392A42",
"W. c #392D42",
"Q. c #393941",
"!. c #393942",
"~. c #400040",
"^. c #49034A",
"/. c #470B4A",
"(. c #401546",
"). c #580359",
"_. c #540C58",
"`. c #5C085E",
"'. c #5B0C5F",
"]. c #5C0C5F",
"[. c #4F1054",
"{. c #521358",
"}. c #58125E",
"|. c #740475",
" X c #006868",
".X c #46464E",
"XX c #5F5F66",
"oX c #604367",
"OX c #724378",
"+X c #606067",
"@X c #727278",
"#X c #89078B",
"$X c #8E048F",
"%X c #900491",
"&X c #8F338F",
"*X c #A505A7",
"=X c #EC8FEC",
"-X c #E9E9EA",
";X c #ECECEC",
":X c None",
/* pixels */
":X:X:X:X:X:X:X:X:X:X:X:X:X:X:X:X:X:X:X:X:X:X:X:X:X:X                              :X:X:X:X:X:X:X:X:X:X:X:X:X:X:X:X:X:X:X:X:X:X:X:X:X:X:X:X",
":X:X:X:X:X:X:X:X:X:X:X:X:X:X:X:X:X:X:X:X:X:X:X:X:X:X  3 I 3.3.3.3.3.3.3.3.3.3.3.1 :X:X:X:X:X:X:X:X:X:X:X:X:X:X:X:X:X:X:X:X:X:X:X:X:X:X:X:X",
":X:X:X:X:X:X:X:X:X:X:X:X:X:X:X:X:X:X:X:X:X:X:X:X:X:X  t -.V.V.V.V.V.V.V.V.V.V.V.9 :X:X:X:X:X:X:X:X:X:X:X:X:X:X:X:X:X:X:X:X:X:X:X:X:X:X:X:X",
":X:X:X:X:X:X:X:X:X:X:X:X:X:X:X:X:X:X:X:X:X:X:X:X:X:X  t -.V.V.V.E.oX+X+X!.V.T.XXK.:X:X:X:X:X:X:X:X:X:X:X:X:X:X:X:X:X:X:X:X:X:X:X:X:X:X:X:X",
":X:X:X:X:X:X:X:X:X:X:X:X:X:X:X:X:X:X:X:X:X:X:X:X:X:X  t -.V.V.V.OX=X;X;X@XV..X-X&X:X:X:X:X:X:X:X:X:X:X:X:X:X:X:X:X:X:X:X:X:X:X:X:X:X:X:X:X",
":X:X:X:X:X:X:X:X:X:X:X:X:X:X:X:X:X:X:X:X:X:X:X:X:X:X  t -.V.V.V.U.W.!.!.Y.V.I.Q.! :X:X:X:X:X:X:X:X:X:X:X:X:X:X:X:X:X:X:X:X:X:X:X:X:X:X:X:X",
":X:X:X:X:X:X:X:X:X:X:X:X:X:X:X:X:X:X:X:X:X:X:X:X:X:X  t _ j j j j j j j j j j j * :X:X:X:X:X:X:X:X:X:X:X:X:X:X:X:X:X:X:X:X:X:X:X:X:X:X:X:X",
":X:X:X:X:X:X:X:X:X:X:X:X:X:X:X:X:X:X:X:X:X:X:X:X:X:X  t P                         :X:X:X:X:X:X:X:X:X:X:X:X:X:X:X:X:X:X:X:X:X:X:X:X:X:X:X:X",
":X:X:X:X:X:X:X:X:X:X:X:X:X:X:X:X:X:X:X:X:X:X:X:X:X:X  t P o ^ r       :X:X:X:X:X:X:X:X:X:X:X:X:X:X:X:X:X:X:X:X:X:X:X:X:X:X:X:X:X:X:X:X:X:X",
":X:X:X:X:X:X:X:X:X:X:X:X:X:X:X:X:X:X:X:X:X:X:X:X:X:X  t P %  XL.      :X:X:X:X:X:X:X:X:X:X:X:X:X:X:X:X:X:X:X:X:X:X:X:X:X:X:X:X:X:X:X:X:X:X",
":X:X:X:X:X:X:X:X:X:X:X:X:X:X:X:X:X:X:X:X:X:X:X:X:X:X  t P %  XL.      :X:X:X:X:X:X:X:X:X:X:X:X:X:X:X:X:X:X:X:X:X:X:X:X:X:X:X:X:X:X:X:X:X:X",
":X:X:X:X:X:X:X:X:X:X:X:X:X:X:X:X:X:X:X:X:X:X:X:X:X:X  t P %  XL.      :X:X:X:X:X:X:X:X:X:X:X:X:X:X:X:X:X:X:X:X:X:X:X:X:X:X:X:X:X:X:X:X:X:X",
":X:X:X:X:X:X:X:X:X:X:X:X:X:X:X:X:X:X:X:X:X:X:X:X:X:X  t P o P.~       :X:X:X:X:X:X:X:X:X:X:X:X:X:X:X:X:X:X:X:X:X:X:X:X:X:X:X:X:X:X:X:X:X:X",
":X:X:X:X:X:X:X:X:X:X:X:X:X:X:X:X:X:X:X:X:X:X:X:X:X:X  t / p 4 & ; e 1 :X, , :X1 O :X:X:X:X:X:X:X:X:X:X:X:X:X:X:X:X:X:X:X:X:X:X:X:X:X:X:X:X",
":X:X:X:X:X:X:X:X:X:X:X:X:X:X:X:X:X:X:X:X:X:X:X:X:X:X  t -.V.;.u F v...4 m m 1  ., :X:X:X:X:X:X:X:X:X:X:X:X:X:X:X:X:X:X:X:X:X:X:X:X:X:X:X:X",
":X:X:X:X:X:X:X:X:X:X:X:X:X:X:X:X:X:X:X:X:X:X:X:X:X:X  t -.V.n.z.x.B.b.h.x.x.h.b.6 :X:X:X:X:X:X:X:X:X:X:X:X:X:X:X:X:X:X:X:X:X:X:X:X:X:X:X:X",
":X:X:X:X:X:X:X:X:X:X:X:X:X:X:X:X:X:X:X:X:X:X:X:X:X:X  - w z z z z z z z z z z z * :X:X:X:X:X:X:X:X:X:X:X:X:X:X:X:X:X:X:X:X:X:X:X:X:X:X:X:X",
":X:X:X:X:X:X:X:X:X:X:X:X:X:X:X:X:X:X:X:X:X:X:X:X:X:X:X          : u u &           :X:X:X:X:X:X:X:X:X:X:X:X:X:X:X:X:X:X:X:X:X:X:X:X:X:X:X:X",
":X:X:X:X:X:X:X:X:X:X:X:X:X:X:X:X:X:X:X:X:X:X:X:X:X:X:X:X:X:X:X9 A >.>.k 5 :X:X:X:X:X:X:X:X:X:X:X:X:X:X:X:X:X:X:X:X:X:X:X:X:X:X:X:X:X:X:X:X",
":X:X:X:X:X:X:X:X:X:X:X:X:X:X:X:X:X:X:X:X:X:X:X:X:X:X:X:XO + + O.V.V.N.V.D O O :X:X:X:X:X:X:X:X:X:X:X:X:X:X:X:X:X:X:X:X:X:X:X:X:X:X:X:X:X:X",
":X:X:X:X:X:X:X:X:X:X:X:X:X:X:X:X:X:X:X:X:X:X:X:X:X:X  w ] a.a.b.V.b.%.b.x.2.N   :X:X:X:X:X:X:X:X:X:X:X:X:X:X:X:X:X:X:X:X:X:X:X:X:X:X:X:X:X",
":X:X:X:X:X:X:X:X:X:X:X:X:X:X:X:X:X:X:X:X:X:X:X:X:X:X  - t n h.V.V.M.s.0.z.1.3   :X:X:X:X:X:X:X:X:X:X:X:X:X:X:X:X:X:X:X:X:X:X:X:X:X:X:X:X:X",
":X:X:X:X:X:X:X:X:X:X:X:X:X:X:X:X:X:X:X:X:X:X:X:X:X:X      . r.V.V.m.y.A 5.o.    :X:X:X:X:X:X:X:X:X:X:X:X:X:X:X:X:X:X:X:X:X:X:X:X:X:X:X:X:X",
":X:X:X:X:X:X:X:X:X:X:X:X:X:X:X:X:X:X:X:X:X:X:X:X:X:X      . r.V.m.y.S a <.o.    :X:X:X:X:X:X:X:X:X:X:X:X:X:X:X:X:X:X:X:X:X:X:X:X:X:X:X:X:X",
":X:X:X:X:X:X:X:X:X:X:X:X:X:X:X:X:X:X:X:X:X:X:X:X:X        $ j.F.k.E O r.D.@.@     :X:X:X:X:X:X:X:X:X:X:X:X:X:X:X:X:X:X:X:X:X:X:X:X:X:X:X:X",
":X:X:X:X:X:X:X:X:X:X:X:X:X:X:X:X:X:X:X:X:X:X:X:X:X      :XJ.%X*X$X`.a.M.[.).Z.X   :X:X:X:X:X:X:X:X:X:X:X:X:X:X:X:X:X:X:X:X:X:X:X:X:X:X:X:X",
":X:X:X:X:X:X:X:X:X:X:X:X:X:X:X:X:X:X:X:X:X:X:X:X:X      :XW ~._.{.R.V.V.S.H.:X    :X:X:X:X:X:X:X:X:X:X:X:X:X:X:X:X:X:X:X:X:X:X:X:X:X:X:X:X",
":X:X:X:X:X:X:X:X:X:X:X:X:X:X:X:X:X:X:X:X:X:X:X:X:X      :X  L /.}.(.V.(.A.Q :X    :X:X:X:X:X:X:X:X:X:X:X:X:X:X:X:X:X:X:X:X:X:X:X:X:X:X:X:X",
":X:X:X:X:X:X:X:X:X:X:X:X:X:X:X:X:X:X:X:X:X:X:X:X:X, #   :XX C.|.#X'.V.].^.G.:X  ; :X:X:X:X:X:X:X:X:X:X:X:X:X:X:X:X:X:X:X:X:X:X:X:X:X:X:X:X",
":X:X:X:X:X:X:X:X:X:X:X:X:X:X:X:X:X:X:X:X:X:X:X:X:X} q   :X:X  o.V.V.V.V.C   :X  P :X:X:X:X:X:X:X:X:X:X:X:X:X:X:X:X:X:X:X:X:X:X:X:X:X:X:X:X",
":X:X:X:X:X:X:X:X:X:X:X:X:X:X:X:X:X:X:X:X:X:X:X:X:X} q   :X:X  V t.V.V.8.u   :X  P :X:X:X:X:X:X:X:X:X:X:X:X:X:X:X:X:X:X:X:X:X:X:X:X:X:X:X:X",
":X:X:X:X:X:X:X:X:X:X:X:X:X:X:X:X:X:X:X:X:X:X:X:X:Xw -   :X:X  c %.8.8.+.w   :X  5 :X:X:X:X:X:X:X:X:X:X:X:X:X:X:X:X:X:X:X:X:X:X:X:X:X:X:X:X",
":X:X:X:X:X:X:X:X:X:X:X:X:X:X:X:X:X:X:X:X:X:X:X:X:X8 -   :X:X  c Y M } M 5 :X:X  5 1 :X:X:X:X:X:X:X:X:X:X:X:X:X:X:X:X:X:X:X:X:X:X:X:X:X:X:X",
":X:X:X:X:X:X:X:X:X:X:X:X:X:X:X:X:X:X:X:X:X:X:X:XO ` y   :X:X  g i ; I ; :X:X:X  P t   :X:X:X:X:X:X:X:X:X:X:X:X:X:X:X:X:X:X:X:X:X:X:X:X:X:X",
":X:X:X:X:X:X:X:X:X:X:X:X:X:X:X:X:X:X:X:X:X:X:X:XO a.n   :X:X:X          :X:X:X  P t   :X:X:X:X:X:X:X:X:X:X:X:X:X:X:X:X:X:X:X:X:X:X:X:X:X:X",
":X:X:X:X:X:X:X:X:X:X:X:X:X:X:X:X:X:X:X:X:X:X:X:XO ` y   :X:X:X          :X:X:X  P t   :X:X:X:X:X:X:X:X:X:X:X:X:X:X:X:X:X:X:X:X:X:X:X:X:X:X",
":X:X:X:X:X:X:X:X:X:X:X:X:X:X:X:X:X:X:X:X:X:X:X:XO Y q   :X:X:X          :X:X:X  P t   :X:X:X:X:X:X:X:X:X:X:X:X:X:X:X:X:X:X:X:X:X:X:X:X:X:X",
":X:X:X:X:X:X:X:X:X:X:X:X:X:X:X:X:X:X:X:X:X:X:X:XO Y q   :X:X            :X:X:X  P t   :X:X:X:X:X:X:X:X:X:X:X:X:X:X:X:X:X:X:X:X:X:X:X:X:X:X",
":X:X:X:X:X:X:X:X:X:X:X:X:X:X:X:X:X:X:X:X:X:X:X:XO ` y   :X:X      :X    :X:X:X  P t   :X:X:X:X:X:X:X:X:X:X:X:X:X:X:X:X:X:X:X:X:X:X:X:X:X:X",
":X:X:X:X:X:X:X:X:X:X:X:X:X:X:X:X:X:X:X:X:X:X:X:XO p.n   :X:X      :X    :X:X:X  P t   :X:X:X:X:X:X:X:X:X:X:X:X:X:X:X:X:X:X:X:X:X:X:X:X:X:X",
":X:X:X:X:X:X:X:X:X:X:X:X:X:X:X:X:X:X:X:X:X:X:X:XO a.n   :X:X      :X    :X:X:X  3.n   :X:X:X:X:X:X:X:X:X:X:X:X:X:X:X:X:X:X:X:X:X:X:X:X:X:X",
":X:X:X:X:X:X:X:X:X:X:X:X:X:X:X:X:X:X:X:X:X:X:X6 X.b.n   :X:X      :X    :X:X:X  e.6.D :X:X:X:X:X:X:X:X:X:X:X:X:X:X:X:X:X:X:X:X:X:X:X:X:X:X",
":X:X:X:X:X:X:X:X:X:X:X:X:X:X:X:X:X:X:X:X:X:X:X0 V.g.j   :X:X      :X    :X:X:X  e.c.)   :X:X:X:X:X:X:X:X:X:X:X:X:X:X:X:X:X:X:X:X:X:X:X:X:X",
":X:X:X:X:X:X:X:X:X:X:X:X:X:X:X:X:X:X:X:X:X:X:X9 c.,.y   :X:X      :X  - :X:X:X  <.:.v   :X:X:X:X:X:X:X:X:X:X:X:X:X:X:X:X:X:X:X:X:X:X:X:X:X",
":X:X:X:X:X:X:X:X:X:X:X:X:X:X:X:X:X:X:X:X:X:X:X< ..v.n   :X:X      :X  P :X:X:X:XO c v   :X:X:X:X:X:X:X:X:X:X:X:X:X:X:X:X:X:X:X:X:X:X:X:X:X",
":X:X:X:X:X:X:X:X:X:X:X:X:X:X:X:X:X:X:X:X:X:XB 4.| b.n   :X  b 4   :X  I u :X:X:X  x &.*.O :X:X:X:X:X:X:X:X:X:X:X:X:X:X:X:X:X:X:X:X:X:X:X:X",
":X:X:X:X:X:X:X:X:X:X:X:X:X:X:X:X:X:X:X:X:X  k w.u.M.n   :X  U w   :X  I w   :X:X  J l.a.O :X:X:X:X:X:X:X:X:X:X:X:X:X:X:X:X:X:X:X:X:X:X:X:X",
":X:X:X:X:X:X:X:X:X:X:X:X:X:X:X:X:X:X:X:X:X  j t.V.g.j   :X  U w   :X  s 1   :X:X  X.V.z.B 2 :X:X:X:X:X:X:X:X:X:X:X:X:X:X:X:X:X:X:X:X:X:X:X",
":X:X:X:X:X:X:X:X:X:X:X:X:X:X:X:X:X:X:X:X:X  D B.v.%.q   :X  M 8 :X:X  = O   :X:X  X.V.B.b.9 :X:X:X:X:X:X:X:X:X:X:X:X:X:X:X:X:X:X:X:X:X:X:X",
":X:X:X:X:X:X:X:X:X:X:X:X:X:X:X:X:X:X:X:X:X  D c. .} q   :X  O :X:X:X  S w   :X:X  X.V.b...< :X:X:X:X:X:X:X:X:X:X:X:X:X:X:X:X:X:X:X:X:X:X:X",
":X:X:X:X:X:X:X:X:X:X:X:X:X:X:X:X:X:X:X:X:X  D x.} } q   > Z - :X:X:X  I w   :X:X  X.l.7.z.` q :X:X:X:X:X:X:X:X:X:X:X:X:X:X:X:X:X:X:X:X:X:X",
":X:X:X:X:X:X:X:X:X:X:X:X:X:X:X:X:X:X:X:X:X  k &.u u ;   , } : :X:X:X  I Z w :X:X  F w.9.H f >   :X:X:X:X:X:X:X:X:X:X:X:X:X:X:X:X:X:X:X:X:X",
":X:X:X:X:X:X:X:X:X:X:X:X:X:X:X:X:X:X:X:X:X  3 h         , } : :X:X:X  I } c   :X  q T [ O     :X:X:X:X:X:X:X:X:X:X:X:X:X:X:X:X:X:X:X:X:X:X",
":X:X:X:X:X:X:X:X:X:X:X:X:X:X:X:X:X:X:X:X:X      :X:X:X:X, } : :X:X:X  / ..c   :X        :X:X:X:X:X:X:X:X:X:X:X:X:X:X:X:X:X:X:X:X:X:X:X:X:X",
":X:X:X:X:X:X:X:X:X:X:X:X:X:X:X:X:X:X:X:X:X:X:X:X:X:X:X:X, } : :X:X:X  e.8.c   :X:X:X:X:X:X:X:X:X:X:X:X:X:X:X:X:X:X:X:X:X:X:X:X:X:X:X:X:X:X",
":X:X:X:X:X:X:X:X:X:X:X:X:X:X:X:X:X:X:X:X:X:X:X:X:X:X:X:X6 l.2 :X:X:X  r.9.c   :X:X:X:X:X:X:X:X:X:X:X:X:X:X:X:X:X:X:X:X:X:X:X:X:X:X:X:X:X:X",
":X:X:X:X:X:X:X:X:X:X:X:X:X:X:X:X:X:X:X:X:X:X:X:X:X:X:X5 G B.6 :X:X:X  r.9.c   :X:X:X:X:X:X:X:X:X:X:X:X:X:X:X:X:X:X:X:X:X:X:X:X:X:X:X:X:X:X",
":X:X:X:X:X:X:X:X:X:X:X:X:X:X:X:X:X:X:X:X:X:X:X:X:X:X  t -.B.6 :X:X:X  r.i./ 5 :X:X:X:X:X:X:X:X:X:X:X:X:X:X:X:X:X:X:X:X:X:X:X:X:X:X:X:X:X:X",
":X:X:X:X:X:X:X:X:X:X:X:X:X:X:X:X:X:X:X:X:X:X:X:X:X:X  t -.B.6 :X:X:X  r.V.s.U   :X:X:X:X:X:X:X:X:X:X:X:X:X:X:X:X:X:X:X:X:X:X:X:X:X:X:X:X:X",
":X:X:X:X:X:X:X:X:X:X:X:X:X:X:X:X:X:X:X:X:X:X:X:X:X:X  t -.B.6 :X:X:X  r.V.s.U   :X:X:X:X:X:X:X:X:X:X:X:X:X:X:X:X:X:X:X:X:X:X:X:X:X:X:X:X:X",
":X:X:X:X:X:X:X:X:X:X:X:X:X:X:X:X:X:X:X:X:X:X:X:X:X:X  n c.B.6 :X:X:X  ' g.m.4.  :X:X:X:X:X:X:X:X:X:X:X:X:X:X:X:X:X:X:X:X:X:X:X:X:X:X:X:X:X",
":X:X:X:X:X:X:X:X:X:X:X:X:X:X:X:X:X:X:X:X:X:X:X:X:X:Xw / i.V.A 3 :X:X  I ,.g.r.. :X:X:X:X:X:X:X:X:X:X:X:X:X:X:X:X:X:X:X:X:X:X:X:X:X:X:X:X:X",
":X:X:X:X:X:X:X:X:X:X:X:X:X:X:X:X:X:X:X:X:X:X:X:X:X  v $.9.f.#.w   :X  I =.u.d.7 :X:X:X:X:X:X:X:X:X:X:X:X:X:X:X:X:X:X:X:X:X:X:X:X:X:X:X:X:X",
":X:X:X:X:X:X:X:X:X:X:X:X:X:X:X:X:X:X:X:X:X:X:X:X:X  m w.c.+.} w   :X  I t.M.b.#.5 :X:X:X:X:X:X:X:X:X:X:X:X:X:X:X:X:X:X:X:X:X:X:X:X:X:X:X:X",
":X:X:X:X:X:X:X:X:X:X:X:X:X:X:X:X:X:X:X:X:X:X:X:X:X  o.M.V.m.%.w   :X  I ..q.V.m.+.w   :X:X:X:X:X:X:X:X:X:X:X:X:X:X:X:X:X:X:X:X:X:X:X:X:X:X",
":X:X:X:X:X:X:X:X:X:X:X:X:X:X:X:X:X:X:X:X:X:X:X:X:X  O.3.d d 5 &       I } 8.f.d 6 *       :X:X:X:X:X:X:X:X:X:X:X:X:X:X:X:X:X:X:X:X:X:X:X:X",
":X:X:X:X:X:X:X:X:X:X:X:X:X:X:X:X:X:X:X:X:X:X:X:X:X  R { l ( ( n s w   w P ` K ( l s s t     :X:X:X:X:X:X:X:X:X:X:X:X:X:X:X:X:X:X:X:X:X:X:X",
":X:X:X:X:X:X:X:X:X:X:X:X:X:X:X:X:X:X:X:X:X:X:X:X:X  u N I 2.2./ N h     w t , <.I N N k     :X:X:X:X:X:X:X:X:X:X:X:X:X:X:X:X:X:X:X:X:X:X:X",
":X:X:X:X:X:X:X:X:X:X:X:X:X:X:X:X:X:X:X:X:X:X:X:X:X                                          :X:X:X:X:X:X:X:X:X:X:X:X:X:X:X:X:X:X:X:X:X:X:X"
};
