/* XPM */
static char *d662c39f55e74376fa571a337078c0e5razoQa9Qc5rvPqkc[] = {
/* columns rows colors chars-per-pixel */
"69 69 213 2 ",
"   c None",
".  c #1D2C12",
"X  c #1F3112",
"o  c #1D2C0F",
"O  c #20320F",
"+  c #233512",
"@  c #253918",
"#  c #202E15",
"$  c #0E2C3B",
"%  c #142B35",
"&  c #1B2D35",
"*  c #122B3B",
"=  c #1A2F3C",
"-  c #1C3337",
";  c #16323D",
":  c #1A343C",
">  c #19383B",
",  c #21343A",
"<  c #253B3B",
"1  c #2D471C",
"2  c #2E491A",
"3  c #334B1E",
"4  c #395C1D",
"5  c #344C21",
"6  c #384E27",
"7  c #365023",
"8  c #3A5525",
"9  c #3D5D24",
"0  c #3D5A28",
"q  c #3D6222",
"w  c #435E2B",
"e  c #416124",
"r  c #44682E",
"t  c #4C7532",
"y  c #4C7C37",
"u  c #567E37",
"i  c #496F2F",
"p  c #163541",
"a  c #1A3641",
"s  c #1B3C42",
"d  c #163745",
"f  c #233C44",
"g  c #293F46",
"h  c #273F48",
"j  c #1E4147",
"k  c #1F4D56",
"l  c #214145",
"z  c #24434A",
"x  c #2A4649",
"c  c #264D54",
"v  c #244956",
"b  c #2C565C",
"n  c #2A565C",
"m  c #335B55",
"M  c #33595A",
"N  c #334A4F",
"B  c #2F605F",
"V  c #38655B",
"C  c #2B5463",
"Z  c #285C68",
"A  c #3B5B68",
"S  c #2E626D",
"D  c #2E6163",
"F  c #356463",
"G  c #3B6562",
"H  c #3C6C65",
"J  c #3B636C",
"K  c #3B6C6B",
"L  c #326669",
"P  c #3A7265",
"I  c #386A79",
"U  c #3F7374",
"Y  c #3F7C7A",
"T  c #426C5E",
"R  c #507E47",
"E  c #446B64",
"W  c #437565",
"Q  c #4C7A64",
"!  c #44766A",
"~  c #497867",
"^  c #427B76",
"/  c #4D7C73",
"(  c #44737E",
")  c #48797F",
"_  c #507B79",
"`  c #5B8A36",
"'  c #5A853B",
"]  c #5D893C",
"[  c #568037",
"{  c #608E3E",
"}  c #548D4D",
"|  c #518149",
" . c #5A9346",
".. c #5A9547",
"X. c #4C8553",
"o. c #5B9354",
"O. c #5E945B",
"+. c #508750",
"@. c #628B42",
"#. c #639945",
"$. c #68875B",
"%. c #659E52",
"&. c #649A5B",
"*. c #669B55",
"=. c #6CA44B",
"-. c #68A447",
";. c #72AC4C",
":. c #70A54B",
">. c #78B44D",
",. c #6CA354",
"<. c #6BA256",
"1. c #72AA54",
"2. c #73AA5C",
"3. c #72A158",
"4. c #76B152",
"5. c #7AB352",
"6. c #7EBA52",
"7. c #7DB458",
"8. c #4A806B",
"9. c #558169",
"0. c #568C6C",
"q. c #5B8B6B",
"w. c #568566",
"e. c #5C936A",
"r. c #5C9568",
"t. c #4E8676",
"y. c #4C837A",
"u. c #538A76",
"i. c #55877B",
"p. c #5B8A76",
"a. c #5E9573",
"s. c #609466",
"d. c #63926D",
"f. c #659D6C",
"g. c #6A9F6A",
"h. c #689A63",
"j. c #638A77",
"k. c #618E7C",
"l. c #639675",
"z. c #63927B",
"x. c #699A7E",
"c. c #679A79",
"v. c #6C8D67",
"b. c #69A163",
"n. c #6AA56C",
"m. c #73A56A",
"M. c #74A763",
"N. c #7CB864",
"B. c #6BA277",
"V. c #78A277",
"C. c #80BD49",
"Z. c #83BB53",
"A. c #82BB5A",
"S. c #80B75E",
"D. c #84BE69",
"F. c #82BD76",
"G. c #87B57A",
"H. c #92BD78",
"J. c #86C354",
"K. c #8ACA55",
"L. c #86C259",
"P. c #8AC758",
"I. c #86C24D",
"U. c #88C263",
"Y. c #89C766",
"T. c #93CA6B",
"R. c #95D16B",
"E. c #93C07C",
"W. c #81C073",
"Q. c #3F7481",
"!. c #467480",
"~. c #4D8686",
"^. c #578986",
"/. c #5D9488",
"(. c #498394",
"). c #548E90",
"_. c #659B83",
"`. c #679984",
"'. c #739E85",
"]. c #7AA384",
"[. c #7AA49E",
"{. c #7AA3A1",
"}. c #82AD8A",
"|. c #83A985",
" X c #8BB68D",
".X c #8FBD82",
"XX c #93BC8D",
"oX c #89AD99",
"OX c #8BB592",
"+X c #8FB992",
"@X c #92BA93",
"#X c #96BA93",
"$X c #88A8A6",
"%X c #9ABCAC",
"&X c #94B7A5",
"*X c #9DBBB2",
"=X c #9FBBBA",
"-X c #8FB7A2",
";X c #A3BCB6",
":X c #A5BCBC",
">X c #9AC393",
",X c #A9CAAC",
"<X c #AACAB2",
"1X c #A6C4B7",
"2X c #B5D6B3",
"3X c #B8CFC6",
"4X c #B9D6CA",
"5X c #B4D3D1",
"6X c #AEC5C6",
"7X c #C2D8CC",
"8X c #C2DAD1",
"9X c #D3E5DE",
"0X c #D3E5E2",
/* pixels */
"                                                                                                                                          ",
"                                                                                                                                          ",
"                                                                                                                                          ",
"                                                                                                                                          ",
"                                                                                                                                          ",
"                                                                                                                                          ",
"                                                                                                                                          ",
"                                                                                                                                          ",
"                                                                                                                                          ",
"                                                                                                                                          ",
"                                                                                                                                          ",
"                                                                                                                                          ",
"                                                                                                                                          ",
"                                                                                                                                          ",
"                                                                                                                                          ",
"                                                                                                                                          ",
"                                                          - ; : a > : : > -                                                               ",
"                                                          , a a a ; ; a > -                                                               ",
"                                                          h f s l l j s j z                                                               ",
"                                                - : : a s M U U y.t.t.Y Y F z z s : -                                                     ",
"                                                ; d a s s M U U t.u.t.^ ^ A z z s : ,                                                     ",
"                                            , g A I J E E / u.u.a.l.a.e.e.w.Q Q Q Q E < -                                                 ",
"                                          , : p !.(.~.u.u.p.l.d.g.b.b.b.b.n.f.f.x.B.9.> ; -                                               ",
"                                          g p p !.(.~.i.^.p.l.c.f.g.b.b.b.f.f.g.B.B.9.> ; x                                               ",
"                                      - - J !.!.^.^.$X3X4X1X&X@X|.V.v.3.2.N.D.D. X X'.H G M : -                                           ",
"                                      > a I (.(.^.^.$X0X0X3X;X;X|.V.G.S.2.D.Y.T..X@X].! ! V ; :                                           ",
"                                      j j I ).(.[.$X%X4X7X<X>X#Xv.Q $.A.A.A.D.D.>X,XoXE P F j f                                           ",
"                                      C Z !.).).5X9X7X;X;XE.J.Z.w 1 e R.R.D.4.Z.2X9X1XH P G m m                                           ",
"                                      b C ) ).).5X9X8X;X:XE.I.Z.4 1 w T.R.D.>.S.2X9X1XE H G m m                                           ",
"                                & % N / t.^././.1X3X<XH.H.3.` ` 2 @ 3 @.@.:.Z.S..X#XOX'.x.p.V T x & &                                     ",
"                                * * f `.x._._._.%X;X#XC.6.` 4 9 + # + 6 8 ' Z.A.1.*.m.@X#X'.Q Q > ; ;                                     ",
"                                * * s `.`.`._._.-X*XXXZ.6.` q 9 + . @ 8 8 ' Z.A.1.%.M.+X X'.Q ~ f ; ;                                     ",
"                                % $ s ^.^.`.`.`.b.,.2.P.K.` 8 7 O . X 2 3 [ L.U.5.;.<.d.d.9.~ ~ s ; ;                                     ",
"                                % $ j ~.~.`.`.B.%.{ :.K.K.] 7 7 + . . 1 2 [ L.L.5.;.3.0.q.9.! ~ s ; ;                                     ",
"                                $ $ s y.y.^.z.z.&.#.:.J.K.' 7 7 o . X 5 3 u J.J.5.;.3.s.s.w.P ! s = ;                                     ",
"                                * $ p S S 8.r.r.&.%.-.;.;.t 3 3 O o + w r ] 6.6.-...<.W.F.B.K K s = ;                                     ",
"                                * * ; Z S / r.r.&.,.-.;.;.t 5 3 + o + w w { 6.6.-...1.W.W.n.K K s = =                                     ",
"                                % * a c v q.B.V.&.O.%.-.:.{ [ u 1 @ 3 ] @.#.>.;.M.m.m.n.n.q.b b l ; :                                     ",
"                                      : : j.@X+X&.o.o.<.%.4.J.Z.q 3 e L.I.>.-.:.V.@X].0.e.T a :                                           ",
"                                      a ; j.+XOXh.O.O.%.%.4.6.6.q 3 q J.J.>.:.:..X@X X0.0.T ; :                                           ",
"                                      * ; J ~.i.%X<X@XO.} o...-.i r t -.#.M.G.G.<X7X%XG D b ; ;                                           ",
"                                      * * C Q.I 5X0X<XX.+.}  . .y t y  . .m.+X@X4X0X1Xn n v ; &                                           ",
"                                      = * C Z Z $X:XoXX.X.+.} } | R R O.O.n.|.}.;X6X$Xv k v : &                                           ",
"                                          s $ $ c C B W P X.w.w.j.p.z.`.x.l.j.q._ !.A p ; ,                                               ",
"                                          g * * v Z Z P ! 9.9.9.a.k.`._.c.l.q.q._ ( A ; ; <                                               ",
"                                            ; h z v c V V V W Q a.l.a.u.y./ W T G A A f -                                                 ",
"                                                % * ; > ; c b D e.b.a.F S v d a p = =                                                     ",
"                                                % $ ; : > x M B s.b.r.H L n a a = = &                                                     ",
"                                                          f ; d s s s p p s                                                               ",
"                                                          & * * * * * * * %                                                               ",
"                                                          % * * $ * * * $ *                                                               ",
"                                                                                                                                          ",
"                                                                                                                                          ",
"                                                                                                                                          ",
"                                                                                                                                          ",
"                                                                                                                                          ",
"                                                                                                                                          ",
"                                                                                                                                          ",
"                                                                                                                                          ",
"                                                                                                                                          ",
"                                                                                                                                          ",
"                                                                                                                                          ",
"                                                                                                                                          ",
"                                                                                                                                          ",
"                                                                                                                                          ",
"                                                                                                                                          ",
"                                                                                                                                          ",
"                                                                                                                                          ",
"                                                                                                                                          "
};
