/* XPM */
static char *_7d221f89b5641c2f321c20b52a9dec5Ds3smsSegMRjgqwJ[] = {
/* columns rows colors chars-per-pixel */
"69 69 241 2 ",
"   c None",
".  c #1C2C0D",
"X  c #1D2C12",
"o  c #1E3012",
"O  c #1C310C",
"+  c #273D18",
"@  c #202D16",
"#  c #0E2C3B",
"$  c #0C2C37",
"%  c #132B35",
"&  c #1A2C34",
"*  c #122B3B",
"=  c #1B2F3B",
"-  c #162735",
";  c #153436",
":  c #1B3335",
">  c #16333C",
",  c #1A343C",
"<  c #17393C",
"1  c #103533",
"2  c #213237",
"3  c #212D34",
"4  c #2E451C",
"5  c #2E4A1B",
"6  c #2B4814",
"7  c #334C1C",
"8  c #324919",
"9  c #2E5214",
"0  c #35561B",
"q  c #27480D",
"w  c #2D4723",
"e  c #344B22",
"r  c #364B25",
"t  c #355323",
"y  c #3A5324",
"u  c #3C5828",
"i  c #3C6225",
"p  c #3D631E",
"a  c #425E2C",
"s  c #415826",
"d  c #465E32",
"f  c #43622B",
"g  c #4B7734",
"h  c #466137",
"j  c #0E2B43",
"k  c #162C40",
"l  c #163541",
"z  c #1A3541",
"x  c #1A3A43",
"c  c #1C3E4C",
"v  c #143942",
"b  c #163B4E",
"n  c #233F49",
"m  c #1C434C",
"M  c #1E4758",
"N  c #24444A",
"B  c #264A4B",
"V  c #29524C",
"C  c #315B4D",
"Z  c #234B52",
"A  c #2A4D54",
"S  c #284B58",
"D  c #2B5354",
"F  c #2C545C",
"G  c #29595A",
"H  c #325A55",
"J  c #32545B",
"K  c #315B5C",
"L  c #355756",
"P  c #314F58",
"I  c #3A665A",
"U  c #3D6E4F",
"Y  c #2C5563",
"T  c #275965",
"R  c #335C64",
"E  c #2D616B",
"W  c #3C6E65",
"Q  c #32636C",
"!  c #3B6D6B",
"~  c #376664",
"^  c #3B7264",
"/  c #3B7368",
"(  c #3C6C74",
")  c #356C78",
"_  c #3E7374",
"`  c #3E7B79",
"'  c #2D6270",
"]  c #1F5865",
"[  c #44785B",
"{  c #4C7351",
"}  c #4C5F66",
"|  c #476A65",
" . c #497665",
".. c #4B7963",
"X. c #44756B",
"o. c #42796B",
"O. c #497669",
"+. c #467877",
"@. c #547578",
"#. c #4F6F6F",
"$. c #4A5C5C",
"%. c #5B873B",
"&. c #5A953C",
"*. c #65983C",
"=. c #71AF3C",
"-. c #4D854B",
";. c #4F8B4A",
":. c #568B47",
">. c #5B9544",
",. c #5A9447",
"<. c #4C8455",
"1. c #588B57",
"2. c #5C9253",
"3. c #599259",
"4. c #669847",
"5. c #659D53",
"6. c #659C5C",
"7. c #659955",
"8. c #699149",
"9. c #6BA34A",
"0. c #6AA447",
"q. c #73AC4B",
"w. c #73AB4A",
"e. c #7AB74B",
"r. c #69A256",
"t. c #74AC53",
"y. c #75A757",
"u. c #7BB453",
"i. c #7DBA53",
"p. c #7AB557",
"a. c #5A8A65",
"s. c #54826B",
"d. c #558D6D",
"f. c #5B8B6B",
"g. c #568568",
"h. c #5B9364",
"j. c #59906B",
"k. c #4E8576",
"l. c #538973",
"z. c #5C8B72",
"x. c #52887C",
"c. c #588878",
"v. c #5D9275",
"b. c #4C836E",
"n. c #649C6D",
"m. c #6B9E6A",
"M. c #679869",
"N. c #618D7C",
"B. c #628C72",
"V. c #629474",
"C. c #659B73",
"Z. c #63937B",
"A. c #659A7B",
"S. c #6B9C7C",
"D. c #6A9B73",
"F. c #7B9E7A",
"G. c #6AA164",
"H. c #67A16C",
"J. c #68A268",
"K. c #76A867",
"L. c #6CA17A",
"P. c #7AA577",
"I. c #7CB66D",
"U. c #7FC075",
"Y. c #83BE3B",
"T. c #87C53E",
"R. c #82BC4B",
"E. c #83BD54",
"W. c #84BD5A",
"Q. c #85BA59",
"!. c #819E7B",
"~. c #86BA64",
"^. c #84BD78",
"/. c #84A96D",
"(. c #83C14C",
"). c #88C249",
"_. c #85C354",
"`. c #89C354",
"'. c #8CCC54",
"]. c #88C55B",
"[. c #8BC867",
"{. c #92CA69",
"}. c #96D26B",
"|. c #88C475",
" X c #97CD72",
".X c #356C81",
"XX c #487482",
"oX c #557E88",
"OX c #4A7F95",
"+X c #4D8983",
"@X c #4C828B",
"#X c #488289",
"$X c #55898A",
"%X c #5C9287",
"&X c #4A8293",
"*X c #478396",
"=X c #568D91",
"-X c #638C82",
";X c #668A89",
":X c #659C84",
">X c #6A9B83",
",X c #659B8A",
"<X c #659786",
"1X c #749989",
"2X c #7CA784",
"3X c #7BA996",
"4X c #8DBB8C",
"5X c #88B689",
"6X c #92BA88",
"7X c #84AD91",
"8X c #8EB993",
"9X c #8EB798",
"0X c #91B993",
"qX c #94B799",
"wX c #82AD8A",
"eX c #9BBCB0",
"rX c #A2BEA8",
"tX c #A2BCB2",
"yX c #A1BBBB",
"uX c #99C292",
"iX c #9DC2A6",
"pX c #9CC2B4",
"aX c #A9C8B1",
"sX c #A2C488",
"dX c #9EBBC1",
"fX c #A2B8C5",
"gX c #ACC6C6",
"hX c #B7D5C9",
"jX c #B9D6D1",
"kX c #B3CCCD",
"lX c #C4DBCC",
"zX c #CDEBDC",
"xX c #CBEED7",
"cX c #D4E6DD",
"vX c #D1E8DC",
"bX c #D4E9D5",
"nX c #CAE6CD",
"mX c #CBEBE6",
"MX c #D5E6E3",
"NX c #D6E4E7",
"BX c #D6E1F1",
/* pixels */
"                                                      , < < > > z z > , : : , , ; :                                                       ",
"                                                      : > > < l z z , > , < < < < ;                                                       ",
"                                                      , > > < < = l l z z z > > < ;                                                       ",
"                                                      2 z > < , > z > z > = z , , ,                                                       ",
"                                                      = z z , , , : > < > , > z < <                                                       ",
"                                                    } N S S A A L D H C L A A S D G A                                                     ",
"                                2 : < , z , z z z < D +.+.) _ +.x.k.k.l.k.` +.` ` XXJ N N N N n , , < : :                                 ",
"                                2 , < z , x < x 2 x D X._ _ _ o.k.k.k.k.k.b.` ` +.+.R B N N N N < < > , ,                                 ",
"                                2 > l z z z x z z z S +._ _ _ +.x.x.k.k.x.+.+.` ` +.K N N N N n < , , , 2                                 ",
"                                , l x l z z v z x x S +.X._ _ o.k.l.l.l.x.o.o.` o.+.H N N N N m < ; < : 2                                 ",
"                              @.P F Y F J L L L L L ~ @.k.k.k.b.v.v.v.j.v.d.d.d.d.z. .I I I I I I H I H | $.                              ",
"                      2 2 2 , : oX&X&XOX@X+Xc.c.c.c.v.Z.Z.v.v.n.L.H.H.H.H.n.n.H.n.H.D.n.C.C.A.A.L.S.1X>Xz.; : > , :                       ",
"                      2 z z z < oX*X*X&X#X+Xl.z.c.l.z.V.n.n.V.M.H.J.G.J.G.G.G.r.r.H.n.n.n.n.H.H.L.L.L.L.z.1 : > x ,                       ",
"                      = z z l l OXOX*X*X@X+Xl.l.x.c.v.v.n.V.V.V.H.n.m.m.G.m.m.r.G.G.n.n.n.n.v.H.L.L.S.2XB.1 , < z 2                       ",
"                      z l v l l oXOX&X&X+X+Xc.$X+X$X%Xv.V.C.V.D.m.m.H.m.m.G.m.G.m.H.n.C.h.H.v.H.2XL.S.1XB.: > l z ,                       ",
"                    #.v v v v v oX$X&X&X+.$X@.N.c.c.v.A.V.D.Z.Z.D.D.m.K.m.G.r.r.r.m.m.r.J.H.r.J.>XL.H.L.z.1 v > ; : @.                    ",
"            2 2 2 & J oX@X$XoXoX;X;X$X=X;XhXxXzXzXzXhXpXpXpXeXqX!.F.F.2X2XK.K.y.t.K.|.|.|.^. X|.9X9X9X9XwX .+.+.#.@.B 3 2 & 2             ",
"            : : x > Y &X*XOXOX$X=X;XB.%X;XlXBXmXMXcXhXeXpXrXrXqX!.!.!.F.P.K.t.t.t.t.[.[.{.{.{.|.9XqXqXqX3X .| X.X.X.V < < , ,             ",
"            < < > z F &X*X*XOXOX=X<XN.-X-XjXBXBXNXcXlXtXtXtXtXqXP./.P.!.P.K.y.p.t.t.I.[.{.[.{.{.8X0X4X0X7XO.o.` X.X.V l < l :             ",
"            < < l l Y OX*XOXOX*X;X;Xc.-X-XjXcXcXMXNXlXyXyXfXgXeX2XF.P.F.P.K.y.y.t.K.[.[.[.|.].|.4X4X4X0XwX../ o./ O.D , z , ,             ",
"            v v v l Y OX*X#X#X#X;XoX;X;X;XlXbXbXcXMXhXrXrXrXqXqX1XwX!.!.!.y.p.w.p.t.U.[.[.|.[.{.9X0X0XqX7X ./ / / X.V , > > :             ",
"            P D F F ( =X+X=X=X%XjXlXjXlXlXaXfXaXgXaXuX^.'.Q././.s y s s s p.{.{.[.[.].e.u.Q.R.^.lXnXlXlXaX| ^ ^ ^ W R P D D D             ",
"            Y Y Y Y ` =X=X=X=X%XmXBXBXbXbXgXfXrXfXyXsXT.R.`.Q.Q.6 r + + 6 ~.}.}.}.}.[.t.t.u.Q.~.mXmXNXvXhX| ! ^ ^ ^ K L H H L             ",
"            Y Y T G ) =X=X=X=X=XmXNXNXbXbXgXrXsXrXtX6X).E.`.R.R.6 + r r 6 I.}.}.}. Xi.u.u.t.R.~.mXNXNXcXhX| ! ~ ^ W I L K K L             ",
"            J Y K Y ( =X=X=X=X=XvXMXMXvXvXgXfXtXfXdX6X).T.).).w.q 8 4 4 6 Q. X{.}. X~.u.q.u.p.^.MXcXcXbXgX| W W ^ W I F H K L             ",
"            K F F G X.=X=X=X=X=XmXbXvXMXcXaXyXyXyXdX0X].'.).`.y.q 4 4 4 6 ~. X}. X X].u.u.t.p.~.MXcXcXbXaX| W W ^ I ~ H H C L             ",
"          ;XX.X.| +.+.,X%X%X=X%XjXlXlXjXhXrXsX^.6X0XI.*.*.*.*.:.q + + 4 + 8.y.9.9.y.y.R.i.p.p.~.aXaXaXiXiXB.N.B.z.v.O.I I I I $.          ",
"& - - * & L <X<X,X,X,X,X,X,X,X,XpXtXaXtXrX^.Y.R.Y.Q.*.p f s p u O X @ O . y 0 y 0 0 4.W.i.].~.p.m.9.M.M.K.0XqX9X0X9XZ.O.......V & , & % & ",
"* # # * % L <XA.>X<X:X:X:X:X:X,XeXtXtXyXiX~.R.e.Y.e.*.i 0 i a y o @ @ o O r u u u y 8.Q.E.~.~.i.6.9.2.r.G.0X0X0X0X0XD... .....V > > > > > ",
"* j j * % L >XA.A.A.A.:X:X:X:X,XpXyXyXyXiXQ.E.Q.e.(.*.i u a a u @ @ @ @ o r s u u u 4.W.E.i.W.Q.r.9.5.r.K.8X8X4X6X0XZ... . ...B > l > > > ",
"% * # j % L :X:X>XA.<X:X:X:X:X,XiXeXpXpXiX~.R.E.).T.&.i f f f y O @ @ X o r u u u u 4.i.E.W.W.p.5.5.6.5.G.0X9X0X0X0XZ... ...#.V = k = > * ",
"% * # k - L %X<X<X<X<X:X:X:X:X:X4X8XqX0X6X~.).E.e.T.*.i u s 0 y O @ X X o r y r y t 8._.W.E.W.Q.9.9.9.r.y.wX7XwXwX7XB. . ...#.V > l * > > ",
"% % # * * D x.x.x.x.%X,X>X>X>XA.2.5.4.2.7._.'.'.'.'.4.t y 7 r r O . X X . + 4 w 8 5 8.]._.].].Q.q.t.t.t.r.1.z.f.a.f.g.....X.O.V > > = > > ",
"- * # # # G +X+X#Xx.%X,X>X>X>XA.5.4.*.4.,._.'.[.'.'.4.t y t r w . . . X . + 4 w 8 5 *.W.].W.].W.q.q.q.q.y.1.g.f.a.@.@.O. . .O.B > k > * > ",
"- % # * $ D +X+X+X+X%X<X>X>X>XD.,.4.&.*.>.(.'.[.'.'.4.t r y u r . . . X X + 5 w 8 8 8.].].`.].E.e.q.q.t.y.a.g.f.a.f...O.X.X.O.A > > > * > ",
"- # # # # D +X+X+Xx.%X,X>X<X>XS.5.>.>.0.>.(.'.'.'.'.4.t r y r r . . X . X w w w 4 4 >.].`.].].Q.q.q.q.t.r.1.f.f.a.a...#.X.X.O.B ; k > > = ",
"k j # * $ D +X+X+X+X%X<XA.>X>XD.2.2.,.5.4._.'.].'.'.4.0 s r r r . . X X . w w w 8 9 8.]._.`.]._.q.t.u.t.r.3.z.d.a.h...X.X.X.X.B ; > > = > ",
"* # $ # $ M ) Q Q ! X.V.V.V.B.M.r.5.r.9.4.q.u.q.e.e.%.9 + s r + . X X @ X t u u s s 4.i.E.E.R.e.4.4.>.0.r.I.I.I.I.P.d./ / / / V # = > > > ",
"k * * % - m E ' E E X.f.h.j.j.h.r.r.5.,.0.w.w.q.w.w.%.9 s r s + . . . . . y f f a f 4.i.i.i.i.u.&.>.>.>.5.|.I.|.U.2Xd.W W W W N > = = z = ",
"k * * * * m E ' ' E / j.h.h.h.h.6.2.r.9.4.w.t.w.w.w.%.9 + s 8 8 . . . . O s f d d f 4.e.i.i.i.t.>.>.4.>.5.U.U.I.U.uXj.! ! ! ! Z = = k > k ",
"* * $ % * c T ' T Q / j.h.h.h.3.6.5.5.5.5.q.w.w.q.y.%.7 e e 7 r . @ @ . . 7 a a h f 4.R.i.e.(.e.>.,.>.>.r.U.|.U.U.U.h.! / ! ! M > = > > > ",
"- - $ = % m Q Q Q Q X.j.h.h.h.M.3.r.5.5.5.q.=.0.q.y.%.9 7 9 7 8 X X X . . s s f f f 4.i.i.e.i.e.4.4.,.4.5.|.U.U.U.U.j.! ! ! ! m > & > % > ",
"          m M m Z N | 2XP.2X2X2X6.2.7.2.2.5.0.0.9.9.9.>.4.*.8.g 6 4 + + + 8.9.4.9.4.9.w.q.w.q.y.K.I.P.I.P.H.H.H.H.L.U Z Z Z D K           ",
"            : x z < | 9X0X0X9X8X1.1.2.2.2.5.r.r.5.9.t.].E.R.E.y.9 8 r 7 6 Q.'.`.).`.e.0.9.0.9.y.4X0X8X8X7Xv.d.d.d.v.H x x x 2             ",
"            , x 2 < | qXqXqXqX8X1.2.1.3.3.5.5.r.r.5.q.i.E.(.E.w.6 7 e 7 9 t.].`.`.].q.=.0.*.4.y.4X0X9X8X7Xz.d.d.d.z.L z z , ,             ",
"            z z z < { qX0X6X6X6X2.,.3.3.,.5.r.5.5.5.q.i.(.).E.y.9 7 e 7 7 w.].`.'.`.e.0.0.=.0.y.6X4X0X8X5Xj.d.d.f.f.C z z z 2             ",
"            z z z : | qX0X6X6X4X1.2.3.3.,.5.5.5.r.9.t.i.R._.i.t.9 9 e 7 9 w.].`._.].e.0.0.0.0.y.6X4X0X0X7Xj.j.d.d.z.C , z z z             ",
"            z z > , R 3X3X3X3X3XL.L.P.L.L.5.5.5.r.2.t.p.u.u.u.r.0 0 t t 0 w.Q.Q.i.i.y.K.y.y.y.P.uXrXrXrX9Xs.b.b.b.@.D z z , ,             ",
"            % % $ $ M ( ( ) ( ! mXxXxXvXxXM.-.-.-.-.:.>.&.&.&.%.g g g g g :.&.&.&.,.K.uX6X6X6XuXzXzXMXzXgXD G G G D c = > > >             ",
"            % # % # S .X) .X.X( mXmXMXNXxXM.-.-.-.-.;.:.>.&.;.%.g g g g g :.:.>.:.2.K.8X8X0X0XrXvXNXMXMXkXJ T ] ] G m * > * ,             ",
"            % # % # M .X.X) ) ) mXNXNXNXbXD.-.-.<.-.;.:.:.:.:.:.g g g g g :.>.>.>.,.P.4X8X8X0XrXzXMXMXcXgXY T ] G F c > > > %             ",
"            % = * j M ) ) ) ) ) NXMXcXNXxXM.-.-.-.-.;.,.>.>.:.:.g g g g g :.,.,.,.;.P.4X8X8X0XrXzXMXcXMXkXF G T ] D c = = & ,             ",
"            - 3 = - Y E ' ' ' E gXkXkXgXaXh.<.-.<.<.<.3.;.2.1.;.{ { %.{ { 2.2.3.3.3.P.wX5XwXwXqXkXkXkXkXyXS S S G S n = = 3 3             ",
"                    } $ $ j j $ Y F Y F G ^ ^ [ [ ^ <.<.<.<.1.a.6.f.f.n.B.D.D.C.L.A.V.f.z.f.f.c.@.@.XX@.} = k l # %                       ",
"                      % $ # $ j Y T T T E / o.o.o.o...s.s.s.s.g.N.N.N.-X-X<X<X<X:X>XZ.B.z.f.f.c.+.XXXXXX} k z l > ;                       ",
"                      * # # # # S T ] ] G / ^ o.o.O...s.s.g...g.N.N.N.<XN.<X>XA.:X>XV.f.f.f.f.c.+.XXXXXX) k k > ; :                       ",
"                      * * # * * J Y T ] G ! o.o.o.O...s.s.g.s.f.V.N.Z.v.<XA.A.:XA.A.V.f.f.j.f.l.+.+.XXXX( > , > ; % |                     ",
"                      & * = % $ J Y Y Y G |  . .O.O.O.b.b.s.s.g.z.V.v.v.v.Z.>X:X,X:Xv.z.z.f.z.c.@.XX@.XX| % & & & =                       ",
"                              oXz b b b v B V V V V H ^ I I I ^ A.C.C.C.V.k.o.+.+.+.W H L C C L S S P P R }                               ",
"                                & * k # # v ; < < < N K K K G U H.G.r.H.H.X.~ Q Q Q M z < x z z k k k = =                                 ",
"                                & % # * * l x 2 , < N R K T E I H.H.J.H.L./ ~ Q Q Q S x x z x z > > * = 2                                 ",
"                                & * % * * < z z < < m K T G I U H.J.r.G.H./ ~ ~ Q ' M l z x , x = > > = 2                                 ",
"                                & - - % % < z z , : N K T I C U L.J.r.J.H.^ ~ E Q Q Z z , < , , % , > & 3                                 ",
"                                  |                 @.c m m m m H C C C C m m m m n R                                                     ",
"                                                      & $ j j j # # # # # $ * j * %                                                       ",
"                                                      & - j * * % # $ - # # * k * %                                                       ",
"                                                      - * j - * # % # % # * * * * *                                                       ",
"                                                      & * * * * % * * * * * * % # *                                                       ",
"                                                      % j # * * * * * # * * * % # %                                                       "
};
