/* XPM */
static char *result[] = {
/* columns rows colors chars-per-pixel */
"69 69 231 2 ",
"   c black",
".  c #010001",
"X  c #000101",
"o  c #010101",
"O  c #010102",
"+  c #010103",
"@  c #000303",
"#  c #020202",
"$  c #030203",
"%  c gray1",
"&  c #030304",
"*  c #040304",
"=  c #000404",
"-  c #000505",
";  c #000606",
":  c #040404",
">  c #040405",
",  c #050405",
"<  c #050506",
"1  c #050507",
"2  c #060506",
"3  c #060507",
"4  c #060607",
"5  c #070607",
"6  c #060608",
"7  c #070608",
"8  c #070708",
"9  c #070709",
"0  c #07070A",
"q  c #080709",
"w  c #08060A",
"e  c #08070A",
"r  c #09070A",
"t  c #0C000C",
"y  c #000E0E",
"u  c #080809",
"i  c #090809",
"p  c #08080A",
"a  c #09080A",
"s  c #08080B",
"d  c #09080B",
"f  c #0A090B",
"g  c #09090C",
"h  c #0A090C",
"j  c #0A0A0C",
"k  c #0B0A0C",
"l  c #0A0A0D",
"z  c #0A0A0E",
"x  c #0B0B0E",
"c  c #0B0B0F",
"v  c #0C0B0D",
"b  c #0C0B0E",
"n  c #0D0B0E",
"m  c #0C0B0F",
"M  c #0D0C0E",
"N  c #0C0C0F",
"B  c #0D0C0F",
"V  c #0E0C0F",
"C  c #0E0D0F",
"Z  c #0C0C10",
"A  c #0D0C10",
"S  c #0D0D10",
"D  c #0D0D11",
"F  c #0F0D10",
"G  c #0E0D11",
"H  c #0F0E11",
"J  c #0D0D12",
"K  c #0E0E12",
"L  c #0E0E13",
"P  c #0F0F14",
"I  c #150015",
"U  c #100E11",
"Y  c #100E12",
"T  c #100F12",
"R  c #110F12",
"E  c #100F13",
"W  c #110F13",
"Q  c #110D15",
"!  c #1B001B",
"~  c #001313",
"^  c #0D1013",
"/  c #081517",
"(  c #0A1416",
")  c #041718",
"_  c #001818",
"`  c #001A1A",
"'  c #011D1D",
"]  c #001E1E",
"[  c #001F1F",
"{  c #09191A",
"}  c #111013",
"|  c #101014",
" . c #111014",
".. c #101015",
"X. c #121014",
"o. c #131115",
"O. c #111116",
"+. c #111117",
"@. c #131116",
"#. c #121217",
"$. c #141216",
"%. c #141317",
"&. c #151317",
"*. c #121218",
"=. c #131218",
"-. c #131319",
";. c #141318",
":. c #151318",
">. c #141319",
",. c #151319",
"<. c #14131A",
"1. c #141419",
"2. c #151419",
"3. c #161419",
"4. c #14141A",
"5. c #15141A",
"6. c #14141B",
"7. c #16141A",
"8. c #16151A",
"9. c #17151B",
"0. c #17111C",
"q. c #15151C",
"w. c #16161C",
"e. c #17161C",
"r. c #16161D",
"t. c #17161D",
"y. c #17171E",
"u. c #17171F",
"i. c #19141D",
"p. c #18161C",
"a. c #18171D",
"s. c #18171E",
"d. c #19171E",
"f. c #19181E",
"g. c #18181F",
"h. c #19181F",
"j. c #161026",
"k. c #181820",
"l. c #191820",
"z. c #191920",
"x. c #1A1920",
"c. c #1A1921",
"v. c #1B1A21",
"b. c #1A1A22",
"n. c #1B1A22",
"m. c #1B1B23",
"M. c #1B1B24",
"N. c #1C1B24",
"B. c #1C1C24",
"V. c #1C1C25",
"C. c #1D1C25",
"Z. c #1D1D25",
"A. c #1C1C26",
"S. c #1D1D26",
"D. c #1E1D27",
"F. c #1E1E27",
"G. c #1E1E28",
"H. c #1F1F28",
"J. c #1F1F29",
"K. c #2D002D",
"L. c #2C042D",
"P. c #260C2A",
"I. c #23182B",
"U. c #201F2A",
"Y. c #211E2B",
"T. c #231E2D",
"R. c #241E2D",
"E. c #251D2E",
"W. c #300030",
"Q. c #320032",
"!. c #281D32",
"~. c #291D32",
"^. c #2D1B35",
"/. c #2E1A37",
"(. c #2B1D34",
"). c #39113E",
"_. c #301939",
"`. c #301A38",
"'. c #33193B",
"]. c #002828",
"[. c #002929",
"{. c #002E2E",
"}. c #0F2E3E",
"|. c #003030",
" X c #003F3F",
".X c #3E0E43",
"XX c #3A1641",
"oX c #3C1643",
"OX c #3F1546",
"+X c #222648",
"@X c #400140",
"#X c #440245",
"$X c #4B024C",
"%X c #4D044F",
"&X c #48134E",
"*X c #520F57",
"=X c #4D1252",
"-X c #491751",
";X c #4D1553",
":X c #55155C",
">X c #5E0560",
",X c #5B1361",
"<X c #660266",
"1X c #650968",
"2X c #621268",
"3X c #6E0570",
"4X c #770477",
"5X c #740776",
"6X c #004040",
"7X c #004141",
"8X c #004848",
"9X c #024A4A",
"0X c #005454",
"qX c #085052",
"wX c #005959",
"eX c #005F5F",
"rX c #006262",
"tX c #006A6A",
"yX c #006C6C",
"uX c #006D6D",
"iX c #007474",
"pX c #007B7B",
"aX c #007F7F",
"sX c #8D0A90",
"dX c #970498",
"fX c #9C079E",
"gX c #A305A5",
"hX c #A505A7",
"jX c #AC04AD",
"kX c #008080",
"lX c None",
/* pixels */
"lXlXlXlXlXlXlXlXlXlXlXlXlXlXlXlXlXlXlXlXlXlXlXlXlXlXlXlXlXlXlXlXlXlXlXlXlXlXlXlXlXlXlXlXlXlXlXlXlXlXlXlXlXlXlXlXlXlXlXlXlXlXlXlXlXlXlXlXlX",
"lXlXlXlXlXlXlXlXlXlXlXlXlXlXlXlXlXlXlXlXlXlXlXlXlXlXlXlXlXlXlXlXlXlXlXlXlXlXlXlXlXlXlXlXlXlXlXlXlXlXlXlXlXlXlXlXlXlXlXlXlXlXlXlXlXlXlXlXlX",
"lXlXlXlXlXlXlXlXlXlXlXlXlXlXlXlXlXlXlXlXlXlXlXlXlXlXlXlXlXlXlXlXlXlXlXlXlXlXlXlXlXlXlXlXlXlXlXlXlXlXlXlXlXlXlXlXlXlXlXlXlXlXlXlXlXlXlXlXlX",
"lXlXlXlXlXlXlXlXlXlXlXlXlXlXlXlXlXlXlXlXlXlXlXlXlXlXlXlXlXlXlXlXlXlXlXlXlXlXlXlXlXlXlXlXlXlXlXlXlXlXlXlXlXlXlXlXlXlXlXlXlXlXlXlXlXlXlXlXlX",
"lXlXlXlXlXlXlXlXlXlXlXlXlXlXlXlXlXlXlXlXlXlXlXlXlXlXlXlXlXlXlXlXlXlXlXlXlXlXlXlXlXlXlXlXlXlXlXlXlXlXlXlXlXlXlXlXlXlXlXlXlXlXlXlXlXlXlXlXlX",
"lXlXlXlXlXlXlXlXlXlXlXlXlXlXlXlXlXlXlXlXlXlXlXlXlXlXlXlXlXlXlXlXlXlXlXlXlXlXlXlXlXlXlXlXlXlXlXlXlXlXlXlXlXlXlXlXlXlXlXlXlXlXlXlXlXlXlXlXlX",
"lXlXlXlXlXlXlXlXlXlXlXlXlXlXlXlXlXlXlX                              lXlXlXlXlXlXlXlXlXlXlXlXlXlXlXlXlXlXlXlXlXlXlXlXlXlXlXlXlXlXlXlXlXlXlX",
"lXlXlXlXlXlXlXlXlXlXlXlXlXlXlXlXlXlXlX  q S P P P P P P P P P P g   lXlXlXlXlXlXlXlXlXlXlXlXlXlXlXlXlXlXlXlXlXlXlXlXlXlXlXlXlXlXlXlXlXlXlX",
"lXlXlXlXlXlXlXlXlXlXlXlXlXlXlXlXlXlXlXo R n.J.J.J.J.J.J.J.J.J.J.*.  lXlXlXlXlXlXlXlXlXlXlXlXlXlXlXlXlXlXlXlXlXlXlXlXlXlXlXlXlXlXlXlXlXlXlX",
"lXlXlXlXlXlXlXlXlXlXlXlXlXlXlXlXlXlXlXo R n.J.J.J.E.~.(.!.J.J.T.0.  lXlXlXlXlXlXlXlXlXlXlXlXlXlXlXlXlXlXlXlXlXlXlXlXlXlXlXlXlXlXlXlXlXlXlX",
"lXlXlXlXlXlXlXlXlXlXlXlXlXlXlXlXlXlXlXo R n.J.J.Y.1XdXjXsXJ.J.*X#X  lXlXlXlXlXlXlXlXlXlXlXlXlXlXlXlXlXlXlXlXlXlXlXlXlXlXlXlXlXlXlXlXlXlXlX",
"lXlXlXlXlXlXlXlXlXlXlXlXlXlXlXlXlXlXlXo R n.J.J.U.XX;X:X-XJ.J.'.P.  lXlXlXlXlXlXlXlXlXlXlXlXlXlXlXlXlXlXlXlXlXlXlXlXlXlXlXlXlXlXlXlXlXlXlX",
"lXlXlXlXlXlXlXlXlXlXlXlXlXlXlXlXlXlXlXo R n.J.F.x.*.O.y.V.O.V.r.l   lXlXlXlXlXlXlXlXlXlXlXlXlXlXlXlXlXlXlXlXlXlXlXlXlXlXlXlXlXlXlXlXlXlXlX",
"lXlXlXlXlXlXlXlXlXlXlXlXlXlXlXlXlXlXlXo R n.J.V.$.l 6 A -.< <.N %   lXlXlXlXlXlXlXlXlXlXlXlXlXlXlXlXlXlXlXlXlXlXlXlXlXlXlXlXlXlXlXlXlXlXlX",
"lXlXlXlXlXlXlXlXlXlXlXlXlXlXlXlXlXlXlXo R v.H.C.:.S.d.M 3 %.< B b   lXlXlXlXlXlXlXlXlXlXlXlXlXlXlXlXlXlXlXlXlXlXlXlXlXlXlXlXlXlXlXlXlXlXlX",
"lXlXlXlXlXlXlXlXlXlXlXlXlXlXlXlXlXlXlXo R :.x.H.S.J.F.V.M.S.M.V.+.  lXlXlXlXlXlXlXlXlXlXlXlXlXlXlXlXlXlXlXlXlXlXlXlXlXlXlXlXlXlXlXlXlXlXlX",
"lXlXlXlXlXlXlXlXlXlXlXlXlXlXlXlXlXlXlX  2 7 d x x x x x x x x x 6   lXlXlXlXlXlXlXlXlXlXlXlXlXlXlXlXlXlXlXlXlXlXlXlXlXlXlXlXlXlXlXlXlXlXlX",
"lXlXlXlXlXlXlXlXlXlXlXlXlXlXlXlXlXlXlX            8 a <           lXlXlXlXlXlXlXlXlXlXlXlXlXlXlXlXlXlXlXlXlXlXlXlXlXlXlXlXlXlXlXlXlXlXlXlX",
"lXlXlXlXlXlXlXlXlXlXlXlXlXlXlXlXlXlXlXlXlXlXlXlXs ;.9.| 9 lXlXlXlXlXlXlXlXlXlXlXlXlXlXlXlXlXlXlXlXlXlXlXlXlXlXlXlXlXlXlXlXlXlXlXlXlXlXlXlX",
"lXlXlXlXlXlXlXlXlXlXlXlXlXlXlXlXlXlXlXlXo o O s J.J.H.J.z.O o lXlXlXlXlXlXlXlXlXlXlXlXlXlXlXlXlXlXlXlXlXlXlXlXlXlXlXlXlXlXlXlXlXlXlXlXlXlX",
"lXlXlXlXlXlXlXlXlXlXlXlXlXlXlXlXlXlXlXo F t.b.M.J.J.h.x.G.b.@.8 lXlXlXlXlXlXlXlXlXlXlXlXlXlXlXlXlXlXlXlXlXlXlXlXlXlXlXlXlXlXlXlXlXlXlXlXlX",
"lXlXlXlXlXlXlXlXlXlXlXlXlXlXlXlXlXlXlX  3 j 4.J.J.J.C.x.x.J.b %   lXlXlXlXlXlXlXlXlXlXlXlXlXlXlXlXlXlXlXlXlXlXlXlXlXlXlXlXlXlXlXlXlXlXlXlX",
"lXlXlXlXlXlXlXlXlXlXlXlXlXlXlXlXlXlXlX      J J.J.J.N.;.E H.6     lXlXlXlXlXlXlXlXlXlXlXlXlXlXlXlXlXlXlXlXlXlXlXlXlXlXlXlXlXlXlXlXlXlXlXlX",
"lXlXlXlXlXlXlXlXlXlXlXlXlXlXlXlXlXlXlX      J J.J.Z.;.b Z H.6     lXlXlXlXlXlXlXlXlXlXlXlXlXlXlXlXlXlXlXlXlXlXlXlXlXlXlXlXlXlXlXlXlXlXlXlX",
"lXlXlXlXlXlXlXlXlXlXlXlXlXlXlXlXlXlX    @ + Q R.T.i.r K U.Y.w .     lXlXlXlXlXlXlXlXlXlXlXlXlXlXlXlXlXlXlXlXlXlXlXlXlXlXlXlXlXlXlXlXlXlXlX",
"lXlXlXlXlXlXlXlXlXlXlXlXlXlXlXlXlXlX  - wX+X<XhXgX4X).V._.3X@XI     lXlXlXlXlXlXlXlXlXlXlXlXlXlXlXlXlXlXlXlXlXlXlXlXlXlXlXlXlXlXlXlXlXlXlX",
"lXlXlXlXlXlXlXlXlXlXlXlXlXlXlXlXlXlX  ; yX}.K.%X,X&X^.J.I.W.lXt     lXlXlXlXlXlXlXlXlXlXlXlXlXlXlXlXlXlXlXlXlXlXlXlXlXlXlXlXlXlXlXlXlXlXlX",
"lXlXlXlXlXlXlXlXlXlXlXlXlXlXlXlXlXlX  ; yX{.t L.2X=X/.`..X! lX      lXlXlXlXlXlXlXlXlXlXlXlXlXlXlXlXlXlXlXlXlXlXlXlXlXlXlXlXlXlXlXlXlXlXlX",
"lXlXlXlXlXlXlXlXlXlXlXlXlXlXlXlXlXlX& ; yX6Xj.$XfX5XoXOX>XQ.lX  # > lXlXlXlXlXlXlXlXlXlXlXlXlXlXlXlXlXlXlXlXlXlXlXlXlXlXlXlXlXlXlXlXlXlXlX",
"lXlXlXlXlXlXlXlXlXlXlXlXlXlXlXlXlXlXH ; yXkX8X9 J.J.J.J.k.  lX  q $.lXlXlXlXlXlXlXlXlXlXlXlXlXlXlXlXlXlXlXlXlXlXlXlXlXlXlXlXlXlXlXlXlXlXlX",
"lXlXlXlXlXlXlXlXlXlXlXlXlXlXlXlXlXlXH ; yXkX8X< 8.S.J.m. .  lX  q $.lXlXlXlXlXlXlXlXlXlXlXlXlXlXlXlXlXlXlXlXlXlXlXlXlXlXlXlXlXlXlXlXlXlXlX",
"lXlXlXlXlXlXlXlXlXlXlXlXlXlXlXlXlXlX2 ; yXkX8X, $.p.a.8.U   lX  % q lXlXlXlXlXlXlXlXlXlXlXlXlXlXlXlXlXlXlXlXlXlXlXlXlXlXlXlXlXlXlXlXlXlXlX",
"lXlXlXlXlXlXlXlXlXlXlXlXlXlXlXlXlX< 4 ; yXkX8X, $.B W R f   lX  & 8 lXlXlXlXlXlXlXlXlXlXlXlXlXlXlXlXlXlXlXlXlXlXlXlXlXlXlXlXlXlXlXlXlXlXlX",
"lXlXlXlXlXlXlXlXlXlXlXlXlXlXlXlX  h } ; yXkX0X) H $ f a   lXlX  q Y   lXlXlXlXlXlXlXlXlXlXlXlXlXlXlXlXlXlXlXlXlXlXlXlXlXlXlXlXlXlXlXlXlXlX",
"lXlXlXlXlXlXlXlXlXlXlXlXlXlXlXlX  K u.; yXkXkXrX          lXlX  q Y   lXlXlXlXlXlXlXlXlXlXlXlXlXlXlXlXlXlXlXlXlXlXlXlXlXlXlXlXlXlXlXlXlXlX",
"lXlXlXlXlXlXlXlXlXlXlXlXlXlXlXlX  h } ; yXkXkXrX          lXlX  q Y   lXlXlXlXlXlXlXlXlXlXlXlXlXlXlXlXlXlXlXlXlXlXlXlXlXlXlXlXlXlXlXlXlXlX",
"lXlXlXlXlXlXlXlXlXlXlXlXlXlXlXlX  a H ; yXkXeX].          lXlX  q Y   lXlXlXlXlXlXlXlXlXlXlXlXlXlXlXlXlXlXlXlXlXlXlXlXlXlXlXlXlXlXlXlXlXlX",
"lXlXlXlXlXlXlXlXlXlXlXlXlXlXlXlX  a H ; yXkX8X  X [.~     lXlX  q Y   lXlXlXlXlXlXlXlXlXlXlXlXlXlXlXlXlXlXlXlXlXlXlXlXlXlXlXlXlXlXlXlXlXlX",
"lXlXlXlXlXlXlXlXlXlXlXlXlXlXlXlX  h W ; yXkX8X  = tX|.    lXlX  q Y   lXlXlXlXlXlXlXlXlXlXlXlXlXlXlXlXlXlXlXlXlXlXlXlXlXlXlXlXlXlXlXlXlXlX",
"lXlXlXlXlXlXlXlXlXlXlXlXlXlXlXlX  K u.; yXkX8X  = tX|.    lXlX  q Y   lXlXlXlXlXlXlXlXlXlXlXlXlXlXlXlXlXlXlXlXlXlXlXlXlXlXlXlXlXlXlXlXlXlX",
"lXlXlXlXlXlXlXlXlXlXlXlXlXlXlXlX  K u.; yXkX8X  = tX|.    lXlX  m t.  lXlXlXlXlXlXlXlXlXlXlXlXlXlXlXlXlXlXlXlXlXlXlXlXlXlXlXlXlXlXlXlXlXlX",
"lXlXlXlXlXlXlXlXlXlXlXlXlXlXlXlXK k.u.; yXkX8X  = tX|.    lXlX  D A.*.1 lXlXlXlXlXlXlXlXlXlXlXlXlXlXlXlXlXlXlXlXlXlXlXlXlXlXlXlXlXlXlXlXlX",
"lXlXlXlXlXlXlXlXlXlXlXlXlXlXlX  6.S.1.; yXkX8X  = tX|.    lXlX  D G.n.1 lXlXlXlXlXlXlXlXlXlXlXlXlXlXlXlXlXlXlXlXlXlXlXlXlXlXlXlXlXlXlXlXlX",
"lXlXlXlXlXlXlXlXlXlXlXlXlXlXlX  -.x.W ; yXkX9X$ = tX|.O & lXlX  N g.$.: lXlXlXlXlXlXlXlXlXlXlXlXlXlXlXlXlXlXlXlXlXlXlXlXlXlXlXlXlXlXlXlXlX",
"lXlXlXlXlXlXlXlXlXlXlXlXlXlXlX  B h.y.; yXkXqXF = tX|.q o.lXlXlXlX, $.: lXlXlXlXlXlXlXlXlXlXlXlXlXlXlXlXlXlXlXlXlXlXlXlXlXlXlXlXlXlXlXlXlX",
"lXlXlXlXlXlXlXlXlXlXlXlXlXlX# q.2.h.u.; yX7X{ H = tX|.u T   lXlXlX: $.y.c lXlXlXlXlXlXlXlXlXlXlXlXlXlXlXlXlXlXlXlXlXlXlXlXlXlXlXlXlXlXlXlX",
"lXlXlXlXlXlXlXlXlXlXlXlXlXlXO 5.x.B.u.; yX{.a H = tX|.u U   lXlXlX1 c.F.D   lXlXlXlXlXlXlXlXlXlXlXlXlXlXlXlXlXlXlXlXlXlXlXlXlXlXlXlXlXlXlX",
"lXlXlXlXlXlXlXlXlXlXlXlXlXlXO ,.C.S.4.; yX{.a H = tX|.< f   lXlXlX6 J.J.-.g lXlXlXlXlXlXlXlXlXlXlXlXlXlXlXlXlXlXlXlXlXlXlXlXlXlXlXlXlXlXlX",
"lXlXlXlXlXlXlXlXlXlXlXlXlXlX# m.F.h.H ; yX{.8 ^ _ uX|.o $   lXlXlX6 J.J.F.#.  lXlXlXlXlXlXlXlXlXlXlXlXlXlXlXlXlXlXlXlXlXlXlXlXlXlXlXlXlXlX",
"lXlXlXlXlXlXlXlXlXlXlXlXlXlX# m.a.$.H ; yX{.  ' pXaX|.q F   lXlXlX6 J.J.f.b   lXlXlXlXlXlXlXlXlXlXlXlXlXlXlXlXlXlXlXlXlXlXlXlXlXlXlXlXlXlX",
"lXlXlXlXlXlXlXlXlXlXlXlXlXlX# m.a.$.H X ` ( i ] kXkX|.u U   lXlXlX6 J.s.x.t.M   lXlXlXlXlXlXlXlXlXlXlXlXlXlXlXlXlXlXlXlXlXlXlXlXlXlXlXlXlX",
"lXlXlXlXlXlXlXlXlXlXlXlXlXlXO 5.H a 5     n k ] kXkX|.u X.k & lXlX< h.x.=.N 8   lXlXlXlXlXlXlXlXlXlXlXlXlXlXlXlXlXlXlXlXlXlXlXlXlXlXlXlXlX",
"lXlXlXlXlXlXlXlXlXlXlXlXlXlXo k 2         n k ] kXkX|.u $.$.* lXlX$ M =.z       lXlXlXlXlXlXlXlXlXlXlXlXlXlXlXlXlXlXlXlXlXlXlXlXlXlXlXlXlX",
"lXlXlXlXlXlXlXlXlXlXlXlXlXlX    lXlXlXlX  n k ] kXkX|.a :.$.* lXlX      lXlXlXlXlXlXlXlXlXlXlXlXlXlXlXlXlXlXlXlXlXlXlXlXlXlXlXlXlXlXlXlXlX",
"lXlXlXlXlXlXlXlXlXlXlXlXlXlXlXlXlXlXlXlX  n k ] kXkX|.D B.$.* lXlXlXlXlXlXlXlXlXlXlXlXlXlXlXlXlXlXlXlXlXlXlXlXlXlXlXlXlXlXlXlXlXlXlXlXlXlX",
"lXlXlXlXlXlXlXlXlXlXlXlXlXlXlXlXlXlXlXlX  #.| ] kXkX|.D C.$.* lXlXlXlXlXlXlXlXlXlXlXlXlXlXlXlXlXlXlXlXlXlXlXlXlXlXlXlXlXlXlXlXlXlXlXlXlXlX",
"lXlXlXlXlXlXlXlXlXlXlXlXlXlXlXlXlXlXlXo f s.#.] kXkX|.D C.$.* lXlXlXlXlXlXlXlXlXlXlXlXlXlXlXlXlXlXlXlXlXlXlXlXlXlXlXlXlXlXlXlXlXlXlXlXlXlX",
"lXlXlXlXlXlXlXlXlXlXlXlXlXlXlXlXlXlXlXo R n.#.] kXkX|.D S.e.f > lXlXlXlXlXlXlXlXlXlXlXlXlXlXlXlXlXlXlXlXlXlXlXlXlXlXlXlXlXlXlXlXlXlXlXlXlX",
"lXlXlXlXlXlXlXlXlXlXlXlXlXlXlXlXlXlXlXo R n.#.] kXkX|.D J.J.7.q   lXlXlXlXlXlXlXlXlXlXlXlXlXlXlXlXlXlXlXlXlXlXlXlXlXlXlXlXlXlXlXlXlXlXlXlX",
"lXlXlXlXlXlXlXlXlXlXlXlXlXlXlXlXlXlXlXo R n.#.] kXkX|.D J.J.7.q   lXlXlXlXlXlXlXlXlXlXlXlXlXlXlXlXlXlXlXlXlXlXlXlXlXlXlXlXlXlXlXlXlXlXlXlX",
"lXlXlXlXlXlXlXlXlXlXlXlXlXlXlXlXlXlXlXO s.F.#.] kXkX|.f f.J.C.x   lXlXlXlXlXlXlXlXlXlXlXlXlXlXlXlXlXlXlXlXlXlXlXlXlXlXlXlXlXlXlXlXlXlXlXlX",
"lXlXlXlXlXlXlXlXlXlXlXlXlXlXlXlXlXlX: k e.Z.w./  XiX|.u :.h.F.Z   lXlXlXlXlXlXlXlXlXlXlXlXlXlXlXlXlXlXlXlXlXlXlXlXlXlXlXlXlXlXlXlXlXlXlXlX",
"lXlXlXlXlXlXlXlXlXlXlXlXlXlXlXlXlXlX, $.9.x.a.H = tX|.u &.p.D.| < lXlXlXlXlXlXlXlXlXlXlXlXlXlXlXlXlXlXlXlXlXlXlXlXlXlXlXlXlXlXlXlXlXlXlXlX",
"lXlXlXlXlXlXlXlXlXlXlXlXlXlXlXlXlXlX< 3.S.f.&.H = tX|.u 8.F.J.h.V # lXlXlXlXlXlXlXlXlXlXlXlXlXlXlXlXlXlXlXlXlXlXlXlXlXlXlXlXlXlXlXlXlXlXlX",
"lXlXlXlXlXlXlXlXlXlXlXlXlXlXlXlXlXlX0 F.J.G.x.H = tX|.u $.:.S.G.l.F   lXlXlXlXlXlXlXlXlXlXlXlXlXlXlXlXlXlXlXlXlXlXlXlXlXlXlXlXlXlXlXlXlXlX",
"lXlXlXlXlXlXlXlXlXlXlXlXlXlXlXlXlXlXp G.Z g q > X [ y u $.$.Z.#.e ,       lXlXlXlXlXlXlXlXlXlXlXlXlXlXlXlXlXlXlXlXlXlXlXlXlXlXlXlXlXlXlXlX",
"lXlXlXlXlXlXlXlXlXlXlXlXlXlXlXlXlXlX6 f.M G ..L f f * > v $.....D f f f >   lXlXlXlXlXlXlXlXlXlXlXlXlXlXlXlXlXlXlXlXlXlXlXlXlXlXlXlXlXlXlX",
"lXlXlXlXlXlXlXlXlXlXlXlXlXlXlXlXlXlX& C C =.w.>.C C <   % V $ D #.C C C 2     lXlXlXlXlXlXlXlXlXlXlXlXlXlXlXlXlXlXlXlXlXlXlXlXlXlXlXlXlXlX",
"lXlXlXlXlXlXlXlXlXlXlXlXlXlXlXlXlXlX                                          lXlXlXlXlXlXlXlXlXlXlXlXlXlXlXlXlXlXlXlXlXlXlXlXlXlXlXlXlXlX"
};
