/* XPM */
static char *_ea5c33cbb93452ff0068eb34a50851aoan021gJ6Yb1NBYk[] = {
/* columns rows colors chars-per-pixel */
"69 69 101 2 ",
"   c None",
".  c #010001",
"X  c #080707",
"o  c #070308",
"O  c #0B010D",
"+  c #0C0C0C",
"@  c #100F0F",
"#  c #110216",
"$  c #16021B",
"%  c #121212",
"&  c #181717",
"*  c #171018",
"=  c #1B131C",
"-  c #1C1B1B",
";  c #201E1E",
":  c #1D0324",
">  c #1E0E21",
",  c #200A25",
"<  c #22042A",
"1  c #240A2B",
"2  c #290433",
"3  c #2B0B34",
"4  c #2F053A",
"5  c #31043D",
"6  c #2E1F30",
"7  c #331D37",
"8  c #33103C",
"9  c #242323",
"0  c #292727",
"q  c #272228",
"w  c #2E252D",
"e  c #2A2829",
"r  c #332334",
"t  c #37203B",
"y  c #38243B",
"u  c #353434",
"i  c #3F3F3F",
"p  c #360443",
"a  c #380546",
"s  c #360841",
"d  c #3C044A",
"f  c #3E0B4B",
"g  c #3E1C46",
"h  c #3D2F41",
"j  c #40044F",
"k  c #43154D",
"l  c #421C4A",
"z  c #420551",
"x  c #4A055C",
"c  c #4C0B5B",
"v  c #4A1457",
"b  c #471E50",
"n  c #4D115B",
"m  c #4E1B59",
"M  c #4F0561",
"N  c #510464",
"B  c #510C62",
"V  c #550369",
"C  c #58046E",
"Z  c #560A69",
"A  c #521461",
"S  c #571965",
"D  c #5C176C",
"F  c #5B0671",
"G  c #5C0472",
"H  c #5D0473",
"J  c #5D0773",
"K  c #5E0973",
"L  c #5F0A74",
"P  c #600577",
"I  c #63077B",
"U  c #64067C",
"Y  c #66077E",
"T  c #66077F",
"R  c #6B3079",
"E  c #414040",
"W  c #434343",
"Q  c #434344",
"!  c #444444",
"~  c #464646",
"^  c gray29",
"/  c #4C4B4B",
"(  c #616060",
")  c #636262",
"_  c #670780",
"`  c #680782",
"'  c #690783",
"]  c #690883",
"[  c #6C0884",
"{  c #6C0885",
"}  c #710F88",
"|  c #710E8A",
" . c #730A8E",
".. c #6B1682",
"X. c #6C1682",
"o. c #750A91",
"O. c #760A91",
"+. c #780B93",
"@. c #790B94",
"#. c #874B96",
"$. c #9A4DAD",
/* pixels */
"                                                                                                                                          ",
"                                                                                                                                          ",
"                                                                                                                                          ",
"                                                                                                                                          ",
"                                                                                                                                          ",
"                                                                                                                                          ",
"                                                                                                                                          ",
"                                                                                                                                          ",
"                                                                                                                                          ",
"                                                                                                                                          ",
"                                                                                                                                          ",
"                                                                                                                                          ",
"                                                                                                                                          ",
"                                                                                                                                          ",
"                                                                                                                                          ",
"                                                      e @ @ % @ % @ % @ % @ % @ % + e                                                     ",
"                                                      - . . . . . . . . . . . . . . ;                                                     ",
"                                                  - - % . . . . . . . . . . . . & & 9 ; -                                                 ",
"                                                u . . . . . . . . . . . . . . . 0 e & . .                                                 ",
"                                                e . . X X X X X . . . . . . . . - 9 = # #                                                 ",
"                                                e . . & 9 9 9 9 % . . . . . . . X X < x x                                                 ",
"                                                e . X & e e e 0 % . . . . . . . . . < N V                                                 ",
"                                        ~ Q #.$.R 5 5 = % % % % + . . % & + . . . . # 2 2 h W ^ ) )                                       ",
"                                        X . L @.[ C C < . . . . . . X 0 e % . . . . . . . . . + e e                                       ",
"                                        . . L +.[ C C < . o . . . . X 9 e % X . . . . . . . . + 0 u                                       ",
"                                        X . N Y Y ] ] g 0 ; . . . . X 9 e e 9 0 . . . . . . . + 0 e                                       ",
"                                        X . N Y _ { ] g e 9 . . . . X 9 e e e e X . . . . . . + e e                                       ",
"                                      u % % 5 d z z z r e 9 . . # < 2 l b y e e . . . . . . . + e e W                                     ",
"                                  + . @ 0 e + . . . . - e 9 . . 5 G H  .o.m w e X . . . . . . + e e + . +                                 ",
"                                  + . + 0 e + . . . . - e 9 . o 4 C L  .o.m 0 e . . . . . . . + e e + . +                                 ",
"                                  + . @ 0 e 9 ; % . . - e 9 . . = t l } @.f + + . . . . . . . + e e + . +                                 ",
"                                  + . + 0 e 0 0 & . . - e 9 . . & e y } @.a . . . . . . . . . + e 0 + . @                                 ",
"                                  + . + & - 9 e & . . - 0 9 . o % w r S D 3 . . . . . . . . . X - - 1 2 8                                 ",
"                                  + . . . . 9 e & . . - e 9 . . & e e w w % . . . . . . . . . . . o x U X.                                ",
"                                  + . . . . ; 0 & . . & 9 9 . . & w w e 9 % . . . . . . . . o . o O x I ..                                ",
"                              - & X . . . . + + + . . + % + . . 3 A v * % + . . . . . . . < 5 p p p 2 2 3 q 9                             ",
"                              . . . . . . . . . . . . . . . . o a ] G O . . . . . . . . . p M N C V : . . . .                             ",
"                              . . . . . + + + + X . . . . . . . a _ C O . . . . . . . . . p V M z z # . . . .                             ",
"                              . . . . + 9 0 0 0 % . . . . . . o 4 H M O . . . . . . . . . d C z o o . . . . .                             ",
"                              . . . . % 0 e e e - . . . . . . o 5 G M O . . . . . . . . . a C z . . . . . . .                             ",
"                              . . . . + e e k v 3 . . . . . . . # < : o . . . . . . . . . $ < > - & - & % . .                             ",
"                              . . . . + 0 e B G p . . . . . . . . . . . . . . . . . . . . . . + e e e e 9 X .                             ",
"                              . . . . % e e B G p . . . . . . . . . . . . . . . . . . . . . . + 0 0 e e 9 X .                             ",
"                              . X 9 0 0 e e c V 5 . . . . X 0 9 % . . . . . . . . . . . . . . . . X - e 9 X .                             ",
"                              . X 0 e e e e c V 5 . . . . X e 0 % . . . . . . . . . . . . . . . . . ; e 9 X .                             ",
"                              ^ W ; % ; e e B C p . . + % & e 0 % . . . . . . . < 2 , % % X . X % % % & - i Q                             ",
"                                  + . + e e B G a . . - e e 0 0 % . . . . . . . M V k e e @ . + e e + . +                                 ",
"                                  + . @ 0 e n Z 5 X X - e 0 9 9 % . . . . . . . x c k e e + . + 9 9 + . +                                 ",
"                                  + . + e e r r w 9 ; 9 0 9 + X . . . . . . . . 6 r w e e + . . X X . . +                                 ",
"                                  @ . @ e e e e e e e e e 9 . . . . . . . . . . 9 e e e e @ . . . . . . +                                 ",
"                                  e 9 e & & - & - & - - & & . . . . . . . . . . & - & - & + . . . . & ; e                                 ",
"                                        X . . . . . . . . . . . . . . . . . . . . . . . . . . . . X                                       ",
"                                        % % % % % @ % + % % % + % % + % % @ @ % @ % + % % % @ % % %                                       ",
"                                                                                                                                          ",
"                                                                                                                                          ",
"                                                                                                                                          ",
"                                                                                                                                          ",
"                                                                                                                                          ",
"                                                                                                                                          ",
"                                                                                                                                          ",
"                                                                                                                                          ",
"                                                                                                                                          ",
"                                                                                                                                          ",
"                                                                                                                                          ",
"                                                                                                                                          ",
"                                                                                                                                          ",
"                                                                                                                                          ",
"                                                                                                                                          ",
"                                                                                                                                          "
};
