/* XPM */
static char *result[] = {
/* columns rows colors chars-per-pixel */
"69 69 228 2 ",
"   c black",
".  c #000001",
"X  c #010001",
"o  c #000101",
"O  c #010101",
"+  c #010102",
"@  c #020002",
"#  c #020102",
"$  c #020003",
"%  c #000202",
"&  c #000303",
"*  c #020202",
"=  c #020203",
"-  c #030203",
";  c gray1",
":  c #030304",
">  c #040304",
",  c #040404",
"<  c #040405",
"1  c #050405",
"2  c #050506",
"3  c #050507",
"4  c #060506",
"5  c #060507",
"6  c #060607",
"7  c #060608",
"8  c #070608",
"9  c #070708",
"0  c #070709",
"q  c #07070A",
"w  c #080708",
"e  c #080709",
"r  c #08070A",
"t  c #000D0D",
"y  c #000E0E",
"u  c #000F0F",
"i  c #080809",
"p  c #08080A",
"a  c #09080A",
"s  c #09090A",
"d  c #08080B",
"f  c #09090B",
"g  c #0A090B",
"h  c #09090C",
"j  c #0A090C",
"k  c #0B0A0C",
"l  c #0A0A0D",
"z  c #0B0A0D",
"x  c #0B0B0D",
"c  c #0B0B0E",
"v  c #0C0A0D",
"b  c #0C0B0D",
"n  c #0C0B0E",
"m  c #0C0C0F",
"M  c #0D0C0F",
"N  c #0E0C0F",
"B  c #0E0D0F",
"V  c #0C0C10",
"C  c #0D0C10",
"Z  c #0C0C11",
"A  c #0F0D10",
"S  c #0E0D11",
"D  c #0F0E11",
"F  c #0D0D12",
"G  c #0E0E12",
"H  c #0F0E12",
"J  c #0E0E13",
"K  c #0F0F13",
"L  c #0F0F14",
"P  c #160016",
"I  c #100E11",
"U  c #100E12",
"Y  c #100F12",
"T  c #110F12",
"R  c #100F13",
"E  c #100F14",
"W  c #130E14",
"Q  c #190019",
"!  c #1B001B",
"~  c #180C1A",
"^  c #071214",
"/  c #001414",
"(  c #0C1113",
")  c #0A1315",
"_  c #001818",
"`  c #001B1B",
"'  c #011B1C",
"]  c #001D1D",
"[  c #031C1C",
"{  c #111014",
"}  c #101015",
"|  c #111015",
" . c #121014",
".. c #121115",
"X. c #121116",
"o. c #131216",
"O. c #121217",
"+. c #131217",
"@. c #141216",
"#. c #141217",
"$. c #141317",
"%. c #151317",
"&. c #121218",
"*. c #131319",
"=. c #13131A",
"-. c #151318",
";. c #15121B",
":. c #151418",
">. c #151419",
",. c #161419",
"<. c #15141A",
"1. c #14141B",
"2. c #16141A",
"3. c #16151A",
"4. c #17151A",
"5. c #16151B",
"6. c #17151B",
"7. c #17161B",
"8. c #15151C",
"9. c #16151C",
"0. c #16161C",
"q. c #16161D",
"w. c #17161D",
"e. c #17171D",
"r. c #17171F",
"t. c #18161C",
"y. c #18171D",
"u. c #18171E",
"i. c #19171E",
"p. c #19181E",
"a. c #19181F",
"s. c #181820",
"d. c #191921",
"f. c #1A1920",
"g. c #1A1921",
"h. c #1A1A21",
"j. c #1B1A21",
"k. c #191922",
"l. c #1A1A22",
"z. c #1B1A22",
"x. c #1A1A23",
"c. c #1B1B23",
"v. c #1C1B23",
"b. c #1B1B24",
"n. c #1D1825",
"m. c #1F1925",
"M. c #1C1B24",
"N. c #1C1C24",
"B. c #1C1C25",
"V. c #1D1C25",
"C. c #1D1D25",
"Z. c #1D1D26",
"A. c #1E1D27",
"S. c #1E1E27",
"D. c #1E1E28",
"F. c #1F1E28",
"G. c #1F1F28",
"H. c #1F1F29",
"J. c #2B002B",
"K. c #29052E",
"L. c #2D072F",
"P. c #290D2D",
"I. c #211E2B",
"U. c #241E2D",
"Y. c #320032",
"T. c #330033",
"R. c #370037",
"E. c #321533",
"W. c #002828",
"Q. c #04292A",
"!. c #002D2D",
"~. c #003232",
"^. c #003434",
"/. c #003636",
"(. c #003838",
"). c #24242E",
"_. c #2A2433",
"`. c #2A2A33",
"'. c #2B2B35",
"]. c #3C1643",
"[. c #392A42",
"{. c #392D42",
"}. c #393941",
"|. c #393942",
" X c #400040",
".X c #49034A",
"XX c #470B4A",
"oX c #401546",
"OX c #580359",
"+X c #540C58",
"@X c #5C085E",
"#X c #5B0C5F",
"$X c #5C0C5F",
"%X c #4F1054",
"&X c #521358",
"*X c #58125E",
"=X c #740475",
"-X c #004040",
";X c #004242",
":X c #004B4B",
">X c #004E4E",
",X c #0C535E",
"<X c #005858",
"1X c #006464",
"2X c #006666",
"3X c #056469",
"4X c #006868",
"5X c #006A6A",
"6X c #006B6B",
"7X c #007D7D",
"8X c #007E7E",
"9X c #007F7F",
"0X c #46464E",
"qX c #5F5F66",
"wX c #604367",
"eX c #724378",
"rX c #606067",
"tX c #727278",
"yX c #89078B",
"uX c #8E048F",
"iX c #900491",
"pX c #8F338F",
"aX c #A505A7",
"sX c #008080",
"dX c #EC8FEC",
"fX c #E9E9EA",
"gX c #ECECEC",
"hX c None",
/* pixels */
"hXhXhXhXhXhXhXhXhXhXhXhXhXhXhXhXhXhXhXhXhXhXhXhXhXhX                              hXhXhXhXhXhXhXhXhXhXhXhXhXhXhXhXhXhXhXhXhXhXhXhXhXhXhXhX",
"hXhXhXhXhXhXhXhXhXhXhXhXhXhXhXhXhXhXhXhXhXhXhXhXhXhX  4 U q.q.q.q.q.q.q.q.q.q.q.2 hXhXhXhXhXhXhXhXhXhXhXhXhXhXhXhXhXhXhXhXhXhXhXhXhXhXhXhX",
"hXhXhXhXhXhXhXhXhXhXhXhXhXhXhXhXhXhXhXhXhXhXhXhXhXhX  i 3.H.H.H.H.H.H.H.H.H.H.H.0 hXhXhXhXhXhXhXhXhXhXhXhXhXhXhXhXhXhXhXhXhXhXhXhXhXhXhXhX",
"hXhXhXhXhXhXhXhXhXhXhXhXhXhXhXhXhXhXhXhXhXhXhXhXhXhX  i 3.H.H.H.[.wXrXrX|.H.'.qXE.hXhXhXhXhXhXhXhXhXhXhXhXhXhXhXhXhXhXhXhXhXhXhXhXhXhXhXhX",
"hXhXhXhXhXhXhXhXhXhXhXhXhXhXhXhXhXhXhXhXhXhXhXhXhXhX  i 3.H.H.H.eXdXgXgXtXH.0XfXpXhXhXhXhXhXhXhXhXhXhXhXhXhXhXhXhXhXhXhXhXhXhXhXhXhXhXhXhX",
"hXhXhXhXhXhXhXhXhXhXhXhXhXhXhXhXhXhXhXhXhXhXhXhXhXhX  i 3.H.H.H._.{.|.|.`.H.).}.~ hXhXhXhXhXhXhXhXhXhXhXhXhXhXhXhXhXhXhXhXhXhXhXhXhXhXhXhX",
"hXhXhXhXhXhXhXhXhXhXhXhXhXhXhXhXhXhXhXhXhXhXhXhXhXhX  i  .l l l l l l l l l l l = hXhXhXhXhXhXhXhXhXhXhXhXhXhXhXhXhXhXhXhXhXhXhXhXhXhXhXhX",
"hXhXhXhXhXhXhXhXhXhXhXhXhXhXhXhXhXhXhXhXhXhXhXhXhXhX  i I                         hXhXhXhXhXhXhXhXhXhXhXhXhXhXhXhXhXhXhXhXhXhXhXhXhXhXhXhX",
"hXhXhXhXhXhXhXhXhXhXhXhXhXhXhXhXhXhXhXhXhXhXhXhXhXhX  i I o ] y       hXhXhXhXhXhXhXhXhXhXhXhXhXhXhXhXhXhXhXhXhXhXhXhXhXhXhXhXhXhXhXhXhXhX",
"hXhXhXhXhXhXhXhXhXhXhXhXhXhXhXhXhXhXhXhXhXhXhXhXhXhX  i I % 4X~.      hXhXhXhXhXhXhXhXhXhXhXhXhXhXhXhXhXhXhXhXhXhXhXhXhXhXhXhXhXhXhXhXhXhX",
"hXhXhXhXhXhXhXhXhXhXhXhXhXhXhXhXhXhXhXhXhXhXhXhXhXhX  i I % 4X~.      hXhXhXhXhXhXhXhXhXhXhXhXhXhXhXhXhXhXhXhXhXhXhXhXhXhXhXhXhXhXhXhXhXhX",
"hXhXhXhXhXhXhXhXhXhXhXhXhXhXhXhXhXhXhXhXhXhXhXhXhXhX  i I % 4X~.      hXhXhXhXhXhXhXhXhXhXhXhXhXhXhXhXhXhXhXhXhXhXhXhXhXhXhXhXhXhXhXhXhXhX",
"hXhXhXhXhXhXhXhXhXhXhXhXhXhXhXhXhXhXhXhXhXhXhXhXhXhX  i I o (.`       hXhXhXhXhXhXhXhXhXhXhXhXhXhXhXhXhXhXhXhXhXhXhXhXhXhXhXhXhXhXhXhXhXhX",
"hXhXhXhXhXhXhXhXhXhXhXhXhXhXhXhXhXhXhXhXhXhXhXhXhXhX  i { d 5 * : r 2 hX< < hX2 O hXhXhXhXhXhXhXhXhXhXhXhXhXhXhXhXhXhXhXhXhXhXhXhXhXhXhXhX",
"hXhXhXhXhXhXhXhXhXhXhXhXhXhXhXhXhXhXhXhXhXhXhXhXhXhX  i 3.H.4.a G C.%.5 M M 2 $.< hXhXhXhXhXhXhXhXhXhXhXhXhXhXhXhXhXhXhXhXhXhXhXhXhXhXhXhX",
"hXhXhXhXhXhXhXhXhXhXhXhXhXhXhXhXhXhXhXhXhXhXhXhXhXhX  i 3.H.A.N.B.G.Z.b.B.B.b.Z.7 hXhXhXhXhXhXhXhXhXhXhXhXhXhXhXhXhXhXhXhXhXhXhXhXhXhXhXhX",
"hXhXhXhXhXhXhXhXhXhXhXhXhXhXhXhXhXhXhXhXhXhXhXhXhXhX  ; e c c c c c c c c c c c = hXhXhXhXhXhXhXhXhXhXhXhXhXhXhXhXhXhXhXhXhXhXhXhXhXhXhXhX",
"hXhXhXhXhXhXhXhXhXhXhXhXhXhXhXhXhXhXhXhXhXhXhXhXhXhXhX          > a a *           hXhXhXhXhXhXhXhXhXhXhXhXhXhXhXhXhXhXhXhXhXhXhXhXhXhXhXhX",
"hXhXhXhXhXhXhXhXhXhXhXhXhXhXhXhXhXhXhXhXhXhXhXhXhXhXhXhXhXhXhX0 S 6.6.z 6 hXhXhXhXhXhXhXhXhXhXhXhXhXhXhXhXhXhXhXhXhXhXhXhXhXhXhXhXhXhXhXhX",
"hXhXhXhXhXhXhXhXhXhXhXhXhXhXhXhXhXhXhXhXhXhXhXhXhXhXhXhXO + + =.H.H.F.H.F O O hXhXhXhXhXhXhXhXhXhXhXhXhXhXhXhXhXhXhXhXhXhXhXhXhXhXhXhXhXhX",
"hXhXhXhXhXhXhXhXhXhXhXhXhXhXhXhXhXhXhXhXhXhXhXhXhXhX  e o.l.l.Z.H.Z.,.Z.B.0.B   hXhXhXhXhXhXhXhXhXhXhXhXhXhXhXhXhXhXhXhXhXhXhXhXhXhXhXhXhX",
"hXhXhXhXhXhXhXhXhXhXhXhXhXhXhXhXhXhXhXhXhXhXhXhXhXhX  ; i m b.H.H.D.z.i.N.9.4   hXhXhXhXhXhXhXhXhXhXhXhXhXhXhXhXhXhXhXhXhXhXhXhXhXhXhXhXhX",
"hXhXhXhXhXhXhXhXhXhXhXhXhXhXhXhXhXhXhXhXhXhXhXhXhXhX      . d.H.H.S.g.S e.*.    hXhXhXhXhXhXhXhXhXhXhXhXhXhXhXhXhXhXhXhXhXhXhXhXhXhXhXhXhX",
"hXhXhXhXhXhXhXhXhXhXhXhXhXhXhXhXhXhXhXhXhXhXhXhXhXhX      . d.H.S.g.D f 8.*.    hXhXhXhXhXhXhXhXhXhXhXhXhXhXhXhXhXhXhXhXhXhXhXhXhXhXhXhXhX",
"hXhXhXhXhXhXhXhXhXhXhXhXhXhXhXhXhXhXhXhXhXhXhXhXhX    % & $ n.U.m.W O d.I.;.@     hXhXhXhXhXhXhXhXhXhXhXhXhXhXhXhXhXhXhXhXhXhXhXhXhXhXhXhX",
"hXhXhXhXhXhXhXhXhXhXhXhXhXhXhXhXhXhXhXhXhXhXhXhXhX    !.,XR.iXaXuX@Xl.D.%XOXJ.X   hXhXhXhXhXhXhXhXhXhXhXhXhXhXhXhXhXhXhXhXhXhXhXhXhXhXhXhX",
"hXhXhXhXhXhXhXhXhXhXhXhXhXhXhXhXhXhXhXhXhXhXhXhXhX    /.3XQ  X+X&X].H.H.P.T.hX    hXhXhXhXhXhXhXhXhXhXhXhXhXhXhXhXhXhXhXhXhXhXhXhXhXhXhXhX",
"hXhXhXhXhXhXhXhXhXhXhXhXhXhXhXhXhXhXhXhXhXhXhXhXhX    /.1X  P XX*XoXH.oXL.! hX    hXhXhXhXhXhXhXhXhXhXhXhXhXhXhXhXhXhXhXhXhXhXhXhXhXhXhXhX",
"hXhXhXhXhXhXhXhXhXhXhXhXhXhXhXhXhXhXhXhXhXhXhXhXhX< # /.5X' K.=XyX#XH.$X.XY.hX  : hXhXhXhXhXhXhXhXhXhXhXhXhXhXhXhXhXhXhXhXhXhXhXhXhXhXhXhX",
"hXhXhXhXhXhXhXhXhXhXhXhXhXhXhXhXhXhXhXhXhXhXhXhXhX@.w /.sX8X_ *.H.H.H.H.Z   hX  I hXhXhXhXhXhXhXhXhXhXhXhXhXhXhXhXhXhXhXhXhXhXhXhXhXhXhXhX",
"hXhXhXhXhXhXhXhXhXhXhXhXhXhXhXhXhXhXhXhXhXhXhXhXhX@.w /.sX8X_ C f.H.H.y.a   hX  I hXhXhXhXhXhXhXhXhXhXhXhXhXhXhXhXhXhXhXhXhXhXhXhXhXhXhXhX",
"hXhXhXhXhXhXhXhXhXhXhXhXhXhXhXhXhXhXhXhXhXhXhXhXhXe ; /.sX8X_ b ,.y.y.-.e   hX  6 hXhXhXhXhXhXhXhXhXhXhXhXhXhXhXhXhXhXhXhXhXhXhXhXhXhXhXhX",
"hXhXhXhXhXhXhXhXhXhXhXhXhXhXhXhXhXhXhXhXhXhXhXhXhX9 ; /.sX8X_ b T N @.N 6 hXhX  6 2 hXhXhXhXhXhXhXhXhXhXhXhXhXhXhXhXhXhXhXhXhXhXhXhXhXhXhX",
"hXhXhXhXhXhXhXhXhXhXhXhXhXhXhXhXhXhXhXhXhXhXhXhXO ..p /.sX8X!.) s : U : hXhXhX  I i   hXhXhXhXhXhXhXhXhXhXhXhXhXhXhXhXhXhXhXhXhXhXhXhXhXhX",
"hXhXhXhXhXhXhXhXhXhXhXhXhXhXhXhXhXhXhXhXhXhXhXhXO l.m /.sXsXsX~.        hXhXhX  I i   hXhXhXhXhXhXhXhXhXhXhXhXhXhXhXhXhXhXhXhXhXhXhXhXhXhX",
"hXhXhXhXhXhXhXhXhXhXhXhXhXhXhXhXhXhXhXhXhXhXhXhXO ..p /.sXsXsX~.        hXhXhX  I i   hXhXhXhXhXhXhXhXhXhXhXhXhXhXhXhXhXhXhXhXhXhXhXhXhXhX",
"hXhXhXhXhXhXhXhXhXhXhXhXhXhXhXhXhXhXhXhXhXhXhXhXO T w /.sX9X;X/         hXhXhX  I i   hXhXhXhXhXhXhXhXhXhXhXhXhXhXhXhXhXhXhXhXhXhXhXhXhXhX",
"hXhXhXhXhXhXhXhXhXhXhXhXhXhXhXhXhXhXhXhXhXhXhXhXO T w /.sX8X_   / W.    hXhXhX  I i   hXhXhXhXhXhXhXhXhXhXhXhXhXhXhXhXhXhXhXhXhXhXhXhXhXhX",
"hXhXhXhXhXhXhXhXhXhXhXhXhXhXhXhXhXhXhXhXhXhXhXhXO ..p /.sX8X_   ^.2X    hXhXhX  I i   hXhXhXhXhXhXhXhXhXhXhXhXhXhXhXhXhXhXhXhXhXhXhXhXhXhX",
"hXhXhXhXhXhXhXhXhXhXhXhXhXhXhXhXhXhXhXhXhXhXhXhXO k.m /.sX8X_   ^.2X    hXhXhX  I i   hXhXhXhXhXhXhXhXhXhXhXhXhXhXhXhXhXhXhXhXhXhXhXhXhXhX",
"hXhXhXhXhXhXhXhXhXhXhXhXhXhXhXhXhXhXhXhXhXhXhXhXO l.m /.sX8X_   ^.2X    hXhXhX  q.m   hXhXhXhXhXhXhXhXhXhXhXhXhXhXhXhXhXhXhXhXhXhXhXhXhXhX",
"hXhXhXhXhXhXhXhXhXhXhXhXhXhXhXhXhXhXhXhXhXhXhX7 &.Z.m /.sX8X_   ^.2X    hXhXhX  s.r.F hXhXhXhXhXhXhXhXhXhXhXhXhXhXhXhXhXhXhXhXhXhXhXhXhXhX",
"hXhXhXhXhXhXhXhXhXhXhXhXhXhXhXhXhXhXhXhXhXhXhXq H.v.l /.sX8X_   ^.2X    hXhXhX  s.V.|   hXhXhXhXhXhXhXhXhXhXhXhXhXhXhXhXhXhXhXhXhXhXhXhXhX",
"hXhXhXhXhXhXhXhXhXhXhXhXhXhXhXhXhXhXhXhXhXhXhX0 V.7.p /.sX8X_   ^.2X  ; hXhXhX  8.5.n   hXhXhXhXhXhXhXhXhXhXhXhXhXhXhXhXhXhXhXhXhXhXhXhXhX",
"hXhXhXhXhXhXhXhXhXhXhXhXhXhXhXhXhXhXhXhXhXhXhX1 %.C.m /.sX8X_   ^.2X  I hXhXhXhXO b n   hXhXhXhXhXhXhXhXhXhXhXhXhXhXhXhXhXhXhXhXhXhXhXhXhX",
"hXhXhXhXhXhXhXhXhXhXhXhXhXhXhXhXhXhXhXhXhXhXV w.#.Z.m /.6X] ( 5 ^.2X  U a hXhXhX  v <.1.O hXhXhXhXhXhXhXhXhXhXhXhXhXhXhXhXhXhXhXhXhXhXhXhX",
"hXhXhXhXhXhXhXhXhXhXhXhXhXhXhXhXhXhXhXhXhX  z a.h.D.m /.1X  Y e ^.2X  U e   hXhX  K M.l.O hXhXhXhXhXhXhXhXhXhXhXhXhXhXhXhXhXhXhXhXhXhXhXhX",
"hXhXhXhXhXhXhXhXhXhXhXhXhXhXhXhXhXhXhXhXhX  l f.H.v.l /.1X  Y e ^.2X  g 2   hXhX  &.H.N.V 3 hXhXhXhXhXhXhXhXhXhXhXhXhXhXhXhXhXhXhXhXhXhXhX",
"hXhXhXhXhXhXhXhXhXhXhXhXhXhXhXhXhXhXhXhXhX  F G.C.,.w /.1X  N ^ -X2X  - O   hXhX  &.H.G.Z.0 hXhXhXhXhXhXhXhXhXhXhXhXhXhXhXhXhXhXhXhXhXhXhX",
"hXhXhXhXhXhXhXhXhXhXhXhXhXhXhXhXhXhXhXhXhX  F V.$.@.w /.1X  O :X7X2X  D e   hXhX  &.H.Z.%.1 hXhXhXhXhXhXhXhXhXhXhXhXhXhXhXhXhXhXhXhXhXhXhX",
"hXhXhXhXhXhXhXhXhXhXhXhXhXhXhXhXhXhXhXhXhX  F B.@.@.w t [ A ; >XsX2X  U e   hXhX  &.M.t.N...w hXhXhXhXhXhXhXhXhXhXhXhXhXhXhXhXhXhXhXhXhXhX",
"hXhXhXhXhXhXhXhXhXhXhXhXhXhXhXhXhXhXhXhXhX  z <.a a :   < @.> >XsX2X  U A e hXhX  G a.u.J j ,   hXhXhXhXhXhXhXhXhXhXhXhXhXhXhXhXhXhXhXhXhX",
"hXhXhXhXhXhXhXhXhXhXhXhXhXhXhXhXhXhXhXhXhX  4 k         < @.> >XsX2X  U @.b   hX  w R O.O     hXhXhXhXhXhXhXhXhXhXhXhXhXhXhXhXhXhXhXhXhXhX",
"hXhXhXhXhXhXhXhXhXhXhXhXhXhXhXhXhXhXhXhXhX      hXhXhXhX< @.> >XsX2X  { %.b   hX        hXhXhXhXhXhXhXhXhXhXhXhXhXhXhXhXhXhXhXhXhXhXhXhXhX",
"hXhXhXhXhXhXhXhXhXhXhXhXhXhXhXhXhXhXhXhXhXhXhXhXhXhXhXhX< @.> >XsX2X  s.y.b   hXhXhXhXhXhXhXhXhXhXhXhXhXhXhXhXhXhXhXhXhXhXhXhXhXhXhXhXhXhX",
"hXhXhXhXhXhXhXhXhXhXhXhXhXhXhXhXhXhXhXhXhXhXhXhXhXhXhXhX7 M.3 >XsX2X  d.u.b   hXhXhXhXhXhXhXhXhXhXhXhXhXhXhXhXhXhXhXhXhXhXhXhXhXhXhXhXhXhX",
"hXhXhXhXhXhXhXhXhXhXhXhXhXhXhXhXhXhXhXhXhXhXhXhXhXhXhX6 H G.7 >XsX2X  d.u.b   hXhXhXhXhXhXhXhXhXhXhXhXhXhXhXhXhXhXhXhXhXhXhXhXhXhXhXhXhXhX",
"hXhXhXhXhXhXhXhXhXhXhXhXhXhXhXhXhXhXhXhXhXhXhXhXhXhX  i 3.G.7 >XsX2X  d.j.{ 6 hXhXhXhXhXhXhXhXhXhXhXhXhXhXhXhXhXhXhXhXhXhXhXhXhXhXhXhXhXhX",
"hXhXhXhXhXhXhXhXhXhXhXhXhXhXhXhXhXhXhXhXhXhXhXhXhXhX  i 3.G.7 >XsX2X  d.H.z.Y   hXhXhXhXhXhXhXhXhXhXhXhXhXhXhXhXhXhXhXhXhXhXhXhXhXhXhXhXhX",
"hXhXhXhXhXhXhXhXhXhXhXhXhXhXhXhXhXhXhXhXhXhXhXhXhXhX  i 3.G.7 >XsX2X  d.H.z.Y   hXhXhXhXhXhXhXhXhXhXhXhXhXhXhXhXhXhXhXhXhXhXhXhXhXhXhXhXhX",
"hXhXhXhXhXhXhXhXhXhXhXhXhXhXhXhXhXhXhXhXhXhXhXhXhXhX  m V.G.7 >XsX2X  X.v.S.w.  hXhXhXhXhXhXhXhXhXhXhXhXhXhXhXhXhXhXhXhXhXhXhXhXhXhXhXhXhX",
"hXhXhXhXhXhXhXhXhXhXhXhXhXhXhXhXhXhXhXhXhXhXhXhXhXhXe { j.H.S Q.<X2X  U 7.v.d.. hXhXhXhXhXhXhXhXhXhXhXhXhXhXhXhXhXhXhXhXhXhXhXhXhXhXhXhXhX",
"hXhXhXhXhXhXhXhXhXhXhXhXhXhXhXhXhXhXhXhXhXhXhXhXhX  n >.u.c.:.e ^.2X  U 2.h.x.8 hXhXhXhXhXhXhXhXhXhXhXhXhXhXhXhXhXhXhXhXhXhXhXhXhXhXhXhXhX",
"hXhXhXhXhXhXhXhXhXhXhXhXhXhXhXhXhXhXhXhXhXhXhXhXhX  M a.V.-.@.e ^.2X  U f.D.Z.:.6 hXhXhXhXhXhXhXhXhXhXhXhXhXhXhXhXhXhXhXhXhXhXhXhXhXhXhXhX",
"hXhXhXhXhXhXhXhXhXhXhXhXhXhXhXhXhXhXhXhXhXhXhXhXhX  *.D.H.S.,.e ^.2X  U %.p.H.S.-.e   hXhXhXhXhXhXhXhXhXhXhXhXhXhXhXhXhXhXhXhXhXhXhXhXhXhX",
"hXhXhXhXhXhXhXhXhXhXhXhXhXhXhXhXhXhXhXhXhXhXhXhXhX  =.q.h h 6 * u ]   U @.y.c.h 7 =       hXhXhXhXhXhXhXhXhXhXhXhXhXhXhXhXhXhXhXhXhXhXhXhX",
"hXhXhXhXhXhXhXhXhXhXhXhXhXhXhXhXhXhXhXhXhXhXhXhXhX  E +.x } } m g e   e I ..L } x g g i     hXhXhXhXhXhXhXhXhXhXhXhXhXhXhXhXhXhXhXhXhXhXhX",
"hXhXhXhXhXhXhXhXhXhXhXhXhXhXhXhXhXhXhXhXhXhXhXhXhX  a B U 0.0.{ B k     e i < 8.U B B z     hXhXhXhXhXhXhXhXhXhXhXhXhXhXhXhXhXhXhXhXhXhXhX",
"hXhXhXhXhXhXhXhXhXhXhXhXhXhXhXhXhXhXhXhXhXhXhXhXhX                                          hXhXhXhXhXhXhXhXhXhXhXhXhXhXhXhXhXhXhXhXhXhXhX"
};
