/* XPM */
static char *bce1b5fffa00491ebb7531ca917ac91fvXIPsMttOhoDGD62[] = {
/* columns rows colors chars-per-pixel */
"69 69 186 2 ",
"   c None",
".  c #4D2B21",
"X  c #4E2C22",
"o  c #4F2C22",
"O  c #4F2D22",
"+  c #573122",
"@  c #533024",
"#  c #5A3426",
"$  c #5F3828",
"%  c #633823",
"&  c #6D3E24",
"*  c #623A2A",
"=  c #6A402D",
"-  c #754429",
";  c #73462F",
":  c #7E4C2F",
">  c #714530",
",  c #764832",
"<  c #774932",
"1  c #7E4D32",
"2  c #49427F",
"3  c #52407F",
"4  c #5D477D",
"5  c #5D597A",
"6  c #727076",
"7  c #737176",
"8  c #7A797D",
"9  c #79787E",
"0  c #804D30",
"q  c #885435",
"w  c #8B5737",
"e  c #875439",
"r  c #895639",
"t  c #8D5838",
"y  c #925C3D",
"u  c #935D3E",
"i  c #97603F",
"p  c #9B6342",
"a  c #9F6643",
"s  c #9C7F5D",
"d  c #A26844",
"f  c #A46B47",
"g  c #A76B46",
"h  c #A66C49",
"j  c #AF7149",
"k  c #AF734D",
"l  c #B3734B",
"z  c #B0754E",
"x  c #B0754F",
"c  c #B9784D",
"v  c #BB7A4E",
"b  c #BE7C4F",
"n  c #B57951",
"m  c #8C6577",
"M  c #9E7175",
"N  c #C07D50",
"B  c #66836F",
"V  c #7F8D6F",
"C  c #648B77",
"Z  c #708C73",
"A  c #818D6E",
"S  c #9F8764",
"D  c #889475",
"F  c #8F9B7B",
"G  c #A4926F",
"H  c #BA8371",
"J  c #A99D79",
"K  c #A6A07D",
"L  c #AAA07B",
"P  c #C38156",
"I  c #C78457",
"U  c #C18259",
"Y  c #CA8759",
"T  c #CE8B5F",
"R  c #CF8E62",
"E  c #C68B6F",
"W  c #D28F60",
"Q  c #CE906E",
"!  c #D59163",
"~  c #D59366",
"^  c #D89567",
"/  c #D7966D",
"(  c #DD996A",
")  c #DD9A6B",
"_  c #DE9A6B",
"`  c #DA9B6D",
"'  c #D89A6F",
"]  c #DA9B6E",
"[  c #DF9B6C",
"{  c #382F82",
"}  c #3D348A",
"|  c #40378E",
" . c #40378F",
".. c #443A94",
"X. c #463C97",
"o. c #51498A",
"O. c #564F91",
"+. c #524B94",
"@. c #5F579D",
"#. c #656184",
"$. c #6A668A",
"%. c #6E6E8C",
"&. c #7E7D83",
"*. c #7F7E82",
"=. c #736F94",
"-. c #78749B",
";. c #4D42A2",
":. c #4F44A5",
">. c #5045A6",
",. c #5146A8",
"<. c #5247AA",
"1. c #5449AD",
"2. c #5358AA",
"3. c #584CB2",
"4. c #5B4FB7",
"5. c #5B50B8",
"6. c #5C50B8",
"7. c #5D52BB",
"8. c #5E52BC",
"9. c #5E53BC",
"0. c #645CA5",
"q. c #6054BE",
"w. c #4E78A3",
"e. c #5363BF",
"r. c #5B66BA",
"t. c #6D65B1",
"y. c #7269B7",
"u. c #6055C0",
"i. c #6155C1",
"p. c #6256C2",
"a. c #807DA5",
"s. c #1E908F",
"d. c #109E9C",
"f. c #1D9D99",
"g. c #278785",
"h. c #2E8E88",
"j. c #318682",
"k. c #29908B",
"l. c #37978C",
"z. c #3D9D8E",
"x. c #3E9E8F",
"c. c #30AA9F",
"v. c #37A99D",
"b. c #3EA99B",
"n. c #3FA99B",
"m. c #3AA99C",
"M. c #3182B8",
"N. c #03ABAA",
"B. c #00AEAD",
"V. c #04AEAC",
"C. c #05AEAC",
"Z. c #09ADAA",
"A. c #0AADAA",
"S. c #0EADA9",
"D. c #0FADA9",
"F. c #11AAA6",
"G. c #1EABA4",
"H. c #1AACA5",
"J. c #0FA1B0",
"K. c #439F9F",
"L. c #4A999B",
"P. c #609884",
"I. c #42A192",
"U. c #45A595",
"Y. c #49A898",
"T. c #5AA693",
"R. c #5DA490",
"E. c #5CA692",
"W. c #6BA58E",
"Q. c #72A48C",
"!. c #4E86AB",
"~. c #86868B",
"^. c #88878B",
"/. c #8A9285",
"(. c #8A9D88",
"). c #818D95",
"_. c #8B8B90",
"`. c #8D8D90",
"'. c #949499",
"]. c #959698",
"[. c #98999D",
"{. c #999A9C",
"}. c #82A387",
"|. c #8DA284",
" X c #96A181",
".X c #8581AA",
/* pixels */
"                                                                                                                                          ",
"                                                                                                                                          ",
"                                                                                                                                          ",
"                                                                                                                                          ",
"                                                                                                                                          ",
"                                                                                                                                          ",
"                                                                                                                                          ",
"                                                                                                                                          ",
"                                                                                                                                          ",
"                                                                                                                                          ",
"                                                                                                                                          ",
"                                                                                                                                          ",
"                                                                                                                                          ",
"                                                                                                                                          ",
"                                                                                                                                          ",
"                                                                                                                                          ",
"                                                                                                                                          ",
"                                                                                                                                          ",
"                                                                                                                                          ",
"                                                                                                                                          ",
"                                                                                                                                          ",
"                                                                                                                                          ",
"                                                                                                                                          ",
"                                    . . . . + % & & & & & & & & & & & & & & & & & & & & &                                                 ",
"                                  . . . . . + % & & & & & & & & & & & & & & & & & & & & & &                                               ",
"                                  . . . . . + % & & & & & & & & & & & & & & & & & & & & & &                                               ",
"                                  . . . . . + % & & & & & & & & & & & & & & & & & & & & & &                                               ",
"                                  . . . . . + % & & & & & & & & & & & & & & & & & & & & & &                                               ",
"                                  . . . . . + % & & & & & & & & & & & & & & & & & & & & & &                                               ",
"                                  . . . . . + % & & & & & & & & & & & & & & & & & & & & & &                                               ",
"                                  . . . . . + % & & & & & & & & & & & & & & & & & & & & & &                                               ",
"                                  . . . . . + % & & & & & & & & & & & & & & & & & & & & & &                                               ",
"                                  . . . . . + % & & & & & & & & & & & & & & & & & & & & & &                                               ",
"                                  $ $ # @ O + % & & & & & & & & & & & & & & & & & & & & & &                                               ",
"                                  e e , * X + % & & & & & & & & & & & & & & & & & & & & & &                                               ",
"                                  j j u > X + % & & & & & & & & & & & & & & & & & & & & & &                                               ",
"                                  N N a , @ @ % & & & & & & & & & & & & & & & & & & & & & &                                               ",
"                                  N N a , O + % & & & & & & & & & & & & & & & & & & & & & &                                               ",
"                                  N N a , O + % & & & & & & & & & & & & & & & & & & & & & &                                               ",
"                                  N N h r & ; 1 q : - & & & & & & & & & & & & & & & - : q w                                               ",
"                                  N N l d y p h k i 1 & & & & & & & & & & & & & & & 0 i k k                                               ",
"                                  N N b v c N R ~ k w & & & & & & & & & & & & & & & w x ~ ^                                               ",
"                                  N N N N N Y ~ ( U f t t t t t t t t t t t t t t t f U [ [                                               ",
"                                  N N N N N Y ~ [ R U n n n n n n n n n n n n n n n U R ( [                                               ",
"                                  b b P N N Y W [ [ ( ( ( ( ( [ ( ( ( ( ( ( ( ( ( ( ( [ [ [                                               ",
"                                  Z V A A A D F  X X X X X X X X X X X X X X X X X X X X X}.T.                                            ",
"                              g.h.l.z.z.z.L.I.U.Y.Y.Y.Y.Y.Y.Y.Y.Y.Y.Y.Y.Y.Y.Y.Y.Y.Y.Y.Y.Y.v.G.B.                                          ",
"                            g.g.s.d.N.B.B.B.B.B.B.B.B.B.B.B.B.B.B.B.B.B.B.B.B.B.B.B.B.B.B.B.B.B.B.                                        ",
"                            g.g.s.d.B.B.B.B.B.B.B.B.B.B.B.B.B.B.B.B.B.B.B.B.B.B.B.B.B.B.B.B.B.B.B.                                        ",
"                            g.g.s.d.N.B.B.B.B.B.B.B.B.B.B.B.B.B.B.B.B.B.B.B.B.B.B.B.B.B.B.B.B.B.B.                                        ",
"                            j.j.h.f.F.D.D.D.A.C.B.B.B.B.B.B.B.B.B.B.B.B.B.B.B.B.B.B.C.Z.D.D.D.D.D.                                        ",
"                            B B C P.R.E.E.E.b.G.B.B.B.B.B.B.B.B.B.B.B.B.B.B.B.B.B.B.H.m.T.E.E.E.E.                                        ",
"                            S s S G J J J J Q.v.B.B.B.B.B.B.B.B.B.B.B.B.B.B.B.B.B.B.c.W.K L L L L                                         ",
"                            N v I W ( [ [ _  XY.B.B.B.B.B.B.B.B.B.B.B.B.B.B.B.B.B.B.n.|.] [ [ [ [                                         ",
"                            N N I W [ [ [ [  XY.B.B.B.B.B.B.B.B.B.B.B.B.B.B.B.B.B.B.n.|.] ( [ [ [                                         ",
"                            N N I W [ [ [ [  XY.B.B.B.B.B.B.B.B.B.B.B.B.B.B.B.B.B.B.n.|.] [ [ [ [                                         ",
"                              N Y W ( / Q E /.L.J.J.J.J.J.J.J.J.J.J.J.J.J.J.J.J.J.J.K.(.] [ [ [ [                                         ",
"                                      H M m %.w.M.M.M.M.M.M.M.M.M.M.M.M.M.M.M.M.M.M.!.).]                                                 ",
"                                        4 o.o.2.e.e.e.e.e.e.e.e.e.e.e.e.e.e.e.e.e.e.r.                                                    ",
"                                        { { X.1.p.p.p.p.p.p.p.p.p.p.7.4.4.7.p.p.p.p.p.                                                    ",
"                                        { { X.1.p.p.p.p.p.p.      7.,.;.:.3.9.p.p.p.p.                                                    ",
"                                        { { X.1.p.p.p.p.p.          } } ..,.9.p.p.p.p.                                                    ",
"                                        { { X.1.p.p.p.p.p.          { { } :.9.p.p.p.p.                                                    ",
"                                        { { X.1.p.p.p.p.p.          { { ..:.9.p.p.p.p.                                                    ",
"                                        { { ..<.u.p.p.p.p.          { {  .>.q.p.p.p.p.                                                    ",
"                                        2 o.O.0.y.y.y.y.y.          2 2 o.@.t.y.y.y.y.                                                    ",
"                                        5 5 $.-.Q.a.a.a..X          5 5 #.=.a.a..X.X.X                                                    ",
"                                        7 7 m _.[.[.[.[.[.          7 7 8 ^.'.[.[.[.[.                                                    ",
"                                        7 7 a.D [.[.[.[.[.          7 7 a.'.[.[.[.{.{.                                                    "
};
