/* XPM */
static char *b17d266a6a614c99c584f9d81121aec380nV2XHXnQliMlZD[] = {
/* columns rows colors chars-per-pixel */
"69 69 165 2 ",
"   c None",
".  c #652E0F",
"X  c #672F10",
"o  c #6C3414",
"O  c #783F1D",
"+  c #4D2B21",
"@  c #573122",
"#  c #5B3527",
"$  c #512E22",
"%  c #633823",
"&  c #6D3E24",
"*  c #673E2B",
"=  c #79401E",
"-  c #6E422E",
";  c #6F4025",
":  c #714127",
">  c #744429",
",  c #7C4A2E",
"<  c #435742",
"1  c #576951",
"2  c #49427F",
"3  c #58447E",
"4  c #5D597A",
"5  c #737176",
"6  c #7A797E",
"7  c #814725",
"8  c #884E2A",
"9  c #874D29",
"0  c #8C512D",
"q  c #8E5939",
"w  c #835237",
"e  c #915631",
"r  c #955E3F",
"t  c #9D5F39",
"y  c #9F623B",
"u  c #BA6B3F",
"i  c #9C6442",
"p  c #976140",
"a  c #9C7F5D",
"s  c #AB6D44",
"d  c #A16945",
"f  c #B06E45",
"g  c #AD714A",
"h  c #BD7A4F",
"j  c #B9734B",
"k  c #BB7C52",
"l  c #956B76",
"z  c #B47C75",
"x  c #C07246",
"c  c #C1784C",
"v  c #C07D50",
"b  c #C97E51",
"n  c #C17D5E",
"m  c #218479",
"M  c #66836F",
"N  c #78866A",
"B  c #6A8C75",
"V  c #BF8056",
"C  c #818D6E",
"Z  c #8C9878",
"A  c #919C7D",
"S  c #9F8764",
"D  c #AD9173",
"F  c #AAA07B",
"G  c #A6A07D",
"H  c #C58356",
"J  c #CE8557",
"K  c #C4845B",
"L  c #CA8759",
"P  c #C9895E",
"I  c #CC8D69",
"U  c #D28F60",
"Y  c #D59264",
"T  c #DA9768",
"R  c #DF9B6C",
"E  c #D7976B",
"W  c #C78B76",
"Q  c #CD9178",
"!  c #DA9F7C",
"~  c #D39676",
"^  c #CE906E",
"/  c #E09D6F",
"(  c #E09F72",
")  c #E1A276",
"_  c #E2A57C",
"`  c #382F82",
"'  c #3D348A",
"]  c #40378F",
"[  c #463C97",
"{  c #397AB9",
"}  c #544D93",
"|  c #585094",
" . c #6A6789",
".. c #7F7E83",
"X. c #767298",
"o. c #4F44A4",
"O. c #5449AD",
"+. c #5146A8",
"@. c #5A4EB5",
"#. c #5D52BB",
"$. c #5358AA",
"%. c #6258B2",
"&. c #4C6BBD",
"*. c #5363BF",
"=. c #4E78A3",
"-. c #7D65AA",
";. c #7269B7",
":. c #6D65B1",
">. c #5C5CC1",
",. c #575FC0",
"<. c #6256C2",
"1. c #5760C0",
"2. c #A4788D",
"3. c #A37A93",
"4. c #807DA5",
"5. c #1E908F",
"6. c #109E9C",
"7. c #1D9D99",
"8. c #278785",
"9. c #2B8D83",
"0. c #318682",
"q. c #3C9C8E",
"w. c #37978C",
"e. c #29908B",
"r. c #35A99E",
"t. c #3DA99C",
"y. c #159BB1",
"u. c #248EB5",
"i. c #3182B8",
"p. c #00AEAD",
"a. c #0EADA9",
"s. c #0BA4AF",
"d. c #1AABA5",
"f. c #0FA1B0",
"g. c #25ABA2",
"h. c #4A999B",
"j. c #609884",
"k. c #45A495",
"l. c #49A898",
"z. c #5CA692",
"x. c #69A58F",
"c. c #72A48C",
"v. c #87878B",
"b. c #8C8C90",
"n. c #999A9D",
"m. c #959599",
"M. c #8A9285",
"N. c #BB8783",
"B. c #B28C9C",
"V. c #89A285",
"C. c #96A181",
"Z. c #8581AA",
"A. c #9481BC",
"S. c #E4AB85",
"D. c #E9BA9A",
"F. c #CEA9A6",
"G. c #EABFA1",
"H. c #E9C3AD",
"J. c #EAC7B4",
"K. c #9080C1",
"L. c #C2B2CE",
"P. c #C0B3D3",
"I. c #F2D6C3",
"U. c #F0E2DF",
"Y. c #F1E6E5",
/* pixels */
"                                                                                                                                          ",
"                                                                                                                                          ",
"                                                                                                                                          ",
"                                                                                                                                          ",
"                                                                                                                                          ",
"                                                                                                                                          ",
"                                                                                                                                          ",
"                                                                                                                                          ",
"                                                                                                                                          ",
"                                                                                                                                          ",
"                                                                                                                                          ",
"                                                                                                                                          ",
"                                                                                                                                          ",
"                                                                                                                                          ",
"                                                                                                                                          ",
"                                                                                                                                          ",
"                                                                                                                                          ",
"                                                                                                                                          ",
"                                                                                                                                          ",
"                                                                                                                                          ",
"                                                                                                                                          ",
"                                                                                                                                          ",
"                                                                                                                                          ",
"                                    + + + + @ % & & & & & & & & & & & & & & & & & & & & &                                                 ",
"                                  + + + + + @ % & & & & & & & & & & & & & & & & & & & & & &                                               ",
"                                  + + + + + @ % & & & & & & & & & & & & & & & & & & & & & &                                               ",
"                                  + + + + + @ % & & & & & & & ; & & & & & & & & ; ; ; ; & &                                               ",
"                                  + + + + + @ % & : : : > > > > > > > > > > > > > > ; ; & &                                               ",
"                                  + + + + + @ % ; , q i i i i i i i i i i i i i y i q , ; &                                               ",
"                                  + + + + + @ % ; q g K I V K K K K K K K K K K K K g q & &                                               ",
"                                  + + $ @ # * - , i K R E R R R R R R R R R R R R R K i , ,                                               ",
"                                  + + # - w q r d k U R R R R R R R R R R R R R R R I k d d                                               ",
"                                  + + * w s j k P Y E E R R R R R R R R / R R R R R T Y P P                                               ",
"                                  + + - p h P Y R ) ! S.S.~ Q ^ R R R R R ~ Q ~ S.S._ ( R R                                               ",
"                                  + + - p h L Y R S.G.J.F.B.3.N.~ R R R Q N.3.B.F.J.H.S.R R                                               ",
"                                  + + - y k L Y R D.I.Y.P.K.:.3.W R R R Q 3.-.K.P.Y.J.D.R R                                               ",
"                                  + + - y k K Y R D.I.Y.L.A.-.2.W U Y Y W 3.-.K.L.U.I.D./ R                                               ",
"                                  + + - r k L Y R S.D.H.F.B.N.z n b b b k z 2.B.F.H.D.S./ R                                               ",
"                                  + + - y k L Y R / _ _ ) ~ I V x u u u c n ^ ~ ! ) ) / R R                                               ",
"                                  * * w y h L Y R / / E U L V V x x x x c v b P Y R R R / R                                               ",
"                                  r r i g h L Y R / R T H y t u b J J J b f t s v T / / / R                                               ",
"                                  k j h h v L Y R R R T f 8 = y b T T T L y O 9 g Y / / R R                                               ",
"                                  v k v v v L Y R R R T u = = 0 f k v k s 8 o 7 f Y / T / R                                               ",
"                                  v v v v v L Y R R R T g , . = 8 e e e 8 O X 7 s Y / / R R                                               ",
"                                  H c c v v L U ( / / T s 7 . X X X X X X X X , s Y / / / /                                               ",
"                                  B N C C C Z A C.A A A N 1 < < < < < < < < < 1 N A C.A A V.z.                                            ",
"                              8.9.q.k.q.q.q.k.k.l.l.l.l.w.m m m m m m m m m m 9.w.k.l.l.l.t.d.p.                                          ",
"                            8.8.5.6.p.p.p.p.p.p.p.p.p.p.p.p.p.p.p.p.p.p.p.p.p.p.p.p.p.p.p.p.p.p.p.                                        ",
"                            8.8.5.6.p.p.p.p.p.p.p.p.p.p.p.p.p.p.p.p.p.p.p.p.p.p.p.p.p.p.p.p.p.p.p.                                        ",
"                            8.8.5.6.p.p.p.p.p.p.p.p.p.p.p.p.p.p.p.p.p.p.p.p.p.p.p.p.p.p.p.p.p.p.p.                                        ",
"                            0.0.5.7.a.a.a.a.a.p.p.p.p.p.p.p.p.p.p.p.p.p.p.p.p.p.p.p.p.a.a.a.a.a.a.                                        ",
"                            M M B B z.z.z.z.t.g.p.p.p.p.p.p.p.p.p.p.p.p.p.p.p.p.p.p.d.t.z.z.z.z.z.                                        ",
"                            a a S D F F F F c.t.p.p.p.p.p.p.p.p.p.p.p.p.p.p.p.p.p.p.r.x.G G F F F                                         ",
"                            v v H U T R / / C.l.p.p.p.p.p.p.p.p.p.p.p.p.p.p.p.p.p.p.l.V.R R R R /                                         ",
"                            v v H U R R R R C.l.p.p.p.p.p.p.p.p.p.p.p.p.p.p.p.p.p.p.t.V.E / R R R                                         ",
"                            v v H U R R / R A z.p.p.p.p.p.p.p.p.p.p.p.p.p.p.p.p.p.p.l.V.R R R R R                                         ",
"                              v L U R T ^ W M.h.f.f.f.f.f.f.f.f.a.s.f.f.f.f.f.s.s.p.r.V.E / / / /                                         ",
"                                      D l l  .=.i.i.i.i.i.i.i.i.i.i.i.u.i.i.i.u.y.p.g.x.E                                                 ",
"                                        3 3 [ $.*.*.1.*.*.*.*.*.1.1.1.1.1.1.1.{ u.s.a.                                                    ",
"                                        ] ` [ +.<.>.<.<.<.<.<.<.<.<.#.#.#.#.>.1.i.y.y.                                                    ",
"                                        ` ` [ O.<.<.<.<.<.<.      #.+.o.+.@.>.1.&.{ i.                                                    ",
"                                        ` ` [ O.<.<.<.<.<.          ' ' ' O.#.>.>.1.1.                                                    ",
"                                        ` ` [ O.<.<.<.<.<.          ` ` ' +.#.<.<.<.<.                                                    ",
"                                        ` ` [ O.<.<.<.<.<.          ` ` [ o.#.<.<.<.<.                                                    ",
"                                        ` ` ' $.<.<.<.<.<.          ` ` ] +.#.<.<.<.<.                                                    ",
"                                        2 2 } $.;.;.;.;.;.          2 2 } | :.;.;.;.;.                                                    ",
"                                        4 4  .X.Z.Z.Z.Z.Z.          4 4  .X.X.Z.Z.Z.Z.                                                    ",
"                                        5 5 2.v.n.n.n.n.n.          5 5 6 v.n.n.n.n.n.                                                    ",
"                                        5 5 4.Z n.n.n.n.n.          5 5 6 v.m.n.n.n.n.                                                    "
};
