/* XPM */
static char *_6943e5a78004abc8c20d2bdd0131396o8ncoPTVWx4WpZtr[] = {
/* columns rows colors chars-per-pixel */
"69 69 165 2 ",
"   c None",
".  c #652E0F",
"X  c #672F10",
"o  c #6C3414",
"O  c #783F1D",
"+  c #4D2B21",
"@  c #573122",
"#  c #5B3527",
"$  c #512E22",
"%  c #633823",
"&  c #6D3E24",
"*  c #673E2B",
"=  c #79401E",
"-  c #6D422E",
";  c #6F4025",
":  c #714127",
">  c #744429",
",  c #7C4A2E",
"<  c #435742",
"1  c #576951",
"2  c #49427F",
"3  c #58447E",
"4  c #5D597A",
"5  c #737176",
"6  c #7A797E",
"7  c #814725",
"8  c #884E2A",
"9  c #874D29",
"0  c #8C512D",
"q  c #8E5939",
"w  c #835237",
"e  c #915631",
"r  c #945E3F",
"t  c #9D5F39",
"y  c #9F623B",
"u  c #BA6B3F",
"i  c #9C6442",
"p  c #976140",
"a  c #9C7F5D",
"s  c #A36A46",
"d  c #AB6D44",
"f  c #A06643",
"g  c #B06E45",
"h  c #AD714A",
"j  c #BC7A4F",
"k  c #B9734B",
"l  c #BB7C52",
"z  c #956C76",
"x  c #B47C75",
"c  c #C07246",
"v  c #C1784C",
"b  c #C07D50",
"n  c #C97E51",
"m  c #C17D5E",
"M  c #218479",
"N  c #66836F",
"B  c #78866A",
"V  c #6A8C75",
"C  c #BF8056",
"Z  c #818D6E",
"A  c #8C9878",
"S  c #919C7D",
"D  c #9F8764",
"F  c #AD9173",
"G  c #AAA07B",
"H  c #A6A07D",
"J  c #C58356",
"K  c #CE8557",
"L  c #C4845B",
"P  c #CA8759",
"I  c #C9895E",
"U  c #CC8D69",
"Y  c #D28F60",
"T  c #D59264",
"R  c #DA9768",
"E  c #DF9B6C",
"W  c #D7976B",
"Q  c #C78B76",
"!  c #CD9178",
"~  c #DA9F7C",
"^  c #D39676",
"/  c #CE906E",
"(  c #E09D6F",
")  c #E09F72",
"_  c #E1A276",
"`  c #E2A57C",
"'  c #382F82",
"]  c #3D348A",
"[  c #40378E",
"{  c #463C97",
"}  c #387BB9",
"|  c #544D93",
" . c #585094",
".. c #6A6789",
"X. c #7F7E83",
"o. c #767297",
"O. c #4F44A4",
"+. c #5449AD",
"@. c #5146A8",
"#. c #5A4EB5",
"$. c #5D52BB",
"%. c #5358AA",
"&. c #6258B2",
"*. c #4C6BBD",
"=. c #5363BF",
"-. c #4F78A2",
";. c #7D65AA",
":. c #7269B7",
">. c #6D65B1",
",. c #5C5CC1",
"<. c #575FC0",
"1. c #6256C2",
"2. c #5760C0",
"3. c #A4788D",
"4. c #A37A93",
"5. c #807DA5",
"6. c #1E908F",
"7. c #109E9C",
"8. c #1D9D98",
"9. c #278785",
"0. c #2B8E85",
"q. c #318682",
"w. c #3C9C8E",
"e. c #37978C",
"r. c #35A99E",
"t. c #3DA99C",
"y. c #159BB1",
"u. c #248EB5",
"i. c #3182B8",
"p. c #00AEAD",
"a. c #0EADA9",
"s. c #0BA4AF",
"d. c #1AABA5",
"f. c #0FA1B0",
"g. c #25ABA2",
"h. c #4B999B",
"j. c #609884",
"k. c #45A495",
"l. c #49A898",
"z. c #5CA692",
"x. c #69A58F",
"c. c #73A48C",
"v. c #87878B",
"b. c #8C8C90",
"n. c #999A9D",
"m. c #959599",
"M. c #8A9284",
"N. c #BB8783",
"B. c #B28C9C",
"V. c #89A285",
"C. c #96A181",
"Z. c #8581AA",
"A. c #9481BC",
"S. c #E4AB85",
"D. c #E9BA9A",
"F. c #CEA9A6",
"G. c #EABFA1",
"H. c #E9C3AD",
"J. c #EAC7B4",
"K. c #9080C1",
"L. c #C2B2CE",
"P. c #C0B3D3",
"I. c #F2D6C3",
"U. c #F0E2DF",
"Y. c #F1E6E5",
/* pixels */
"                                                                                                                                          ",
"                                                                                                                                          ",
"                                                                                                                                          ",
"                                                                                                                                          ",
"                                                                                                                                          ",
"                                                                                                                                          ",
"                                                                                                                                          ",
"                                                                                                                                          ",
"                                                                                                                                          ",
"                                                                                                                                          ",
"                                                                                                                                          ",
"                                                                                                                                          ",
"                                                                                                                                          ",
"                                                                                                                                          ",
"                                                                                                                                          ",
"                                                                                                                                          ",
"                                                                                                                                          ",
"                                                                                                                                          ",
"                                                                                                                                          ",
"                                                                                                                                          ",
"                                                                                                                                          ",
"                                                                                                                                          ",
"                                                                                                                                          ",
"                                                & & & & & & & & & & & & & & & & & & & & & % @ + + + +                                     ",
"                                              & & & & & & & & & & & & & & & & & & & & & & % @ + + + + +                                   ",
"                                              & & & & & & & & & & & & & & & & & & & & & & % @ + + + + +                                   ",
"                                              & & & & & & & ; ; & & & & & & & & ; & & & & % @ + + + + +                                   ",
"                                              & & : > > > > > > > > > > > > > > > > : - & % @ + + + + +                                   ",
"                                              & & , q p i i i i i i i i i i i i i i q , & % $ + + + + +                                   ",
"                                              & : q h L L L L L L L L L L L L L L L h q & % @ + + + + +                                   ",
"                                              > , i L E E E E E E E E E E E E E E E L i , - * # @ $ + +                                   ",
"                                              s s l Y E E E E E E E E E E E E E E E Y l s p q w - # + +                                   ",
"                                              P U Y R ( ( ( ( ( E E E E ( E E E ( ( R T I C k s q - + +                                   ",
"                                              ( ( ) ` S.^ ^ Q ^ E E E E E ^ ! ^ ~ S.` _ E T P j p - + +                                   ",
"                                              E ( S.G.J.F.B.3.N.^ E E E ! N.4.B.F.J.G.S.E T P j r - + +                                   ",
"                                              ( ( D.I.Y.P.K.;.3.Q E E E ! 4.;.K.L.Y.I.D.E T P j r - + +                                   ",
"                                              ( ( D.J.Y.L.A.;.3.Q Y T T Q 4.;.K.L.U.J.D.( T P j p - + +                                   ",
"                                              ( ( S.D.H.F.B.3.F m n n n l x 3.B.F.H.H.S.( T P j r - + +                                   ",
"                                              ( ( ( _ ` ~ ^ / C c u u u v m / ^ _ ` _ ( ( Y P j r - + +                                   ",
"                                              ( R ( ( ( T P C C c c c c v b n I Y R ( ( ( T K j i , - -                                   ",
"                                              E E E ( R J y y u n K K K b g t d b R ( E E T P j h i q r                                   ",
"                                              E E ( E T g 8 = y n R R E P y O 8 g R ( E E T P b j l l l                                   ",
"                                              E E E E R g 7 o 0 d l l l d 0 o 7 d T R ( E T P b b b b b                                   ",
"                                              ( E ( E R g 7 o = 8 e e e 8 = X 7 g T ( ( E T P b v b b b                                   ",
"                                              E ( ( ( R d , . o X X X X X X . 7 d T ( ( ( Y K b b b b b                                   ",
"                                            z.V.C.S S S B 1 < < < < < < < < < 1 B S C.C.C.A Z Z Z Z Z V                                   ",
"                                          p.d.r.l.l.l.l.e.M M M M M M M M M M 0.e.k.l.l.l.k.k.k.w.k.w.e.0.9.                              ",
"                                        p.p.p.p.p.p.p.p.p.p.p.p.p.p.p.p.p.p.p.p.p.p.p.p.p.p.p.p.p.p.p.7.6.9.9.                            ",
"                                        p.p.p.p.p.p.p.p.p.p.p.p.p.p.p.p.p.p.p.p.p.p.p.p.p.p.p.p.p.p.p.7.6.9.9.                            ",
"                                        p.p.p.p.p.p.p.p.p.p.p.p.p.p.p.p.p.p.p.p.p.p.p.p.p.p.p.p.p.p.p.7.6.9.9.                            ",
"                                        a.a.a.a.a.a.a.p.p.p.p.p.p.p.p.p.p.p.p.p.p.p.p.p.p.p.a.a.a.a.d.6.0.q.q.                            ",
"                                        z.z.z.z.z.t.d.p.p.p.p.p.p.p.p.p.p.p.p.p.p.p.p.p.p.g.t.z.z.z.z.j.V N N                             ",
"                                        G G G G C.c.r.p.p.p.p.p.p.p.p.p.p.p.p.p.p.p.p.p.p.t.c.G G G G D D D a                             ",
"                                        ( ( R ( E V.t.p.p.p.p.p.p.p.p.p.p.p.p.p.p.p.p.p.p.l.C.E E ( ( Y J b b                             ",
"                                        ( ( E E E V.l.p.p.p.p.p.p.p.p.p.p.p.p.p.p.p.p.p.p.l.C.R ( ( R Y J b b                             ",
"                                        R ( E ( W V.t.p.p.p.p.p.p.p.p.p.p.p.p.p.p.p.p.p.p.l.C.( R ( ( K K b b                             ",
"                                        ( ( ( ( W V.t.p.p.s.f.f.f.f.f.f.f.f.f.f.f.f.f.f.f.h.M.Q / R E Y L b                               ",
"                                                ^ x.g.p.y.u.i.i.i.i.i.i.i.i.i.i.i.i.i.i.i.-...z z F                                       ",
"                                                    a.p.u.*.=.=.2.=.=.=.=.=.=.=.=.=.=.=.=.%. .3 3                                         ",
"                                                    y.y.i.*.1.$.$.$.$.,.1.1.1.1.1.1.1.1.1.+.{ ' [                                         ",
"                                                    i.} *.2.$.#.O.O.@.$.      1.1.1.1.1.$.+.{ ' '                                         ",
"                                                    2.2.,.1.$.+.{ ] [           1.1.1.1.1.+.{ ' '                                         ",
"                                                    1.1.1.1.$.O.] '             1.1.1.1.1.+.{ ' [                                         ",
"                                                    1.1.1.1.$.O.[ '             1.1.1.1.1.+.{ ' '                                         ",
"                                                    1.1.1.1.$.O.' '             1.1.1.1.&.+.{ ' '                                         ",
"                                                    :.:.:.:.:. .| 2             :.:.:.:.:.&. .2 2                                         ",
"                                                    Z.Z.Z.Z.5.o...4             Z.Z.Z.Z.Z.o.5 4 4                                         ",
"                                                    n.n.n.n.m.v.X.5             n.n.n.n.n.v.6 5 5                                         ",
"                                                    n.n.n.n.m.v.6 5             n.n.n.n.n.b.5.5 5                                         "
};
