/* XPM */
static char *ae790efcbe1a460acde23306b3c914ebX9RUtPUmbggH2qlC[] = {
/* columns rows colors chars-per-pixel */
"69 63 248 2 ",
"   c None",
".  c #190E07",
"X  c #11100F",
"o  c #381C09",
"O  c #2E1C0F",
"+  c #3B210F",
"@  c #3B2313",
"#  c #38261A",
"$  c #2D221B",
"%  c #2D2C2C",
"&  c #2A2724",
"*  c #382D25",
"=  c #39322E",
"-  c #333333",
";  c #3A3A3A",
":  c #3A3534",
">  c #312F31",
",  c #551C0E",
"<  c #5D1911",
"1  c #571A10",
"2  c #4C1E0D",
"3  c #7E0E19",
"4  c #691613",
"5  c #751515",
"6  c #6E100F",
"7  c #44210C",
"8  c #49200C",
"9  c #442C1B",
"0  c #4A2D1C",
"q  c #472613",
"w  c #562B16",
"e  c #4D311E",
"r  c #58361B",
"t  c #642818",
"y  c #762619",
"u  c #6A3D18",
"i  c #4C3424",
"p  c #49362A",
"a  c #523B2C",
"s  c #553828",
"d  c #453D37",
"f  c #513C32",
"g  c #522A23",
"h  c #6C3930",
"j  c #764C1D",
"k  c #49413C",
"l  c #5D4333",
"z  c #5A4A3E",
"x  c #564339",
"c  c #5C412C",
"v  c #68462A",
"b  c #734C26",
"n  c #7C5329",
"m  c #664A38",
"M  c #7B5A3B",
"N  c #775538",
"B  c #6D4E3D",
"V  c #563B4C",
"C  c #3F4040",
"Z  c #444545",
"A  c #4C4C4B",
"S  c #4A4646",
"D  c #5C4C43",
"F  c #564C4A",
"G  c #5D524A",
"H  c #545454",
"J  c #5D5C5C",
"K  c #5D5754",
"L  c #654B45",
"P  c #635145",
"I  c #63554C",
"U  c #6B5749",
"Y  c #755B47",
"T  c #6B5D54",
"R  c #685957",
"E  c #745B59",
"W  c #734957",
"Q  c #786247",
"!  c #68615B",
"~  c #77655B",
"^  c #785762",
"/  c #774D60",
"(  c #646464",
")  c #6C6968",
"_  c #746D6C",
"`  c #766866",
"'  c #7B726C",
"]  c #74706D",
"[  c #737373",
"{  c #7B7B7B",
"}  c #7A7774",
"|  c #6D7671",
" . c #40737D",
".. c #850D1A",
"X. c #8A0C1B",
"o. c #880D12",
"O. c #940D1B",
"+. c #9C0D1B",
"@. c #851715",
"#. c #971418",
"$. c #A40E1B",
"%. c #A90E1B",
"&. c #B40F1B",
"*. c #B80F1C",
"=. c #A9111A",
"-. c #BA121E",
";. c #B6111C",
":. c #B51B09",
">. c #872A1D",
",. c #AC270F",
"<. c #903125",
"1. c #B12D2D",
"2. c #BC1621",
"3. c #FC1A08",
"4. c #FE250D",
"5. c #FD3614",
"6. c #FE2C12",
"7. c #C81925",
"8. c #D7242E",
"9. c #CE3334",
"0. c #D93336",
"q. c #D72C32",
"w. c #E92D37",
"e. c #ED333B",
"r. c #F0363D",
"t. c #D31706",
"y. c #87592A",
"u. c #845C34",
"i. c #865936",
"p. c #93552B",
"a. c #99662A",
"s. c #8A633A",
"d. c #986839",
"f. c #9D713D",
"g. c #8C602A",
"h. c #A6743C",
"j. c #B77534",
"k. c #AA6F2F",
"l. c #AB6226",
"z. c #D74312",
"x. c #FD471B",
"c. c #FC581B",
"v. c #FB7B1C",
"b. c #FC6F1D",
"n. c #FD5822",
"m. c #C87735",
"M. c #FB7B24",
"N. c #FB6B2F",
"B. c #D0671E",
"V. c #876545",
"C. c #966D42",
"Z. c #866957",
"A. c #9C7247",
"S. c #A87A45",
"D. c #AE7552",
"F. c #84746B",
"G. c #877466",
"H. c #887B77",
"J. c #926E76",
"K. c #A0585A",
"L. c #B98235",
"P. c #FB881E",
"I. c #FC921D",
"U. c #C88839",
"Y. c #D38A3F",
"T. c #FB8423",
"R. c #FB8C23",
"E. c #FB892A",
"W. c #FB932B",
"Q. c #FB9628",
"!. c #FD8939",
"~. c #FB9A33",
"^. c #EB8D32",
"/. c #FBA63A",
"(. c #FDA32D",
"). c #BB894A",
"_. c #B98E57",
"`. c #AF8653",
"'. c #89817C",
"]. c #94867D",
"[. c #B58B6B",
"{. c #C18F51",
"}. c #C79554",
"|. c #CE944D",
" X c #FA9946",
".X c #FE9D52",
"XX c #EE9044",
"oX c #DAA45E",
"OX c #FCA649",
"+X c #FDA354",
"@X c #FCAA58",
"#X c #FDB559",
"$X c #FBB54E",
"%X c #D7AC6F",
"&X c #FCB762",
"*X c #E4B068",
"=X c #EAC17F",
"-X c #7F7F80",
";X c #957F84",
":X c #798689",
">X c #848484",
",X c #8B8C8C",
"<X c #888986",
"1X c #978B87",
"2X c #98928D",
"3X c #8D9595",
"4X c #939393",
"5X c #9B9B9B",
"6X c #989794",
"7X c #8C908A",
"8X c #A29D9B",
"9X c #A29895",
"0X c #AA918B",
"qX c #A7A29E",
"wX c #97A6A7",
"eX c #A3A3A3",
"rX c #ABABAB",
"tX c #A9A7A6",
"yX c #B2AAA9",
"uX c #ABB4B4",
"iX c #AAB9B9",
"pX c #B4B4B4",
"aX c #B3BCBC",
"sX c #BCBCBC",
"dX c #B7B7B7",
"fX c #B2B1AD",
"gX c #CB9495",
"hX c #C7AA85",
"jX c #C2BDBD",
"kX c #C6B3B4",
"lX c #D5BABB",
"zX c #D6ABAD",
"xX c #DF989C",
"cX c #B5C0BF",
"vX c #F1CC98",
"bX c #9BC7C6",
"nX c #8DCBCB",
"mX c #A4C6C6",
"MX c #B5C2C2",
"NX c #BAC6C6",
"BX c #A7D0D0",
"VX c #C4C4C4",
"CX c #CBCBCB",
"ZX c #C7C7C7",
"AX c #D5D5D4",
"SX c #C7D2D2",
"DX c #E4E4E4",
"FX c #DFDFE0",
/* pixels */
"                                                                                                                                          ",
"                                                                                                                                          ",
"                                                                                                                                          ",
"                                            7 w                                                                                           ",
"                                              4 #.@.y                                                                                     ",
"                                y y >.y t       #.&.-.1.>.                                                                                ",
"                          t <.q.w.e.e.e.0.9.>.w 1.-.&.2.q.<.                                                                              ",
"                        >.0.w.8.7.7.7.7.8.w.r.0.q.&.&.*.7.0.y                                                                             ",
"                      <.8.7.;.*.&.&.&.&.&.*.7.q.2.&.&.*.-.r.1.                                                                            ",
"                    @.2.*.&.&.*.*.*.&.&.&.&.&.*.&.&.&.&.*.w.9.                                                                            ",
"                  , @.#.$.*.&.=.$.$.$.-.%.+.X.O.$.&.&.&.*.w.0.                                                                            ",
"                  8   8 @.*.$.O...X.$.+.X.....3 3 O.&.*.-.w.0.                                                          m                 ",
"                      4 =.$.X.X...O.+.X...4 4 8 1 < @.@.t <.<.                                                      P '.6Xl               ",
"                      #.%.O...5 ..O.X.3 4           i k J [ B                                                   a ` 6XrXuXU               ",
"                    5 &.+...< 4 X.....1         i x J { 5XtX0XK.w                                           7 d [ 4XqXiXiX`               ",
"                    #.&.X.4 7 6 ....<       @ p S J 4XfXfXyXqXgXK.t                                         * ( ,X5XrXMXiX1X              ",
"                  4 =.=...,   5 ..4       9 d A H 3XdXsXdXdXdXpXxXD.t                                     @ k :X6X8XMXmXaX5X              ",
"                  5 ;.$.5     4 3 1     # d A H -X5XjXjXNXjXsXsXzXxXJ.r                                   # J 4X5XrXNXbXMXpXB             ",
"                  @.&.+.4     4 <     @ - A H } 3X6XdXZXVXZXVXVXkXzXzXZ.                                  d -X4X5XNXBXbXNXrXl             ",
"                  #.&.+.<     2 2     * ; A ( ,X4X5XrXZXCXCXCXZXVXkXzXgXm                               # H ,X5XrXSXnXbXNXH.              ",
"                  #.;.O.1           + * Z H { ,X4XeXeXsXCXCXCXCXZXVXlXlXJ.                              = [ 4X5XVXVXnXmXiXm               ",
"                  #.*.O.,           @ > S J <X3X4XeXtXrXjXCXAXAXSXCXlXlXyXa                           @ F ,X6XrXFXjXmXBX'.                ",
"                  @.;.#.8           $ : A ) <XH.2XeXrXdXdXjXCXSXAXCXZXlXjXQ                           = | 4X5XZXDXVXMXmXU                 ",
"                  5 ;.+.            & C H [ } v M Q F.2XpXcXjXVXCXZXjXkXjXF.                        @ S >X6XrXDXFXZXVX7X                  ",
"                  , =.$.          o % Z H -XT k.Y.m.k.N tXsXjXVX1XZ.Z.Y yX1X                        * ( 4X5XCXDXCXVXsXY                   ",
"                    @.#.          # % S J { N U.m.j.j.i.qXdXcXyXN j.m.y.8X1X                      + d >X6XrXDXCXZXZX9X                    ",
"                    , @.          $ - A ( ] y.Y.g.w n u.8XdXsX].a.Y.Y.i.8X1X                      * J 7X5XZXAXaXVXjXQ                     ",
"                      ,           & ; A ] ~ a.Y.k.h.{.C.6XdXdXG.d.u a.y.qX].                    + : { 4X5XAXVXpXVXqX                      ",
"                                + & C A } I j.U.V.| Q d.' 8X8XQ ).n b N eXH.              7     q F ` Q s.V.tXsXVX~                       ",
"                                O % S H } U j.j.6X:XI `.f.s.s.u.Q C.S.s.eX~               u.      a f.L.L.a.'.jXqXc                       ",
"                                $ > Z J } P j.j.V.B N oX*X*XoXf. .wXV.Y tXY             N %XC.    s.S.i.p.k.V.sXG.                        ",
"                                + ; S J [ ) v f.}.}.}.}.`.h._.M P 1XC.Q eXB             A.=X%Xs.w A.d.1.p.k.M F.s                         ",
"                                @ ; Z ( [ [ ] ! Y u.S.f.D.[.f._.f.g.n ' qXs             `.%XC.N m h.).y.g.k.j                             ",
"                        f m   7 @ d A ( [ [ { { -XT d.i.C.A.u.d.Y Y ~ 4X6Xs e l s       s.s.a ! ) M U.U.j.j                               ",
"                    s Z.0X9XH.U f 9 d ! ] [ } { { U )._.{.{.{.s.{ ,X,X5X].T P 2X2X' l q p s D | | m g.g.g.y.v e v r                       ",
"                m ^ ;X1XJ.F.9XyXyX2XF.~ I G T ! ] M {.n t v S.M { >X>XeXF.` ! '.rXeX>Xx J G F x m c T ! s b _.%XhXY                       ",
"        0 a L ` ;X;XE N k.j.p.~ ].tXjXVXjXfXqXZ.G C.*X}.f.S.}.Y } :X'.rX~ | ` ' eX6X,XD ( ( I , u c ] [ z   `.vXhX                        ",
"    0 L ^ ` J.^ L p.j.XX.X.X.XXXj.a.V.G.].qXAX].a d.}.*X*X*XoXN } { [ ~ I } ' ~ 4X2X>XD ( ( D 6 o.w K G p   _.hXB                         ",
"    s ^ / L i.l.m.XX.X.X@X@X+X@XOX X XXXY.u.dX1Xs U Y M s.f.d.m ) P x I | { ~ _ ,X<X{ D ( R w 6 o.B ! R 0 w M v                           ",
"    i ^ h )..X.XXX.X+X+X@X@X#X@XOXR.Q.OX$Xh.yX2X! 3X3X>X} ` I a P R z ] | } P } :X{ ] a F D 6 o.@.I [ !                                   ",
"    p ^ B |.@XOX X.X@X&X&X&X$X/.Q.P.Q.OXOXh.yX2X' wXwX3X7X,X-X{ qX,XD ] ) P R [ [ [ P `.`.v , 5 h G D a                                   ",
"    0 W L {.#X@X X+X@X&X&X@X/.(.Q.P.R. XOXd.pX1X1XMXaXiXuXrXtXtXuX2Xx D i x ! ) | ) Q %X%X}.k.j R [ ! i                                   ",
"      R U S.#X#X.X+X&X&X$X/./.(.Q.P.R.~. Xd.sX].eXSXZXNXiXiXtXeXfX<X0       i f z z s d.).|.U.k.N R G                                     ",
"      L ^ d.#X#X X@X@XOXOX/./.(.Q.P.R. XXXV.jXH.uXZXNXMXaXuXeXeXrX'                     u j k.U._._.v                                     ",
"      D ` N @X#XOX.X X~././.~.Q.R.P.M.XXN.Z.VXF.iXNXMXsXiXrXeXtXrXU                           j `.[.v                                     ",
"      a ` L |.&X+X~.~.~.~.~.Q.W.Q.T.N. Xm.H.dXF.MXMXMXiXuXwX5XtX1Xs                                                                       ",
"      0 R R L.&X/.T.!.W.E.W.W.R.P.b.N.N.l.9XqX'.MXiXuXuXtX5X4XeXT                                                                         ",
"        D | M $X(.T.E.E.E.R.T.P.P.n.n.N.p.pX].7XiXiXwXwX3X>X,X'.i                                                                         ",
"        i R I L.(.P.P.P.T.T.R.v.n.x.n.B.Z.dX~ ,X3X3X,X:X{ [ ' l                                                                           ",
"          S J b Q.P.v.v.T.v.v.c.x.x.n.p.8X8Xl I ) } ) R P T F.Y                                                                           ",
"          i J D l.I.v.P.v.b.x.5.5.5.z.V.pX` } ' P l ~ F.2XeXdXyXm                                                                         ",
"            z ( v L.P.b.c.5.6.5.6.6.p.qX8XL } >XT ! 7X,X,X,X,XrX6Xs                                                                       ",
"            0 K ( b z.6.3.4.4.6.6.,.'.rXT H J F f ( ) | { :X>X4XrXF.                                                                      ",
"              i ! ) y t.3.3.4.3.:.~ tX' x J H p p J ( ( ( ( ( ( -XqXU                                                                     ",
"                x ) _ h :.3.3.,.~ eXH.p : ; d   9 k Z Z S S A F z P l                                                                     ",
"                  a ) { U >.>.~ 5XH.f g q * @     * = p i 9 9 # g g                                                                       ",
"                    i ! '.H.-X6X` p - / h +       7 7   o . % > V J.W q                                                                   ",
"                      7 f ] '.G * > - / J.s           o X & & % - / ;XW 9                                                                 ",
"                        o $ * & > > ; ^ ;XF           . X & & > > F J.) d                                                                 ",
"                          + $ * > - S ^ J.W 9       O X X & % > - F _ R p                                                                 ",
"                              @ # p F ) ) F 9         . X & & % = f x i                                                                   ",
"                                    0 a p 0             o @ @ q                                                                           ",
"                                                                                                                                          "
};
