/* XPM */
static char *_b5367fdace24865b156ecba22a75730M0V8v67Z68om85Al[] = {
/* columns rows colors chars-per-pixel */
"69 69 130 2 ",
"   c None",
".  c #020105",
"X  c #06030B",
"o  c #08050E",
"O  c #070611",
"+  c #0A0611",
"@  c #0C0915",
"#  c #0B041E",
"$  c #0F0A19",
"%  c #100B17",
"&  c #110D1C",
"*  c #0C0225",
"=  c #0E032B",
"-  c #150E21",
";  c #180F24",
":  c #11042C",
">  c #161123",
",  c #191226",
"<  c #1C142B",
"1  c #1F182F",
"2  c #140334",
"3  c #190436",
"4  c #160836",
"5  c #14023C",
"6  c #1B043C",
"7  c #1F1730",
"8  c #1F1831",
"9  c #20162F",
"0  c #211732",
"q  c #231935",
"w  c #261C3A",
"e  c #291D3C",
"r  c #160242",
"t  c #1C0443",
"y  c #1D0945",
"u  c #1D024E",
"i  c #1F084B",
"p  c #1E0154",
"a  c #1F005A",
"s  c #230744",
"d  c #240945",
"f  c #22054C",
"g  c #24094A",
"h  c #2E0D4F",
"j  c #2C1F41",
"k  c #210355",
"l  c #270D51",
"z  c #2B0B55",
"x  c #23025C",
"c  c #28035E",
"v  c #2E0B5D",
"b  c #300E57",
"n  c #330E5B",
"m  c #37125F",
"M  c #38145C",
"N  c #2D2043",
"B  c #302146",
"V  c #33234A",
"C  c #38264F",
"Z  c #372550",
"A  c #392650",
"S  c #250163",
"D  c #2A0464",
"F  c #26016A",
"G  c #2B026C",
"H  c #2F086A",
"J  c #310764",
"K  c #330B64",
"L  c #31056D",
"P  c #34096A",
"I  c #3A0C6C",
"U  c #2D0273",
"Y  c #2E0179",
"T  c #320474",
"R  c #380776",
"E  c #360971",
"W  c #3B0B74",
"Q  c #34037B",
"!  c #39067D",
"~  c #370878",
"^  c #3C0A7B",
"/  c #410F77",
"(  c #420D7D",
")  c #471677",
"_  c #45117A",
"`  c #4B157D",
"'  c #4D1A7B",
"]  c #511E7D",
"[  c #360481",
"{  c #3B0583",
"}  c #3E0983",
"|  c #3E0589",
" . c #400786",
".. c #430C84",
"X. c #490E86",
"o. c #41068B",
"O. c #450A8B",
"+. c #4A0D8E",
"@. c #471281",
"#. c #4A1285",
"$. c #4D128C",
"%. c #511B86",
"&. c #52168D",
"*. c #54198E",
"=. c #460790",
"-. c #470991",
";. c #4C0C93",
":. c #4F0C98",
">. c #500E95",
",. c #520E9A",
"<. c #4E1192",
"1. c #531394",
"2. c #571994",
"3. c #5A1B95",
"4. c #54129A",
"5. c #59169D",
"6. c #5C1A9C",
"7. c #611E9E",
"8. c #59218C",
"9. c #602299",
"0. c #5C16A1",
"q. c #5E1AA2",
"w. c #631DA5",
"e. c #661EA9",
"r. c #6420A5",
"t. c #6620A8",
"y. c #6C26AC",
"u. c #7126B0",
"i. c #742CB3",
"p. c #7A33B7",
/* pixels */
"                                  X . . . . X @ + @ 0 e < X & N V 0 @ X . . . . + @ o , j 0 @ $ w N e >                                   ",
"                                  . . < q < $ o @ 0 w & + X 1 B & X . . & q 9 - o O > N > @ o > N 0 o X +                                 ",
"                                  X w N w 9 < % $ < & % X . + < + . . > N e 9 < > @ < & & o . o > % . o < ,                               ",
"                                  o e < & & $ o . . . X . X X X . X X < 1 > & % + . . . X . . X + o . @ > <                               ",
"                                  % > % X o @ & o o X > V 1 + X . . % & & @ . o % @ + X o B w & X . . X + +                               ",
"                                  @ % + ; 0 j V N , . + < . X $ @ X @ % @ & 8 e V B q X . 0 o . @ @ o + o X                               ",
"                                  X . 0 B < & @ $ > + . . . $ N q @ . . & N w & $ + > @ . . . @ w e > X , &                               ",
"                                  - + < , > $ - 0 w > X . + > & @ @ & % > 1 & & & 1 e < o . + & & % @ $ & o                               ",
"                                  , @ X . o + @ ; - + X . o @ @ . , < & o . X o @ - , + X . X @ + o $ , % &                               ",
"                                  o @ o X o X X + % & 0 9 > & @ @ , % @ o X o @ . o & + 0 0 , - @ @ & - @ $                               ",
"                                  @ e e & o + @ & - e V < & & e > @ o 1 e < + o @ $ & q A q > & w 0 $ @ + O                               ",
"                                  0 e < % o o o @ & ; - + X o & 1 @ > w 0 & o o o + & ; , @ o o @ , > $ & -                               ",
"                                  % 0 @ o @ o & , $ @ @ + . X . X o + > > o @ + $ , $ @ @ $ X . . X o + @ %                               ",
"                                  % o o % X X @ , < @ o o X X X X o + @ o + + . + - < $ o o o . X X X X X o                               ",
". . X X . + @ X - w q - @ < B e , . . # 3 6 6 6 3 2 5 6 6 6 d g 4 = 2 6 6 d d t 6 3 2 t 5 4 6 s 3 : * # . . X X . + + o & q 0 & @ 0 B w , ",
". X w q , + o - w 0 $ + + 0 w @ X X X M / I I / k p S S p x H J a x S E %.#./ #.W x p D x p x H x u u 2 . @ q w , O + > e 0 $ + & w w + X ",
"o e j 1 < < o - & & @ . . @ & X . & - K P ` _ D p D ^ ..R L ! ^ S S L ..$.X.3.@.D x H ....L T W D k f 3 & j j < < , % & - % @ . X $ & . X ",
"@ e > % $ + X X . X o o o o X . . & O u c P c a T #.( ^ E G ..3.^ S D T T ^ ^ S D ^ +.} ( G L #.( L p 2 & q > & % + . X . X o + o o o . X ",
"% - @ o + > % $ o X < e > X . . . + X 5 p u k ^ $.^ S a S S S ~ +.X.T a S G S F 1.1.^ a x S x D W X.E t & & $ o @ > & @ o X 9 e & o . . X ",
"$ @ % < q N e q @ . % - X o & @ X O $ J D S / 2.^ x S S U Y G S ~ 1.<.Q } ! ! 1.6.~ a S F U G S D L ..b % @ $ < 0 N e q @ . - % . + & + X ",
". X w N > % + < - + . . o , q < + X & J D S E ! F F F ~ O.O.;.! S Q { { =.Q Q O.{ D G G }  .O...D x D s . @ e N - & @ > > + . . + < w < + ",
"- @ < - & $ < w < & . X @ - & @ @ $ $ J D x T ! U D S ! 4.r.q.[ G U | o.-.Q Y  .! Y U F O.5.7.+.D a D z & $ , & & $ 1 w 8 $ . X $ - % @ @ ",
"- + X . o X $ > % + o X + @ + @ < O . x x x ^ 1...T T [ +.4.0.<.! Y [ Q [ F Q <.0...U T { ;.4.1.! D S k - O . . + o & , % o X X @ @ o + < ",
"o - + + @ X X & % 0 B w < - & % - X X f D x x ^ 7.3.}  .,.w.r.O.G ~  .Q [ ! F G 4.e.6.[ O.1.r.1.H S H f @ & @ o @ X o @ & 0 B w ; - & & - ",
"- V w & X @ @ $ 8 j q % @ > w - + ; O x _ @.L D ^ q.4.;.0.5.} G ! 0.q.| | q.<.Y U $.r.<.;.q.$.H D ~ &.m < V w @ X + $ $ < j q $ @ < w - + ",
"1 e $ + o o @ $ $ - $ + X X @ - + - X p H $.2.^ S E { { } U G } 5.5.} Y [ | t.7.Q F ! } { ! G G ..<._ l 0 q $ X + o $ $ % - $ o X X @ ; + ",
"@ 9 X + @ + 8 & + @ % @ . X . . X $ X u a R 9.6.T F U Q U F Q 0.<.^ U F Y Y 0.p.,.U F Y Q G F O.$...D 5 - > . @ $ + 1 & + @ $ + . X . . X ",
"@ . X X . o $ 1 - & > @ X + - > - X . 5 D E ..+.{ Q -.;.} | 4.<.U G G F F [ -.,.:.| [ 4.-.Q O.<.~ S a 6 + X . @ . X & < - & - + X + - ; & ",
"X . X X . + @ X > q 0 & @ < N w - . . J ^ ..X.O.E U ! [ U Q -.,.Y G Y } <.0.,.,.;.Q U | [ S ~ +.~ D x r . . . X . @ + X - w 0 $ $ q B w ; ",
". . e e 1 o X > e 1 $ + + 0 w + X O - ' #.*.1.X.D F }  .! Q | [ U Y [ ,.y.q.q.q. .G F =. .U Q { G S D u . % e j < + + > e 0 % X $ q w X X ",
"+ B j 1 > 1 + > & % @ . X @ & X . - - D W #.W F G +.4.:.O.| ,.r.! G Q -.-.:.q.} G ! >.,.,.{  .6...D x 6 > N e < > < @ - & % @ . X $ & . X ",
"@ w & & % X . . . . X o o X X . . - O r S c x H <.4.~ U U F Q <.5.[ F F U [ F F O.4.4.H Y U G ^ >.O.D 2 & q & & & X . . . . X o + X X . o ",
"& & $ X o < - $ o X 9 N < X . . . O o u S x W 6.<.F S S F U S G O.q.<.G Y Y Q -.y.<.F S S F F S L ..$.z & & @ X + , - $ o X 0 N - X X . . ",
"$ + $ < 1 N e q @ . $ % . o > @ X O ; I T D X.+.U S F [ | o. .Y F O.,.=.4.| } 0.;.U G U [ [ { Q S D W v @ + & 0 0 j e 0 $ . % $ . @ - @ X ",
". X j j > % + < > + . . X < w < + O & H D S U Q U U D { 4.q.0.{ F U | | =.[ Y } Q Y T U -.5.0.<.D a D f . @ j j > % $ < < + . . @ < q ; + ",
"> $ > & & $ 1 w 8 % . X $ & $ @ @ @ + J S S ..<.Q G U [ :.q.0.-.[ [ | | | Y [ 0.<.Q U U [ 4.5.<.[ G G z > & - $ & $ 1 w 1 $ . X & & & @ @ ",
"- + . . o o @ > @ o X . o @ o + 7 X . p x p F <.6.@.Q | ;.q.u.6.Y F Y Y [ F F [ q.q.O.Q O.;.w.w.^ S x i & o X . o o $ > @ o X . @ @ o @ 7 ",
"X - @ + $ . X $ $ w C B 8 & - % & O o c / E D H 3.y.1.=.0.t.<.U U :.q.[ | 0.[ F } r.u.O.=.e.6.^ S D @.M + & + + & . o % @ q A N < & & & & ",
"> C j & X $ $ % 0 j 0 @ o , e - O , O k W *.X.H F O.<.-.;...U U <.t.4.[ | 0.q.<.U U ;.;.;.;.E S Q $.*.v 7 C j @ . @ @ & < j 9 @ + < e - + ",
"1 w @ X + o $ $ @ & @ o . X + - O - X u x ^ 6.2.H G U [ Y F T 4.0.} U F Y Y q.p.<.Y F Q Q F F ^ $.X.H y 0 7 @ X + o & @ & & @ X . X O ; + ",
"@ > X + + X < < % @ + o X X X X X @ X 5 x T +.1.} Y O.;.{ { 4.>.Q G F F F [ -.q.:.[ Y ,.-.Q } 1.^ D a 6 $ $ X @ + + , < & + @ o X X . X o ",
"X . . X . X % & + < q > X @ 0 e < . . k R .... .Q U [ } Y ! ;.4.Y F U | | ,.,.:.-.[ Y O.[ G { ;.^ S a r X . . X . o & & @ , 0 $ X & 0 w < ",
"X . X @ . $ + . 0 w > + $ e B , $ . O ] &.$.1.&.F D Q { U Y [ Q U Y [ <.i.q.0.w.;.U F [ ! G U Q G S D t X . + @ . @ + . 0 w - + > N B > @ ",
". @ C V w o o 8 j < % + X , 7 o X @ < P / 3.X.H F ! ;.4.;.{ ;.4.U G [ ,.4.,.y.+.G L | 4.5.|  .<.~ S c y . & C V w X @ 8 j < % + + < 8 . o ",
"@ e w < > < + & $ $ + . X @ % . . - $ u D L D D } 1.+.} ! Y X.w.<.U U Y Y | ! G T $.5.} } Y U &.<.! x 2 - j w < > < @ % $ @ O . . $ $ . o ",
"@ w - % & O . . . . o @ @ X X . X $ X r x p D $.4.^ S S F F F Q <.<.Q F G U G Q q.4.} a S F S D ^ X.( r & 0 - $ $ + X X . X o $ + X o . X ",
"& & @ + $ < < % + X , j ; X . . . + $ P L H ..1.^ S F U U Q T D Y <.4.} ;.} } 5.6.Q S G U Y Q G S L ..b % - @ o @ < > % + X 0 w & o . . . ",
"@ @ % 0 0 e w 8 @ . @ $ . + , & X O & c D x L ! G S F ! -.;.:.! S T } } | Q Y O.[ U U G }  .$. .D p D f @ + % w 0 e q 1 $ . $ @ . @ , $ X ",
". X N e > & @ < < $ . . o < 0 < + O $ D D S T ! U D D ! 4.w.7.! G U |  .O.Y Q  .{ Y U D  .5.7.+.G x D f . @ N e > % $ < < @ . . @ 0 0 > @ ",
"< @ & % % + < w < $ . X @ % $ @ @ @ X p p k W $.@.T U Q  .1.6.>.T U T Y Q G T O.5.X.T T ! X.1.2.! D x f > $ % & % $ < w 1 @ . X % & % @ @ ",
"& @ . . O o @ > @ @ @ + @ @ o + < o X u D c x E 3.3.} ^ 1.7.3.^ F T ..T Q ! S D X.9.3.!  .1.3.#.c a J z & + X . + o @ > @ @ + + @ @ o @ < ",
"+ > % @ + X o & $ w B e < > > & $ @ o p I _ P x J %.+. .+.X.L S E 2.1.E ! 1.$.L D ^ 1.X...&.^ x S I #.h @ & & + @ o O $ % q B w , - > % - ",
"< B w % X $ @ % < e 0 @ + - q , O > o r k W ` I x c H G G S x R X.@.H S D T 1.2.H x D G L D a c W _ I t 8 V e + . @ $ & < j 0 + @ , q > + ",
"1 w @ + + o & $ $ & % o . X o & o $ . 2 t c ) ) D k D H x x L ( L x p p k c / 8.( D x H H x x W P k r 4 8 8 @ o @ + $ $ $ % $ o X . o & + ",
"+ - X + o o , < & + + o X X . X X X . * : 3 3 6 6 4 s g d s d s 2 2 2 2 2 6 6 t t 6 6 d d t t s 4 = = # $ $ X @ O + > < & + + X X X . X X ",
"                                  X . . o . X + @ o ; w < o + 0 j 8 $ . X X . . + @ + @ e 0 @ o , e w - + +                               ",
"                                  X . @ & @ + @ + , w , @ + 1 V < $ o X o % % o @ o @ N < & + > B w & + & O                               ",
"                                  X @ N B w > o % q < % + X % q + . . + q B e < + @ 8 0 > @ o @ 0 > X + $ X                               ",
"                                  X N q > % < & o + o + . . X $ X . . < j < & > - O @ o + . X X @ + . + + +                               ",
"                                  + 1 - @ + o X . X . @ < - + X . . o > > $ + + o . . . . , , + o . . o & %                               ",
"                                  % - @ O > 0 w 0 & o & e & @ . . . @ % $ + & < e 0 < o X N < + . . . o $ @                               ",
"                                  @ + @ 0 8 w q 1 & . o & . . 1 > X + @ + < q 0 q 1 < . . % X X , < & . - @                               ",
"                                  . . j B < $ $ > 8 & X . X > 0 1 $ . . < N 0 - $ & 8 > X . . & 0 < & @ - @                               ",
"                                  8 % $ + $ $ > w q $ X . % % % + + < > $ @ $ % - q w > o . + & & @ o % @ ,                               ",
"                                  & + X . X X X @ & o + o + & o . 8 , @ X . X o X @ & X + + o $ + X & < & &                               ",
"                                  X , - @ @ o o @ & 0 C B < - , > $ o & > $ + @ o + & & Z V q ; , ; & & $ X                               ",
"                                  , B j - X + @ @ , w 0 @ o @ w < @ & e B < o X @ @ - q e & o @ 0 0 & & @ +                               ",
"                                  > w $ o + + @ & @ & & @ . X . & + % 0 , + + + @ & @ % & @ X X X + & @ @                                 ",
"                                  $ & X + O o $ < ; @ o o X X . X X + & o o + o @ < < % o o X X X . X o                                   "
};
