/* XPM */
static char *_895a41a718a42bb9033d2f3bc258d58GQxlpcxh5gEGBOEH[] = {
/* columns rows colors chars-per-pixel */
"69 69 35 1 ",
"  c None",
". c #020105",
"X c #05030B",
"o c #08050E",
"O c #060212",
"+ c #0A0612",
"@ c #0C0915",
"# c #0C051B",
"$ c #0F0B19",
"% c #120D1C",
"& c #0F0520",
"* c #0F0820",
"= c #110722",
"- c #140E21",
"; c #180E23",
": c #150C29",
"> c #161123",
", c #191226",
"< c #1C142B",
"1 c #1B0E31",
"2 c #1E1631",
"3 c #1E1831",
"4 c #20162E",
"5 c #211732",
"6 c #231934",
"7 c #261C3A",
"8 c #291D3C",
"9 c #2D1F41",
"0 c #2E2144",
"q c #2F2249",
"w c #312146",
"e c #33234A",
"r c #38254E",
"t c #392751",
"y c #392853",
/* pixels */
"                 X..X.X@o%76%+<0w<+..X.X@@@<9,@-0w6@                 ",
"                 .o67>@o%0<%o%60@...46<$o@<9%oo3w>o.+                ",
"                 @806<,@,>%@.X@,o.o4w7<<%@,>%..@,@.,-                ",
"                 @8>%%@XX....Xoo..o7,%%@o.....XXoX.>,<               ",
"                 %-@Xo$@oX.60,XX..$%%XX$$@oX%e2o...@o@               ",
"                 $@$,7we8$.--.o@oo$$+>6we8,.o,XX@@X+X.               ",
"                 .o8e>%o>%X..X,83o..3e<%@@>@...%97@@<+               ",
"                 %$<>%%,76$..$,%$$%@4>%$>67,X.@,%@@,@.               ",
"                 >+..o+$;$o..o@oX<>$X.Xo@>%@X.o@+X,%%%               ",
"                 +@X.@XX%+<5<>%@@,$@XX+oX@@@62,%@+,@@@               ",
"                 %96%o+@%,e9,%>8>o@78%o@@%,7r,%>8<+$o+               ",
"                 68-+Xo+%-,%oo+%3@<0<@XXo@%>,ooo$<@>%-               ",
"                 %<oo@@<%@@$+.XXXX$3oX@+>,@@@@XX.Xo+@%               ",
"                >@+o$.X@<-oo+XXXoo@$X$XX@,<@XoXXXoXXXX               ",
"..XX.@@+,8<$$706%.o                                O..XXX+++,8<+%796%",
".%76-o+<8,$o-9<oXoO                                O.-66%o@<8,$X,9<oo",
";98<<,o>%%+.X%@.X<*                                O<08<<-@,%%X.o%%.$",
">6%%$+.X.XX+oo..X%$                                X<6%$$o.X.XooXX..@",
"%%@o$>%@o.67$X..XoO                                =%-@o$-$+o.w6@X...",
"@@%<608<o.,@.$%oXo:                                =@@%<798<o.4oX@$+@",
".%98%%+<%X..@76-X#:                                O.-98%$@<%X..$66%@",
"%%,%%$37,@.X%%@@@%#                                2$->%$%68<+.X-%$@$",
"%o.Xoo%%@oXX@@X$,XO                                <$X.Xo@%,@+Xo@@o%-",
"@%@o@Xo%%907>%%%$oO                                #$%++@.+%%804>-%%$",
"6w4@o@@>3w<$@64%+<O                                =7w4oX@%>3w>@%65@@",
"64@ooo$$$>@oXo%-+$O                                273@oo@@@%%@XXX%%+",
"%>X@@@6@@@@o....X+O                                O,%X@@%<@@@@XX...+",
"@.Xo.@%<%-%@X@,-$XO                                =o.oo.@><%>%oX$;-$",
"..XX.@@o<7<@%806%.O                                #.....@@o<7,o-896$",
".%87>Xo48>%X%7<XX$=                                O.>97>X@48,@X;8<X@",
",w7<<<o>%%o.o%@.X2:                                O407<<>@-%-X.+%%.@",
",3%%@X.....ooXX.X$O                                O<3-%@......oXX..X",
"%%@X@,%@XX88@X..X++                                :%%@X$,%@oXe7@X..X",
"@@%6708<o.>o.%%@X+1                                =@@%6797<o.<X.%%@@",
".%07%$@<%o..$66-o$=                                O.>87%@%<%o..%66%@",
"-%-%$$67,@.o%%$+$+#                                6%-%%$-68<o.X%%%@$",
"$X..o+@-@X..@+X%1XO                                1@XX.o@%>@X..$@X%-",
"@%o@@.+%%er0,-%%@oO                                #$$++@.o%-wr8>%%%@",
"6r6@X@@>6w,o@66%+<O                                =8r6@X$$%6w%o$66$#",
"6<+o@o%@$%@XX.$%+$O                                27<+Xo+%@@%@XX.$%@",
"%$o@X@<,@@+XXX.X++X                                #%@o@o$<,$++XXX.XO",
"X....o$$$64$X-86-.O                                $X....@%$@64+X>67%",
"..+@X@@@84%o,w8-+X#                                #..++X@o@74$X<e8-@",
".4te3X+76>%X%6%X.,:                                @.6tw<X%77;$X$3-X%",
",97,,,o%$$o.X$@.X1$                                X406,,>@%$$X.o%@.+",
",3%$@o....+@+XX.X$O                                O<4%$@o....@@oX..o",
"%%oo%<,$oX77$X...+:                                :%%@+%4-$oXw4@X..+",
"@o>6776<X.%+.%>@X+:                                =++;6676<o.%o.%>o@",
".%w7%%@3>X..$6<-o$&                                O.,07%@$3,o..%64%%",
"%%%%$@67,o.o$%@@$oO                                2%%%@%%66,o.o%%@+@",
"$o.XoX@>@@@+@@X%,XX                                :@o.Xoo$>@@oo$@X%-",
"$>@o@X+%-0w6>>-%$$O                                #%-@+@X@$-w06-,%%%",
"6e3oX@@>69,@@46%@%o                                :8w<@o@@>40%@@66%@",
"6<@o@o%@@%@XX.@%o@o                                ,7,+o@@%@@%@XX.@@+",
"%@o@X@<,@o+XXX.XXXX                                +%@o@o@<,@+oXXX.Xo",
"                XX.X..X@++67-o$70<+XX..X@@o%9,+@796@++               ",
"                 X.%%o@o+74%@%7w,+X.@%+@@X>8,@@2e6$$@o               ",
"                 X,w06%o<6,%Xo,4X..@ww6-o%63%oo%6@X%oX               ",
"                 %w3>%>+@o+X..o@X.+96,-,@@@oo..X@o.$@o               ",
"                 $<%+++X...%<%XX..@<%++oo...@<%oX..+%$               ",
"                 %%$@,77<@X<6%X..o%%@+%674%X@8>X...+@@               ",
"                 @+%6363<@.@@.@<>Xoo$66663>.X$.X<,o%$@               ",
"                 .@00>%$3<@..@<4<o..0w<%$>3>..X<6,@%$+               ",
"                 <%@o%@38<@.X$$%o$<%$o%+<76%XX@@%@+@-,               ",
"                 @oX.oXX%@+oX@%XX6-oX.Xoo@%o$Xo%XX4%%%               ",
"                 @,%+@oo%%9r9<%<-@o,%@@oX@%<y96%4%%;OX               ",
"                 <e6%.@@%<8<@o%7<+,w8%X+@$>67+o%64@%+                ",
"                 ,6@X@o%@@%@o.XX%o>8$o@o%%@$%oXXX$o$$                ",
"                 %$X@o+-4%ooXXXX.o@%.@oX%<,@XoXX.XXo                 "
};
