/* XPM */
static char *f6c265dfd5eb49dbc28b65d3dec35a01wy9buLT9joApXMz5[] = {
/* columns rows colors chars-per-pixel */
"69 69 43 1 ",
"  c #0F0807",
". c #0E0909",
"X c #100807",
"o c #110709",
"O c #150B0C",
"+ c #1A0D0E",
"@ c #17100F",
"# c #1B100F",
"$ c #150710",
"% c #170C10",
"& c #1C0E11",
"* c #1D1112",
"= c #1F1118",
"- c #210F13",
"; c #231215",
": c #291417",
"> c #251817",
", c #251418",
"< c #2A161A",
"1 c #271818",
"2 c #2D191C",
"3 c #31171C",
"4 c #321B1E",
"5 c #3B1D1E",
"6 c #2D1C20",
"7 c #351C22",
"8 c #3B1E23",
"9 c #3C1E2A",
"0 c #362023",
"q c #3C2125",
"w c #3E2329",
"e c #401D1B",
"r c #411F26",
"t c #431E29",
"y c #412226",
"u c #422826",
"i c #492827",
"p c #42242A",
"a c #49252B",
"s c #45282A",
"d c #49282B",
"f c #412230",
"g c #492331",
/* pixels */
"11>-#***+++#***##+##**#;#O   O&&+-%&&=%=-&&$++++++--;-;;&&&&&&-=-&$&-",
">>;#**####+#*##*&#+##***#O.. O#+++**@=&%&&OO%o+%$+++;;;&&&*%**=&&&&&=",
"11;*&*#*#+***;**#+++*;-#-OoOX+#%++#*&&&&-&+OO++&&$+--;;-&%%&&&&&+$+-=",
"0005577422344574;**;1055537453313352676888333337878<+&&&6673797988837",
"uyyrtrr55558qyy8<-&&4yuuyyayye5558qqq9wppprre88ppsp6O%+&7888wpppptpit",
"ypyytyy07778qqw8,;;;4uyuuyyryr5557qqqqyypyr8888yspp2+O+&77779ppptprtf",
"pyyrrrr87778qqq8:&;*4wupayypy55557q8qrypryr8888apps2O%%;77q89ppptrrrt",
"qqquypy87778yqwq>**;2qyqyyytyr7788qtqqqyrrr5857ywyw2OoO&5q77yfppppytg",
"447sddg077799ww8;&==<8888qwty978q8wtt88r587888780q0>XXX+755qyupwpgaaa",
"445idss87777wwwq;&&&<800qyqwwwq8099ttr88555558588qq> XX+008qqywwpaaag",
"435dddsq7779www0,&&&69888ywyw89q89tttrr85q553589qqq;  XO58q8wwswpaaag",
"230puus8777700w0;&**<6778qqwq88888r8t877557783798q0;XXX+7057qwwwyppyf",
"###>,>;;,;;;>*;;***%&---=,<-:-;-=;<<,,,,;><6,,<-*;;&O#X+;;;;;*;>;&&++",
"OO+#@***==**@*##%@%*&&&$%----&++&&;&--;*&&-,,,--&**+OO#OOO++**#+%oOX$",
"OO+#***;===**+###*%&&%&&&--;-&&&&&;;;;=&**;;,,,-&&-+#OO++#++#;##%$ooO",
"OO+#**&&&=**O#+##+*&+&&&&=&&--&&&-;;;=&*-*;;,-,-***+OOOO++++++*#%Ooo$",
">1:32322222,@*#-1<26*&%&-:<:3324222322222224732&+%%;;>;#11<<<222<;:::",
"q77yuyyywwu7%@++7qwq<%%%-8883rpyyq70000q0qq0888&OOO;22445e88qr9tr8e58",
"88qryryyyyq7%*+;7ywq1##+-3r5rryppq7505qq00qq898-OOO;32435088rrtteeeer",
"8yqyrryyywu2%#+#0y9w2O@#-3555ryyuq7050000wq88y7&OOO;2224qq08rrttr5ee8",
"8qqyyryyquq4####79792&#;:5885qpypq7778qwww0qrr7-OOO;24448r883388e5557",
"yqqyyayyqqq4:;::7877744338887800qqyy8qqywwysaay&OOO;6447rppy3:-::3538",
"q8qypuyq5q54-:::677777558787788558qryrwwqwydaat&OOO;7447yyyu3;--:3337",
"5qqpyyyyq0q3::;>377770457898888005y888qwwqpsaap&O.X;4447ypyy1;;;:3537",
"q8ypuuq5q004:#:;67767774778750077qw888w9qqpaapt-ooo,4447qapy2;;;13434",
"1:<24432222>;;:;--$=;,1<<:<<::1<<<2372<<<:<2336**&&;<:;:<<<1;&&&;;::<",
"OO+;;;;;;;;;;;;;oo$o+-----++++#;;;>,<;-+++&&**&;,,;;&&&&%*O%#+%*%;;#-",
"+O%;;;;;#;#;;;;;o$oo%;*;;+++#;##**,;;>-+*%&;;&;;;=;-&&&-*O*O%*%*#;##&",
"OO+;;;;;:;:-;:;*oo..%*;;&++++;;#&-;,,,&&+%-&;**=,;;&#&++++%+*+%###;#=",
"--;:3::;:#>#::<<-&&=;<:<:::;;::1<<2632:;;>;;&*;2,22<111:;;;;;;;;>1::6",
"777qeq0:##;>555777068wwqyq8q5qqqwwpgpp87572;;;,wwwwwqwqqqqqq88770www9",
"747rueq1;##25507w709wyppyqyryyyyyysssay8q04;;;,wffppqyyyqyqq88880www9",
"557qqr8:*==<8887q7q7qpuyyyryqyyyppssgs97855;;;:qpwfsquqqqyyq5778qwqyw",
"778qqq8<;-&<78887000qqpyqy8r8yyywwpsspt8554;;;>qppwwyqpyqyqy8550qyppp",
"8998787<;;-<7877qqq5qq5qqyyyyyyyqt898r8r8r3**;;7wwwspppwqqqy8qq8qq9qw",
"yw88787<;=-<77758780q0qqqyyyyyryy8887888q84*#;;5yywwpuqyqq5q88q88y8q9",
"www8887<;;;<777788q850088yyyrryrrr87889r8q4#**;qptypypww8qq858r58t9t9",
"yww7777<;=,<7777q8y8qqq88ypyprrrt97888r8rq4;*&*q9p9wpwwqqqqqqqrq87989",
"2422<22,*,=,2<22232<2343445474777322<<<323<*+%*6877778774232444477776",
"%+%&***;***;;;;*+OOO+***&&-&&-&&;%OoOOO++++OOO@><,,,;;;;&+++;:;;,-==6",
"%+O***#*;*=;;;;*OOOO+****##&---=-&OOOOO+++OO.O@=,,>>;*;;%&&%*,;,;,=>,",
"%%%******-***;;*OOOO+****&#&&&-&-%OOOo%%+%%O@O%=,,>;;;;;&&&%;;;;;,,=,",
"&+****#;;;;;;*,;#+++@**;;&--;-;-;*+O++%%&%@%#O#;<>1:>;:;----;>>>;,,<<",
"051*+@@7wqq988075550050072222264226266;&*&,242200000qyqr7777700008989",
"0q4OOO%7pppwpqqqyypyq8y887433774777707,%&&,8777000qypyipwqq9qqqqqywwt",
"qq4*%++7pppw00qqqqrqqqq883723444477777-&=%,776700qqqyppyqqwqwqqyqwww9",
"0q4O%++7pppwyqqqqyyrq8qq87337447777777;&%&,7775q000yypppwqwwqyqqqyw99",
"0q4%+O&7wywpuqqyrrw852223777778877qq00:-=-<7777yupwww9w9wywwq80088999",
"783+*#+4898ypwppr8r83-*;;48789yyyqqrry<;;;378rtpdsfww7w7wwwww70088r5t",
"773*%+%7w88ryppp8r883-;;:48888yryyryy83;;;28888pgsdw709wwfww9w7678888",
"774+%&%7978ryuqprrre2;;;<7887rrryryrr8<;;:<7858pgsgw79qwfwww07w678879",
"441*&%-37777q00q7355<-&*-33835875588751*--:7557wwwwq7777qww0777644557",
"OO%,>;;&+++-;;;+##++#X@@+-;;;&&&+&;;=>#++++-;*;&&&;;&;;*-:-;=*&-*&*#=",
".O%>,<<%OOO+%##+++++X@  O;#;*+O+++====@O++%&***&&%%**%%*----&%+*#+*+=",
".o%,,,,&OOO+++++++#O@X.@O#;+*%+OO#*=**%+OO%****%*%*&**%*----+#+#%*&O=",
"..O,<:;&$+O+--#-#+O###@@O--;;++++#>**;&+%+&;&;&&&&&&&&;&----;-++&%&%=",
"%%*8887735677777444726660000074422;;;;26767<<22222273747777766<247777",
"&&,yqyyppasswppqyrqywwwwwffspuqqq7;;;,9pppq744500q7qty9t98qq87787pwuw",
"-*,8qyyppspppypyywqwwwwwwwswswqyq0;;;;qyypq444707qq8qwt898989888qpuyw",
"%*,wqyqapupsypypyqqwwwwwwwfsfwyqw0>;,;qppp8544578q88trrrrww988887ppyw",
"**;qyqyyyyayuwypyywy8rrrwsswppqyq7;;=;qyypw0007qqqq77777q9qq98888yyqp",
"%+;75q58qqqypappyyyyrr88ufdfpqqqq5+&%&8pypwwwwwpppw5;;-<7w7q7989qqwq9",
"++;8855qqqqqypppww8rr58r8psway8q04&+*&7yyywwpwppppp4;=;,0988qqywqqyq9",
"++;8qeqqqqqrpppppytrrrr88dfpyyry87&*%&8pypyppppgpsp4*;-,8988tq9t8r889",
"+#;5778q8q88yyyyyww98r8rrtwppq8qq5++*%6wqwwwywwwppw6;;;<000qq0w00000w",
";*;;;;;;&&**-;-;--&--<:--<2<<>:;;;#*&*,2<,>=;>><122>;*;;>61>>2>>>;#;-",
";;=#-&&+OOOOOO+OOoOO%-&&--;*;#+-++#+&&*==***&*+>,>;;;;=;>***=>=>=OOO%",
";;;*&&%+OOOO%+O+%OoO%&----;;;-;+**%*&&**=***&&-;,;,;;*;=**>*>=*>*O+O%",
";;;&&*&+OOOOO++%OOOo%**&-;;;;;+#;+%*#+#;*>***%*>,,,;=;*;==*>>=>=*O+O$"
};
