/* XPM */
static char *_89881abec214ed3d1ba0da2f29fd822BzN6jgXajf7pcCts[] = {
/* columns rows colors chars-per-pixel */
"69 69 233 2 ",
"   c #010102",
".  c #050A05",
"X  c #05020B",
"o  c #08050E",
"O  c #070A08",
"+  c #0A0B0C",
"@  c #081206",
"#  c #0C120D",
"$  c #11160D",
"%  c #050113",
"&  c #0A0313",
"*  c #0D0A13",
"=  c #05011B",
"-  c #0C031B",
";  c #0E0B19",
":  c #110E15",
">  c #11041D",
",  c #110D1C",
"<  c #0E1113",
"1  c #121315",
"2  c #14131C",
"3  c #161819",
"4  c #161A1D",
"5  c #1A1B1D",
"6  c #19211C",
"7  c #060223",
"8  c #0C0323",
"9  c #090526",
"0  c #0C032C",
"q  c #120423",
"w  c #140C24",
"e  c #1A0A26",
"r  c #14042B",
"t  c #19052D",
"y  c #140A2A",
"u  c #1A0B2E",
"i  c #161223",
"p  c #191525",
"a  c #1B1A24",
"s  c #1B152B",
"d  c #1D1A2C",
"f  c #0D0433",
"g  c #0E033A",
"h  c #130534",
"j  c #1B0634",
"k  c #140A33",
"l  c #1C0B33",
"z  c #12053C",
"x  c #1C063B",
"c  c #160A3D",
"v  c #1D0B3C",
"b  c #1D1432",
"n  c #181536",
"m  c #1E1931",
"M  c #21182B",
"N  c #211C2E",
"B  c #210D35",
"V  c #21073D",
"C  c #210A3D",
"Z  c #211633",
"A  c #221C34",
"S  c #281F33",
"D  c #23153B",
"F  c #251C3A",
"G  c #291E3C",
"H  c #1D2126",
"J  c #212027",
"K  c #23222C",
"L  c #262234",
"P  c #292436",
"I  c #2A2937",
"U  c #26213B",
"Y  c #2A233C",
"T  c #2D283D",
"R  c #0F0548",
"E  c #140644",
"W  c #1A0644",
"Q  c #1B0A43",
"!  c #15064A",
"~  c #1A074C",
"^  c #1B0A4C",
"/  c #1B0753",
"(  c #1D0954",
")  c #1A0758",
"_  c #1D095B",
"`  c #1F1157",
"'  c #230743",
"]  c #240944",
"[  c #250848",
"{  c #260A4B",
"}  c #290B4C",
"|  c #261340",
" . c #241C42",
".. c #2A1D42",
"X. c #261749",
"o. c #25144B",
"O. c #2C124B",
"+. c #2C1C4D",
"@. c #240A55",
"#. c #2B0B53",
"$. c #210B5C",
"%. c #2D0B5B",
"&. c #310C56",
"*. c #320D5C",
"=. c #281356",
"-. c #2C1C54",
";. c #311355",
":. c #35135D",
">. c #351C58",
",. c #2C2343",
"<. c #2F2646",
"1. c #312545",
"2. c #322944",
"3. c #32264B",
"4. c #352A4C",
"5. c #392B4F",
"6. c #2F2250",
"7. c #342353",
"8. c #372952",
"9. c #3A2C54",
"0. c #35235A",
"q. c #3A245C",
"w. c #3B2B5B",
"e. c #1E0962",
"r. c #230B64",
"t. c #2C0C62",
"y. c #240B6B",
"u. c #2A0C6C",
"i. c #350E63",
"p. c #380F67",
"a. c #350E6A",
"s. c #390F6C",
"d. c #2A1563",
"f. c #2A136B",
"g. c #361165",
"h. c #391165",
"j. c #341966",
"k. c #3A1B65",
"l. c #34116B",
"z. c #3B116C",
"x. c #3C1B6B",
"c. c #250C72",
"v. c #2A0D74",
"b. c #270D7B",
"n. c #2C0E7B",
"m. c #330F73",
"M. c #3B0F71",
"N. c #320F7E",
"B. c #2D1379",
"V. c #3D1273",
"C. c #371973",
"Z. c #34127B",
"A. c #3D127B",
"S. c #3D2364",
"D. c #3B2667",
"F. c #3B2272",
"G. c #402F5E",
"H. c #401C6E",
"J. c #401374",
"K. c #43147C",
"L. c #441B7A",
"P. c #422966",
"I. c #41236C",
"U. c #432B6A",
"Y. c #423163",
"T. c #442372",
"R. c #482579",
"E. c #2B0F84",
"W. c #2E1187",
"Q. c #331182",
"!. c #3C1384",
"~. c #351488",
"^. c #3D148C",
"/. c #3C1493",
"(. c #3C1698",
"). c #451482",
"_. c #491585",
"`. c #461A87",
"'. c #42148B",
"]. c #4B168C",
"[. c #4C1A8C",
"{. c #51198D",
"}. c #441693",
"|. c #4D1793",
" X c #4D1994",
".X c #44179C",
"XX c #4A179B",
"oX c #431A9A",
"OX c #4C189C",
"+X c #511794",
"@X c #511994",
"#X c #541A9C",
"$X c #581C9D",
"%X c #4B2286",
"&X c #52278C",
"*X c #582597",
"=X c #4A19A5",
"-X c #4B19A6",
";X c #551BA2",
":X c #591CA4",
">X c #531BAC",
",X c #5C1DAA",
"<X c #531CB2",
"1X c #5C1EB4",
"2X c #571DBC",
"3X c #5B1FBE",
"4X c #601EA7",
"5X c #611EAE",
"6X c #611FB3",
"7X c #621FBA",
"8X c #5D24A7",
"9X c #5D21B8",
"0X c #6123AB",
"qX c #6422B4",
"wX c #6521BB",
"eX c #6922BC",
"rX c #5E20C1",
"tX c #6421C2",
"yX c #6A23C3",
"uX c #6A27C8",
"iX c #6D24CB",
"pX c #7125CD",
"aX c #7128C9",
"sX c #6C25D1",
"dX c #7325D4",
"fX c #7527D9",
"gX c #7728D8",
"hX c #7B29DD",
"jX c #7B29E3",
"kX c #862CE9",
"lX c #852CEC",
"zX c #8A2DF1",
"xX c #942FF4",
/* pixels */
"              X #.;X_.q               p 9.w.,.i O     O i ,.8.9.9.G w               = _ c.z               * ..G.9.Z *       ; m 3.9.7.,.G ",
"                j p.s.[ x V j o   X : Z G S b b ' j ; , A ,.,...F s ;               X h ~ ~ j h 0 =     o p F G S s t t ; * p ,.3...P Z s ",
"                  - ' M.#X;Xs.q   2 G F , X + #.#X#X;.N ,.3.Z * o o O                 X q *._.'.y.0   + Z G p o O q *.J.:.A U 4.Y i & o + ",
"        o * , , O O t V.;X#Xp.r , U 9.b X     #.yXuXk.H I Y :                 o , , * O & &.].}.r.0 & M 9.3.,     % V.>X!.F I 2.M X       ",
"        w G 3.1.L d s l j r q u F 4.3.b X     x .X/.Q + H N +               o Z 1.3.U S a l j y - w s ,.9.,.;     X %./.%.; 5 I a         ",
"q - & * N 5.9.4.,.F 2 .   X ; p N K a ;     % z ) E X O F >.D -     X = % o , T 9.9.3.U m <       ; d L d , O   & h ) ) 0   ;  .X.l % X   ",
"K.V.;.S P T F s , * . @ s h.s.l O . .     9 / ( f X   q ).wX:X*.-   7 ~ @.D P 2.U Z i ; O @ # 9 g 0 * O . .   - &.K.@.8 X   = $.}. Xi.>   ",
"#X XI.9.4...w     X , A %XgXpXp.= X X X X z e./ %     t [.gXhX#XV X 7 _ C.q.9.1.b &     & d 7.C.E.( - % - % X q A._.{ X     7 _ <XjX:Xj   ",
"%.=.-.w.R.x.q   X #.K.[.qXlXxXiX).%.! g f f f -       % ' ].pXyXz.o X z +.7.P.x.{ o   = / A.*X9X>XN.) %.).K.( z ~ ' >       X f XXkX7XV   ",
"o o 1 ..[.#X*.> j ).:X#X8XtXfXhXyX}.c.c.b.! &     X X     t ;XpXK.o   X + N x.8X_.j X f b.}.#X:X#XQ.y.'.tXiX.X_ 8 X   X X     X p.iX:Xj   ",
"    . , l.-X-X].V.i.#.#.#.*.p.K.M.{ / }.3X`.Z 1 p , X     - +XyXV.X       O :.yXiXZ.g f E [ #.%.#.W z @.J.;X<X^.| 1 2 i ;       { -X!.8   ",
"o X X X g n.3XiX[.t X X % X & & X X - K.iXqXS.I U s & X   > K.#X*.&   X X   } 7XfX-X) = X X X O X X X X % x ).$XT.1.I A ,       h u.$.8   ",
"J.p.[ f 7 R m.].h.w # 1 1 $ : > =     V _.*XU.P 3 u :.&.q X t #.*.#.g.z.#.z ~ J.).r.z 8 1 1 2 1 $ * = X   X V J.T.8.K 2 0 h 8   X 0 g g z ",
"aXtX.X_ 0 X % > e m U ,.,.I 7.L.K.j X   q | ,.4 . v ,X6X} X   - %.+XiXpX<Xn.! r - % % i P ,.2.2.1.;.e.z X   X e ..U 1 o z r.! %     0 ) c.",
"4X:X!.( =     O < 2 d L ,.0.&XuXdX Xx X   . < i [ M.:X+X;., # * [ ).:X,X Xu.0     . : 2 p d P 3.D.}.oXQ.~ %     O 2 t x ~ ) Q i : : y ^ e.",
"j j r =     2 L d +   . w ( oXsXjXiX_.j     X #.,X:X&.q A 1.,.Z w t j j l 8 X   o M Y i     * c B.XX>XXXn.g X     ; p.].%.- w U 4.,.i 8 - ",
"          : L 9.7.v q = = 0 $.XXeXeX#Xh.V q t M.qX[.y . a 1.,.i .             X p 4.w.X.r q 8 f ! m.`.[.Z.r.] j q j M.).} + 1 G 3.A * .   ",
"        2 L T 5.H.`.A.r.f X % | k.P.S.C.[.;X#X_.#.l p p i , O X             + M T 2.7.A.].].s.x = i +.0.-.j.L.|.].V.#.j p s s 2 & O       ",
"j - X X | U.7.d | K.XX/.y.W e a H H d O.].hXzX#Xq   2 b +   & t j t j r o   , P.U.G s ;.+XyX6Xa.7 + a H d G V.,XtX|.z   # M 2 X   q t 8 % ",
"@Xp.- X h.0XH.*   t @.b.(.>X{.>.6 @ O * ] 6XzX5Xw   + +   X *.:X;X)._._.j   u $X0X|   X ' #XwX-X_ n H 6 # * u %.}.^.h   X * X   j ].#Xb.! ",
":X).j t @XgX#Xt X   = R ~.wXyX%X .,     X *.5X+Xt       & V |.yXwX:X;X#X&.> #.7XwX*.& X q &._.^.c.d.-.A &     % ! ) 0         - i.qX7X~._ ",
"[ #.*.).7XdX7X_.t.~ 0 % q #.).#X`.V X     > ' ' %     q J.;XK.&.;.k.>.#.#.p.}.>X<XXXK.s.*.{ x r z a.[.h.-       X = %       j z.K.p.;.X.X.",
"X - %.#X;X#XeXhXrXW.E -     r V.].} X   X X X X X     j :XwXi.o 2 G i X V _.}.v.Q.1XhXpX].' X   X } |.V.q     O O   X X   X #.].V.q O b 7.",
"    h #.V ' #XhX1Xt.~ p.} &   j #.r   + p 5 $ 1 p , O - } p.%.#.x.C.b   - [ ' 9 ~ 1XjX4X%.h 7 X   q #.' o   , s M p d i o X t } W f Q k.%X",
"    X     o h.#Xi.- C 6XqX[     X   X p 8.G.5.4.U p +     q i.#X7X#X#.%   X X   j ].@X] & z y.! X   X X   * P 9.9.3.,.m ;     X 0 ) Q.OX:X",
"    O 1 1 p O.&.-   V eXdX&.      X i T Y.&X*XU.Z O   X q [ *.M.A.p.j X   + 3 3 Z &.V X   @..Xm.%       * S 9.U.F.>.Z < O   % 9 f ! @.t.a.",
"  X s 3.9.3.Z &   X C #X#XV     X i S T 9.*XaX+Xt     q M._.#.% & &     : G 9.5.G w X   - a.;Xp.-     & s ,.5.w.C.e.f X   X f e.( - X % - ",
"* i Y 9.w.G *   & #.K.s.' %     O w p 3 p [.kXdXh.t q #.K.A.| +       * A 3.w.3.p X   X x a.p.x X     * s a M D C./.m.x 8 - z _ ^ ,       ",
"m A ,.U n *   X } 6X,X' X         = O   O p.fXhX,X_._.K.' q p a *   + d ,.,.A w X   X ! r.~ - o       X o X   w A.,X,X|.m._ f 7 w d i .   ",
"s A ,.m *   X v _.7X).-   O * X       - j s.@X@X_.;XyX Xq   < m w X * s ,.,.i X   X 0 _ _ 9     + &           0 %.K._.].>X-X! X . p s ,   ",
"& , A L + X [ #X$X&.q   O p s ;     X i.:X].[ > q p.,XOXj     * &     & s U s X X f ! E -     , m i       = z ~ W q > x ;XsX).&   O & X   ",
"    i p . & ].jX$X>     > Z A p O   - ].fX+X>     q a.K.#.q X           * s 1 . 0 Q.^.x     X i m d ;     r n.n.h     & a.4X|.x o         ",
"    o O   - @XkX$X-     & > w s p O % K.tX).&       - [ A.M.t           O &     x 1XrX[     X & ; s s < O t ).'.x       - ] J.).#.&       ",
"          X p.6X#X] -       O s d + X }  Xx.w         q V.@X;.* X O o           B $X7Xs.>         , m 2   t ). X{ O       X [  XK.l X X O ",
"            > ] _.:XJ.&       * :   X B I.P.D *       X O.x.>.G M s ;           & C z.).s.t       % 2 o   > >.R.7.p O       w k.x.1.N s s ",
"              X &.eX:X' - > - X     O s ,.3.Y i %     * s ,.3.3.3.A 2               8 z.+X&.- o o X     X , Y 4.,.Z ; X   o , A 1.8.1.G A ",
"  X             - *.].{.#X#XK.q   & s Z i 2 i y h f y Z P T F Z s i &                 q *.z.h.u.( 7   X 2 M s 2 2 i k z k b A T U F s i , ",
"          X X X   X [ ,XkXzX:Xx O a 4.Z O   X r r.f.X.T 4.1.i X                 X X X   - *.#X-Xc.0 X 2 1.1.,     = ! y.=.F ,.4.S * X   X ",
"        * s D A 2 < u z.@X@Xz.v d ,.9.F X     h /./.X.p T P +                 w Z A s 2 , ] i.@.z 9 i U 9.,.-     X ( E.r.s K T i         ",
"X X   X M 3.9.8.,.F p , = & ; s U ,.F i X   X [  X).k O a F , X             * Y 9.9.3.T N , % X X ; m ,.,.b *     = ( c.E X 1 P d o       ",
"h.i.B p N ,.2.U N 3 + . .   % , 2 3 + X   & { x.J.' o   k d.A.:.t X % 0 k i d 2.5.1.F s 1 @ . ; u t i 2 2 +     - E / x =   e j.K.h.x o   ",
"pXeX%X2.P L s : X   + 5 n ` / 9 .         ] ].).v X   X E ~.tXqX&.o = _ f.6.2.,.A i o     # d k.).*.&   .     & ~ r.E %     x ].iXpX).t   ",
",X8XR.w.D.k.t   X V H.%X&X(.n.! 0 r x j j i.A.} X     % 0 c.2X1Xi.X = ~ j.D.w.+.y     q #.k.R.8XtX@X[ r 9 8 = f / ! 8       r s.yXzX5Xj   ",
"x j Z q.8XqX&.X q +XkXjXtX.Xb.e.u.A.].#X].i.r %         X 0 y.N.~ X   - y ,.D.f.g   & h.yXyX>X,X7XqX#XA.y.e.e./ 0 %         X q ).fX5XB   ",
"    . D 0XfX Xk [ #XaXeX Xt.! E _ m. X1X>Xl.* . * *       = t.Q.~       . 1 o.Z.Q.@.&.[.qX;X).M.A.K.).A.t.c.E.y.h + + ; %       *.yX:Xj   ",
"      ; L.iX<Xu.W Q [ V j 8 = & % > ' m.^.l.G N Z p o     q  XwXi.X         k ).rXiX,Xz.' r q q 8 q q - 8 ! c.n.-.S S m ;       #.6X].t   ",
"- - - t %.).!.y.f X . . X . + > >     7 ) j.w.4.L s 9 %   - ).eX_.j - = - = V z.,XpX:X] X . . . . X & X   % g f.D.8.T a w =     j J.a.j % ",
"/ r.m.M.#.j q 0 8 2 a N H 5 G L.K.u     9 O.7.P 1 8 ~ ! %   q &.+X:X'.r.r.V.h.} ' } [ u 3 d N J M O.:.V     % c >.3.a + r ) f X X > W / _ ",
") v.}.[.] X     , M Y ,.1.9.%XaXiXA.q X   1 s p & 9 ) r.k O   & K.yX>Xv.Z.XXJ.>     O i F ,.3.3.9.%X:X).j X   O p s , - E r.~ - .   8 ( b.",
"f ~ %.} -   X 5 a < + : G L.8X9X2X<X].j     O y E E g h Z Z 4 i O.z.t.W ' #.j X   * 3 2 1 1 p +.F.oX-X.XK.] o   X ; } a.@.h k A A p i z z ",
"X   X X   o d 4..., o X t K. XZ.Q.2XiXK.q X X h e.( - X N 9.4.m ; & X X X X     , ,.4.s X   X f e.y.e./.-XK.j     q V.|.#.& 1 ,.8.,.2 o   ",
"        * M 2.w.I.K.M.#.[ [ [ Q X.%X8X8X_.%.z f E c , 2 s A b :             X : P 9.0.=.g 0 7 7 9 f ^ C.%XL.$.! x #.p.*.B 2 2 M m 2 O     ",
"& X   X M 3.T U L.eXfX7Xz.q o i L L 6.*XiX2XQ.g % * d m , X   X X X & X     * ..9.1. .@.c.b.y.h X * Z ,.,.X._ Z.OX].[ & 2 m s +     o X   ",
").&.-   w -. .2 l z.6XaX>X@.7 4 H 1 1 O. X<X/.! X . 2 i X   % c t.V.V.*.q   , k.I.Z O = ) .X3X|.=.s H 6 5 * f m.wX6X]   O p *   & V @.W z ",
"hX0X] X 0 r.^ %   o #.#X>X~._  .M 1   X q ( v.) %     X   X f v.>XiXdX:X} X t `.[.B     q ].fXdX;Xk.G 5 O     v |.;X#.          l ].XXZ.e.",
",X#XJ.p.}.-Xf.7 % q ' &.*.$.d.!.L.D X     % z z %       8 f f ! A.8X8X).#.' p.>X,XA.j 8 r *.].{.).[.%X:.-     X [ %.j       % 0 [ l.l.r.` ",
"q ' ).pXlXdX}._ r.).z.j o X W ,XyXp.X       X X       = ) r.f o s +.D t ' ).,X6X7XeX:X!._ h q - r K.yX#Xt       % % X       f e._ 8 , b  .",
"  o *.qX7X,XXX-X>X Xp.8     q ).:X#.X X * : + * * + X & h ~ W ] >.>.i   > p.).M.[.dXjX-X) 0 X     } :X_.q   . : 1 + * * O X 0 / ! q B >.T.",
"    > j j V ].sX8X#.0 g f X X e j -   ; G 2.Y L F s &     9 s.eXhXeX:.X   > q = } ,XwXh.0 f E 9 X & j t X X s 2.Y L Y Z , X   % x z.$XyXiX",
"        . & J.5Xp.X - Q./.x         * S w.U.S.3.A 1 X   & ' ].yXgX7Xp.&     . X t V.a.>   E b._ &       X i 3.P.U.7.G p *     & x A.,XwXeX",
"    : N K L O.} >   v 1XtX#.      ; m 4.P.U.C.^ ;     > J.:XK.#.} #.r   O p P P F V q     ! W.$.%       i T w.U.C.=.y .     8 ~ / v V [ #.",
"X * A 9.Y.3.i O   X *.1X:XV     X i A T 2.d.c.e.h - o } ,X7X*.o       O p 3.G.w.S O   X t / r.h       ; s P I -.B.b.~ q X % E e./ ;       ",
"i m ,.3.,.s X   X E a.p.] -     X * , 1 , c c./.XX{._.).K.h.D < X   X i G 3.3.F *     ' A.%.0 X       & , * # y a.>X1X|.i.! g z k i #     ",
"A F ,.A ,     % z r.( -                   9 e.'.eXkXzX6Xv O 2 A i   * Z ,.,.s o   X j K.|.} X     X         X 9 g.,XpXiX<Xb.f X * A s &   ",
", s F U *   % z @.~ 8     < p %       % 7 0 f W p.eXxXpXj   . i , X X , F ,.2   & &.[._.#.-   + i ,       & V %.#.&.z.).XXW.z     2 w &   ",
"  o s m <   f y.) -     ; d m ;     X E y./ =   X &.qXwX#.o   X X       2 A 3 . l >XyXg.X   X 2 A s +     j ).].[ X X & / y.! %           ",
"    ; 2 O   E b.( X     o w p p 1   % a.>XA.-     o [ K._.i.q X         o w +   j XX;X[     X * i s w O   h !.^.j       % g ! E 8         ",
"          X ! y./ %         ; s d . = K.pX+X>       X ' 4X7X*.X                 8 y.c.h         X i A 2 X 8 r.u.0         X c r.~ =       ",
". X       X h $.W &         O d K # & z.qX_.,         t $XeXh.O   X O X   .     = z ! 8 X     .   2 m a O & E ~ y X   X     k r._ ;       "
};
