/* XPM */
static char *_fc7cde9aa154aed8361985ec76a55974r8ZuqWzHokiYl9k[] = {
/* columns rows colors chars-per-pixel */
"69 69 114 2 ",
"   c #06070C",
".  c #07080D",
"X  c #0B0B0F",
"o  c #0E0E11",
"O  c #0F1011",
"+  c #131314",
"@  c #181716",
"#  c #191817",
"$  c #1C1A18",
"%  c #211F1B",
"&  c #26241F",
"*  c #28251F",
"=  c #2B2721",
"-  c #2C2922",
";  c #332E24",
":  c #353025",
">  c #3B3326",
",  c #3F392D",
"<  c #413727",
"1  c #453927",
"2  c #4A3D27",
"3  c #473B28",
"4  c #4B3E29",
"5  c #4E402A",
"6  c #544329",
"7  c #5A4729",
"8  c #5D492A",
"9  c #4E4435",
"0  c #554937",
"q  c #644D2A",
"w  c #694F2B",
"e  c #66502E",
"r  c #6B522B",
"t  c #75562C",
"y  c #765B2C",
"u  c #7C5D2D",
"i  c #614E33",
"p  c #675130",
"a  c #715731",
"s  c #735831",
"d  c #7D5E32",
"f  c #71593B",
"g  c #795E3A",
"h  c #7E612E",
"j  c #7D6031",
"k  c #7B623C",
"l  c #4F4A41",
"z  c #574F42",
"x  c #534F4A",
"c  c #56514A",
"v  c #565654",
"b  c #5A5754",
"n  c #5D5D5E",
"m  c #615443",
"M  c #6A5A43",
"N  c #61574A",
"B  c #635D54",
"V  c #635F59",
"C  c #6F614D",
"Z  c #7A6443",
"A  c #77654A",
"S  c #63625F",
"D  c #7B6B51",
"F  c #716758",
"G  c #736B5E",
"H  c #7B6C59",
"J  c #6C6760",
"K  c #676768",
"L  c #6E6D6C",
"P  c #726F6B",
"I  c #7C7264",
"U  c #76726C",
"Y  c #757574",
"T  c #7B7974",
"R  c #7B7B7A",
"E  c #825E2D",
"W  c #805F34",
"Q  c #84622E",
"!  c #8C642E",
"~  c #8F682F",
"^  c #91662F",
"/  c #94692E",
"(  c #836332",
")  c #8A6631",
"_  c #8D6932",
"`  c #80653A",
"'  c #84693F",
"]  c #8D6C3C",
"[  c #926730",
"{  c #946C33",
"}  c #986F36",
"|  c #916D3B",
" . c #977036",
".. c #997137",
"X. c #94703D",
"o. c #9A7238",
"O. c #846A45",
"+. c #8B6E45",
"@. c #846D4C",
"#. c #8B6F48",
"$. c #8E7045",
"%. c #8A714D",
"&. c #927244",
"*. c #917449",
"=. c #837155",
"-. c #8C7453",
";. c #85735A",
":. c #89765C",
">. c #8B785A",
",. c #827561",
"<. c #897962",
"1. c #837A6D",
"2. c #827B70",
"3. c #817E7B",
/* pixels */
"  . X o o + + + O + + + + + o + O O O O + O O + O + + + + + + + + + + + o + + + O + + O + + + + O + + + O + + O + + O + O + + + o + o o X ",
"  . o + @ % $ $ $ $ $ $ $ $ $ $ # @ % $ % $ # # $ $ $ $ @ @ @ $ $ @ $ @ $ $ $ @ $ # $ $ $ $ $ @ $ $ $ @ $ $ $ $ $ $ $ $ $ $ $ $ $ % + o X ",
"  X + $ % * * * * * * * * * * * = = % = = = % = = = = = = = = = = = & = * = = & * * * * * * * * * * * * * * & & * * * * * * * * % & % @ o ",
"  X + % * ; ; ; ; : ; ; ; ; : ; : : : ; : : : : ; : ; ; ; ; ; : ; ; ; ; ; ; ; ; : ; ; ; : : : : ; : : : ; ; ; ; ; ; ; ; ; ; ; ; ; ; % @ o ",
"  X + % - : > < 3 4 5 4 4 4 4 4 5 5 5 5 5 5 5 5 5 3 5 4 5 5 4 4 2 2 2 2 2 2 2 2 2 2 2 5 2 2 2 2 2 2 2 2 2 2 2 2 1 < 1 < 1 < > > : ; % $ o ",
". X @ % ; : 1 4 8 q q q w w p p p p p p e p p p e i e e i p q q q q q q q q q q q q q q q q q q q q q q q q 8 7 7 6 6 6 6 6 2 < : ; & % + ",
"  X @ % = > 4 q t u u d d ( ( W j j j j j j j j j j ( j j j ( d E u t u u u u d h y y u u u u u u u u t E t t r r q 8 q q q 7 2 < ; % % o ",
"  X @ % - > 6 r E [ [ { } } | |  . .X. . .X. . .X. .X. . . .{ { ^ ^ ^ ^ ^ ^ ^ [ / ^ ^ ^ ^ ^ / ! ^ ^ ^ ^ ^ ! ! E y y y y y r 8 6 < ; & # + ",
". X + & - > 7 r Q { { { { ] { { _ _  . . . .o.o.o. . . .} } } } / / / / ~ ~ ~ ~  .{ _ ~ ! ^ ! / / / / / ! ! ! E y h y h y y r 7 < ; % # o ",
". X + $ - > 7 a ) { { _ ( ) ( ) ) ) ]  . .o.o. . . . . .} } } { } { [ ^ Q ( ! ~  .{ { ~ Q Q ! ! / / ! ! ! Q E Q h h Q h ! h r 7 1 ; * % o ",
"  X + & - , 6 a ) } _ ) j h j j h h ) _  .o. . . .{  .{ /  .} }  .} [ ) h h h _  . ._ _ Q h Q Q ! / / Q Q y E Q ~ ! ! ! ! Q y 7 3 ; & # + ",
". X + & - > 7 a _ } _ ( h y y y y h h _ X. . . . .{ { { { { } }  . .] ( j j h _ {  ._ ( h y E ! ! / ! Q u y E Q ~ / / / / / y 7 3 ; & # + ",
"  X @ & * 1 7 a _  ._ Q h h h h h h Q _ {  . . .{  ./  .{ { | &.*.*.$.O.Z k ` ] |  ._ ( Q h Q Q / ! ! Q y y E Q / / / / / / y 7 3 ; & @ + ",
"  X + % * < 7 a Q  .{ _ ( Q Q h h h _ _ {  . . . . . ./ { { &.&.-.>.;.=.D D Z $._  .{ ! Q Q ! ! / / ! Q E y u Q / / / / / / y q 3 ; & % o ",
". X + & ; > 6 t Q { _ ~ _ ~ ! _ _ _ ~ {  .{  . . . . ./ / } &.-.<.1.1.,.U I D @.|  ./ ~ / ! ~ ~ / / ! u y y E E ! / / / / / y q 3 ; & $ + ",
"  X + % * > 6 r Q / / / { _ { _ { { { { { {  . ..... .{ / { *.:.2.3.3.3.T T :.%.] / / / / / / / / / ! Q u y u E ! / / / / / y q 1 ; & $ o ",
"  X @ % - > 7 r E / / / / / / / /  .{ { { {  . .o.} } { / { #.:.3.R 3.R R Y ,.%./ / / / / / / / / / ! Q E E E ! / / / / / ! y 7 2 ; & $ o ",
". X + % - > 6 t ! / / / / / / / / / / { / {  . .o.o.} { / } #.;.2.R 3.R R 3.,.%.| / / / / / / / / / / ! ! E Q ! ! / / / / / y q 1 ; & $ + ",
". X @ % * > 6 w E / / / / / / / / / / / / / /  .} } } { / { #.;.2.R R R R 3.,.=.| / / / / / ^ ^ / / / ! ! ! ! / / / / / / / E 7 3 ; & $ o ",
"  X + & - < 4 t E ^ / ^ / / / / / / / / / / /  .} } } { / { #.;.1.R R Y 3.Y ,.@.+./ ^ / / / ^ ^ / / ! / / ! / ! / / / / / ! E 7 3 ; & $ + ",
"  X @ % - > 4 q t u E E u u h h E u u h h h Q Q W ( W W W d O.H U R R R Y T ,.@.W E E E E E E E u u u u y E E E E E E E E E q 6 < ; & # o ",
"  o + % - > 2 4 8 w q q w q q w q q w q q q q q p r w w q p M F U R R R 3.Y J C f q 8 8 w w 8 w r q r r q q w w 8 q q w 7 q 6 2 > ; & $ + ",
"  X @ % * ; < < 2 2 2 2 2 2 5 2 2 2 2 2 2 5 2 6 4 9 4 4 2 4 z V L R R R R Y J B 4 2 2 2 4 4 2 2 2 2 2 2 2 2 2 2 2 2 2 2 2 2 2 > : ; % $ o ",
"  o + & - ; : : > > > > > > > > > > > > > > > > > > > > > 3 l B L R R Y 3.Y S b 4 : < < ; ; < < > > > > > > < > > > > > < > > = ; ; = $ + ",
"  o + % = : > < 1 < < < > 1 1 > 2 2 2 1 < 1 1 < 1 < 1 1 1 4 z V L 3.Y Y Y K n c 4 3 3 1 3 3 3 3 4 4 4 4 2 2 2 2 2 2 1 2 1 1 < > ; ; & $ o ",
"  X @ % * : < 4 7 q q 6 6 6 7 7 7 8 8 8 q q q q q q q q q i M F P Y Y L K S B m i q i 8 8 8 8 q q i q q i i q i w q q q q 7 6 2 < - & $ o ",
"  X @ % = < 1 q r t t q 8 q r r t E t t t t y y t t t t t s Z H 1.Y L K V b N M a t t t t t t g d d W d W W W W E E u y t t q 2 < ; & $ + ",
"  X @ % = < 4 w E E E u y y h h E E ! ! ! ! Q ! ! ! ! E ( ) O.;.1.L L S v x m f W ! ^ ^ ! [ [ [ { | | | { } | } / / / ~ ! E t q 1 ; & $ + ",
"  X @ % = < 7 r E ^ Q E E Q Q ! ! / ~ ^ ^ / / / ^ [ { ^ ^ [ +.%.,.I G B N m f g W [ [ [ ^ [ { { } } | o.o.o.} o.} } } } / ^ t q 1 ; & $ + ",
"  o + % = > 4 w E ^ ^ Q Q Q ( ~ ^ /  ._ _ { _ / / [ [ [ [ { ] %.-.;.@.A M M g W E ^ [ [ [ ^ [ { { } } } o.o.} } } } [ / / E t q 2 ; & $ o ",
"  X @ % = > 6 t E ^ ^ ) ) ! _ _ / / / / / ~ / { / { { { { { ] ] +.+.+.' O.W W [ ^ ^ ^ [ ^ ^ [ [ / { } } } o.} [ / [ [ [ [ ^ t q 1 ; % $ + ",
"  X @ % = < 6 w E ^ ^ [ _ { { _ / /  .~  .{  ._ { { { { { { { { { { | _ _ | [ [ [ ^ ^ ! [ ^ ^ ^ ^ ^ { { } } } } } [ [ ^ ^ E t 7 1 ; = $ o ",
"  X @ % * < 4 r E ~ ~ ~ ~ ~ _  .~  ./  .{  . ._ ~ ~ Q ) _ _ _ { {  .~  .~ _ { / ~ / ~ ~ / ~ ~ / ~ / ~ / } } { { ^ ^ ^ ^ ^ E u q 1 ; = $ + ",
"  X @ % = < 7 r E ~ ! ! ( ( ) _  . . . . . ._ ) _ h ) h Q ( _ _ _  . . . .{ { { / ~ / { { / / ~ ~ / / { { { { { ^ ^ ^ [ { ^ t q 3 ; % $ + ",
"  X @ % = < 6 r E ^ Q Q h h ( _  . . . . . .{ ) h h h h h h ( _  .X. .{  .{ { /  .~  ./ { ~ ~ / ^ ^ ^ { { { ^ ^ ^ ^ [ ^ { ) t q 3 ; & $ o ",
"  X @ % * < 4 t E ~ Q h h h ( )  . .o. . . ._ ( h y y h y h h _  . . .} { { { { ~  .~ ~ { { { ~ ^ ^ ^ ~ ^ ^ ^ ^ ^ ^ [ { { ) s q 3 ; & $ + ",
"  o @ % ; > 6 w E ! E E u y h ) _  . . .} } ~ ( h h h h h h h ~ _  . . . ._ { { ~  .~  . .~ { ~ ^ [ ^ ^ ! E ! ! ! ~ ~ ~ [ _ u q 3 : = $ + ",
"  X @ % * > 6 r E ^ Q E y y h ! _ } } } { } ~ Q h h h h h Q Q ~  . . . .{ { { {  .~  .~  . .~ ~ ^ ~ ! ! Q Q E Q Q Q ( ~ [ _ d 8 3 ; % $ o ",
"  X + % - < 6 w E ! Q E y y E ) ) { ^ [ / ^ / ! ! Q h Q Q ! ~ ~ _  .{  .{ { { ~ / / ~ ~ ~ ~  .~ ^ ~ Q Q E u u u u u Q ( _ _ y 8 3 ; % $ + ",
"  X @ % * < 6 r E ! Q Q u u u Q ~ [ [ [ / ^ ! / ! / ! ! ~ ~ ~ ~  ./ { { { { ~ { ~ ~  . .~  .{ ~ [ ~ ! E u u y y y y h Q _ ) d q 3 ; = @ o ",
"  X @ % = > 4 t E [ E E W E E Q ! ^ [ ^ ^ ^ ^ [ ~ ~ / ~ / / ~ {  . ./ { { / _ / { [ { { { { { { / ~ ~ h y y y y y h h ) ~ _ h 8 3 ; = $ + ",
"  X @ % = < 4 w E ! ^ E E E ! E ^ ^ ^ ^ ^ ^ [ [ { / { ~ / ~ { { ~  .~  .{ { { { { { { { { { { {  . ._ h h y y h h Q _ Q _ _ h 8 3 ; % $ + ",
"  X @ % = < 7 t E ^ ^ ^ E E ^ ! ^ [ ^ ^ ^ ^ [ [ { ~ { { { ~  .{  . . ./ / ~ { { { }  .} { { { {  . ._ h h y h h Q ! ~ ~ _ _ j 8 3 ; % $ o ",
"  X @ % = < 4 w E ^ ^ [ ^ ^ / ^ ^ ^ ^ [ [ [ [ [ ~ { { { {  . . . . . . .{ / /  . . . . .{ { {  . .{ _ h h y h h ( { _  .{ _ j 8 3 ; = $ + ",
"  X @ % = < 4 t E [ [ [ [ [ / [ ^ ^ ^ ^ [ { { {  .{ { { /  . ... . . . ./ / { _ { { |  ._ {  . . . .{ _ h y h h _ { _ _ _ _ y 7 1 ; % $ o ",
"  o @ % = < 6 w E ^ [ [ / { } [ [ ^ [ { [ { { {  . . . . . . . . . . . ./  .{ _ ) ) _ ~ _  .{  . . ._ h h y h h _ _ { _ _ h r 7 1 ; = $ + ",
"  X @ % = > 4 t E ^ [ [ } } [ [ [ [ { { } } } } .. ..... ...o.o.o.o.o. . . .{ _ ( h ( ~ ~ {  .{ o. ._ _ h y h h _ _ _ _ h y r 6 1 ; % $ + ",
"  X @ % = > 7 w E ^ } } } } } { { [ { { } } o.o...o.........o.o.o.o.o.o.o. ._ Q h j h ( _  . . . . . .h h y h h _ { _ h h y e 6 < ; = $ o ",
"  X @ % = > 6 r W { } } } ..} { ~ /  . . . . . . .o.o.o.o.o.o.o.o.o.....} } _ ) h h h Q ~  ./  . . ._ ) j h h ( { { _ Q h h q 6 1 ; & $ o ",
"  o + % = , 7 a W { } } } ..} }  .~ ~  . . . . .o.o.o.o.o.o.o.o.o.o...} } } [ ( Q Q Q ~ ~ ~  . . . ._ _ ) ) ) _ { _ _ Q Q h r 7 1 ; & $ + ",
"  X @ % - < 7 a ) } } } o...} { / _  .~ /  . . . .o.o.o.o.o.o.o.o.o.} { [ { [ ) ! Q ! _ _  . ._  .~ _ _ _ _ _ { { _ _ ~ Q Q r 7 1 ; & $ o ",
"  X @ % = > 7 a | } } o.o.....{  . .~  . . . . .o.o.o.o.o.o.o.o.o...} } [ [ [ ^ ~ ~ ~ ~ { _ / { ~ ~  . . . . .{ _  .{ ~ / ! y 8 1 ; % $ + ",
"  X + % - < 6 a ) ....} ..} { { { { {  .{ { { {  . . . .o.o.o.o.o.....{ [ [ ^ / ^ ^ } / /  .~ ~ ^ ^ [ }  .o. .}  .{ / ^ / ! t 8 2 ; & $ + ",
"  X @ % = < 7 s ) o.} } } } } { { { { ~ ~ { { {  . . . .o.o.o.o.o.o...} } / } { } / { { { { ~ { ^ ^ ^ }  .o. .}  .{ { } ~ ! u 8 1 ; & $ o ",
"  X @ % = > 0 a ] ..} } { { { { ~ { { { / { / { / /  . . .o.o.o.o.o.....} } } } }  . .{ { { { { ^ [ { {  .o. .} ~  .{ ^ / E t 8 2 ; = $ + ",
"  X @ % = < 7 a ] ..} { { [ { [ { { { / ~ ~ ~ ~ / / /  .o.o.o.o.o.......o. . .o. . . . .{ { { ^ / ^ { } } o.} }  .~ [ / / ! t q 1 ; % $ o ",
"  X @ % = < 4 t E } { [ [ [ [ [ _ ~ ~ ~ ~ ~ ~ ~ / _ _  .X._  ._ | }  .| o.} o.} } } } } { { [ { / ~ ~ ~  ._ { _ ~ ~ ~ ~ / ! y 8 3 ; = $ + ",
"  o @ % = < 7 t E } } [ [ [ [ E _ h h h Q h Q ~ {  ._ _ _ ) ) _ ) _ _ { } { { } { { { { { / [ [ ~ ~ ! _ _ _ _ Q ( ( Q ! ~ ! y 8 1 ; % $ o ",
"  X @ % = < q w ) } [ [ [ ^ ) E h h h y h h Q ~  . ._ _ h h h h d Q ( ) [ { { { / / / ^ / [ [ ^ ~ ~ ~ _ h h h h h h h Q ^ ^ t q 3 ; = @ + ",
"  X @ % = > 4 r E [ [ ^ ^ ^ Q E y y y y y h h ~ _ { _ h h h y h y u u Q ! ^ ^ ^ / ^ ^ ^ ^ ^ ^ ^ ~ ~ Q h h y y y h h h h E E t 8 1 - = @ o ",
"  X @ % = < 2 w t E E E E u t t r r r r e r y j ( ( j s r r r q r r t t u E E E E E E E E E E E E E u t r r r r w r t t E E w 6 1 ; = @ o ",
"  o + % * > 1 4 q w r r w w q q 7 7 6 7 7 7 8 e p a e e 7 7 7 7 7 7 8 q q w w w w w q w w w w w r q q 8 7 7 7 7 7 7 8 q q q q 2 , - = @ + ",
"  X @ % = > < 1 2 4 4 4 6 4 2 2 5 5 1 5 5 5 5 5 6 6 5 5 1 5 1 2 1 2 2 2 4 4 4 4 2 6 6 6 2 2 2 6 6 2 5 2 2 1 2 1 1 5 2 2 2 2 1 < : ; = # o ",
"  X @ % = ; ; ; > < > > > > > : : : : : : : > > > > > > > > > : > : > > < > > < > > > > > < > > > > > > > ; > > : > > > < > : : ; - = # + ",
"  X + $ = = = = = = = = = = = = = = = = = = = = = = = = = = = = = = = = = = = = = = = = = = = = = = = = = = = = = = = = = = = = - = $ # o ",
"  X o + $ % $ % % $ % % % % % $ % % $ % % $ % % % % % $ % % % % % $ % % % % % $ % % % % % $ % % % % % $ % % % % % $ % % % % % $ % $ @ + o ",
"    X o + + @ @ @ + + @ @ @ + + + + @ @ + @ @ + @ + + + + + @ + + @ @ + @ + + + + + @ + + + @ + @ @ + + + + @ + + + @ + @ @ + + @ + O o o ",
"    . X X X X X . X X . X . X X X X X X . o . X . o X X o X X X . o . . . o X X o X . o o . X . X . X X o X . o o . X . X . o . o . o . . ",
"                                                                                                                                          "
};
